<svg xmlns="http://www.w3.org/2000/svg" viewBox="44 44 174 174">
 <defs>
  <style>
      @keyframes rotate {
         0% { transform: rotate(0) }  /* Safari cannot use rotate shorthand on SVG elements, and requires 0% */
         100% { transform: rotate(1turn) }
      }

      svg {
         animation: 23s linear infinite rotate;
         fill: #ff5337;
         font-size: 7.1px;
      }

      .link {
         font-family: 'Courier New', monospace;
         font-size: 6.5px;
      }
  </style>
 </defs>
    <path d="m211.05,153.99c.27.08.5.25.71.5s.32.52.37.8l-2.78-.69c-.08-.02-.14-.03-.18-.04-.07,0-.13,0-.18,0-.08.04-.14.12-.18.25l-.72,2.39c-.03.11-.1.19-.2.25-.1.06-.21.07-.32.03-.07-.02-.28-.21-.63-.57-.21-.22-.42-.44-.63-.67l.06-.19c.35.11.57-.01.68-.35l.48-1.58c.23-.75.71-1.01,1.46-.78l2.08.63Zm-.77,2.86c.21.06.42.25.62.55.17.27.28.53.33.78l-1.81-.55c-.2-.06-.34-.17-.41-.31l-.36-.81c.06-.08.2-.1.4-.03l1.23.37Z"/>
    <text transform="translate(212.28 153.25) rotate(-76.02)"><tspan x="0" y="0">ֹ</tspan></text>
    <text transform="translate(212.3 152.83) rotate(-76.02)"><tspan x="0" y="0">ּ</tspan></text>
    <path d="m209.92,149.39c.41.03.85.1,1.31.21.4.1.7.21.9.32.08.05.36.25.85.61.1.07.13.19.09.34l-.72,2.88-1.27-.81.55-2.22c-.27-.08-.43-.12-.45-.13-.42-.1-.8-.06-1.16.13-.28.15-.57.41-.86.79.05.17.13.26.23.29.14.04.36-.06.65-.29l.79.87c-.49.35-.88.49-1.15.42-.35-.09-.69-.37-1.04-.84-.08-.1-.31-.49-.71-1.16.3-.27.6-.54.89-.82.28-.26.44-.4.48-.43.19-.13.39-.19.61-.17h0Z"/>
    <path d="m208.64,147.58c.88-.72,1.61-1.02,2.2-.89.22.05.44.17.66.37.08.08.22.29.43.63.17.29.29.53.38.71.11.23.13.47.06.72l-.84-.83c-.12-.12-.26-.19-.41-.23-.37-.08-.84.17-1.42.76l-1.05-1.25h0Z"/>
    <path d="m210.09,142.86c.06-.35.41-.46,1.07-.35.19.03.46.11.78.23.79.29,1.37.76,1.73,1.4.3.53.49,1.27.6,2.24l-1.46-.82c-.09-.87-.22-1.42-.39-1.63-.09-.1-.23-.17-.44-.21-.21-.04-.35-.04-.43,0-.11.04-.18.15-.22.34l-.27,1.6c-.03.15-.3.2-.82.15-.33-.04-.66-.07-.99-.1-.12.02-.23.07-.34.16l-.73-1.19c.18-.08.42-.09.73-.03l.56.1c.19.03.31-.03.33-.18l.29-1.72h0Z"/>
    <path d="m213.79,140.01c.28.03.56.16.83.38.27.22.46.46.57.73l-2.28-.18c-.4-.03-.75.05-1.05.24-.24.15-.49.42-.76.8l-1.3-1.08c.7-.83,1.57-1.18,2.61-1.05l1.37.17Z"/>
    <path d="m213.12,135.38c.27-.24.69-.6,1.26-1.07l1.23.78c-1.44,1.01-2.43,1.87-2.98,2.57.19.29.49.46.9.49.15.01.23-.12.25-.39l.04-.6,1.39.59-.12,1.66c-.17-.17-.43-.3-.79-.39-.67-.16-1.01-.24-1.03-.25-.42-.14-.77-.36-1.06-.65-.18.23-.32.4-.42.53-.18.24-.3.42-.36.56l-1.15-.92c.26-.36.64-.79,1.15-1.31.08-.07.5-.48,1.27-1.22-.12-.1-.26-.15-.42-.16-.27-.02-.53.11-.77.37l-1.23-.98c.41-.39.85-.57,1.32-.54.54.04,1.05.35,1.54.92h0Z"/>
    <path d="m215.32,125.73s0,.05-.02.07c-.02.02-.04.03-.07.03l-.34.03s-.05,0-.07-.02c-.02-.02-.03-.04-.03-.07l-.04-.57-3.02.22.04.57s0,.05-.02.07c-.02.02-.04.03-.07.03l-.34.03s-.05,0-.07-.02c-.02-.02-.03-.04-.03-.07l-.24-3.2c0-.07.02-.13.06-.19.05-.05.1-.08.18-.09l3.75-.28s.05,0,.07.02c.02.02.03.04.03.07l.03.35s0,.05-.02.07c-.02.02-.04.03-.07.03l-3.46.26.13,1.78,3.31-.24c.07,0,.13.02.19.06.05.05.08.1.09.18l.06.87h0Z"/>
    <path d="m213.06,120.76s0,.05-.02.07c-.02.02-.04.03-.07.04l-1.68.21.07.58s0,.05-.02.07c-.02.02-.04.03-.07.04l-.34.04s-.05,0-.07-.02c-.02-.02-.03-.04-.04-.07l-.11-.88c0-.07,0-.13.05-.19s.1-.09.17-.1l1.96-.24s.05,0,.07.02c.02.02.03.04.04.07l.04.35h0Z"/>
    <path d="m214.34,117.03s0,.05-.02.07c-.02.02-.04.03-.07.04l-3.44.5.31,2.09s0,.05-.02.07c-.02.02-.04.03-.07.04l-.34.05s-.05,0-.07-.02c-.02-.02-.03-.04-.04-.07l-.35-2.38c-.01-.07,0-.13.05-.19.04-.06.1-.09.17-.1l3.72-.55s.05,0,.07.02c.02.02.03.04.04.07l.05.35h0Z"/>
    <path d="m214.05,115.44s0,.05-.01.08c-.01.02-.04.04-.06.04l-.33.07s-.05,0-.08-.01c-.02-.01-.04-.04-.04-.06l-.38-1.94-2.98.58.35,1.8s0,.05-.01.08c-.01.02-.04.04-.06.04l-.33.07s-.05,0-.08-.01c-.02-.01-.04-.04-.04-.06l-.41-2.09c-.01-.07,0-.13.04-.19.04-.06.09-.09.16-.11l3.25-.64-.1-.49s0-.05.01-.08c.01-.02.04-.04.06-.04l.33-.07s.05,0,.08.01c.02.01.04.04.04.06l.58,2.98h0Z"/>
    <path d="m213.28,111.77s0,.05-.01.08c-.01.02-.03.04-.06.04l-.33.08s-.05,0-.08-.01c-.02-.01-.04-.03-.04-.06l-.15-.63-2.94.72.11.43s0,.05-.01.08c-.01.02-.03.04-.06.04l-.33.08s-.05,0-.08-.01c-.02-.01-.04-.03-.04-.06l-.18-.72c-.02-.07,0-.13.03-.19.04-.06.09-.1.16-.12l3.22-.79-.14-.55c-.06-.25-.19-.44-.4-.57-.2-.13-.43-.16-.68-.1l-2.08.51.09.37s0,.05-.01.08c-.01.02-.03.04-.06.04l-.33.08s-.05,0-.08-.01c-.02-.01-.04-.03-.04-.06l-.16-.65c-.02-.07,0-.13.03-.19.04-.06.09-.1.16-.12l2.37-.58c.26-.06.51-.06.75.02.24.08.45.21.62.39.17.18.29.39.34.62l.43,1.76h0Z"/>
    <text class="cls-17" transform="translate(211.82 106.28) rotate(-107.92)"><tspan x="0" y="0">/</tspan></text>
    <text class="cls-44" transform="translate(210.93 103.55) rotate(-109.29)"><tspan x="0" y="0">/</tspan></text>
    <path d="m209.08,98.6s.01.05,0,.08c0,.02-.03.04-.05.05l-.31.14s-.05.01-.08,0c-.02,0-.04-.03-.05-.05l-.23-.53-2.78,1.2.23.53s.01.05,0,.08c0,.02-.03.04-.05.05l-.31.14s-.05.01-.08,0c-.02,0-.04-.03-.05-.05l-1.27-2.95c-.03-.07-.03-.13,0-.2.03-.07.07-.11.14-.14l3.45-1.49s.05-.01.08,0c.02,0,.04.03.05.05l.14.33s.01.05,0,.08c0,.02-.03.04-.05.05l-3.19,1.38.71,1.64,3.04-1.32c.07-.03.13-.03.2,0,.07.03.11.07.14.14l.35.8h0Z"/>
    <path d="m205.34,94.64s.01.05,0,.08c0,.03-.03.04-.05.06l-1.52.74.26.53s.01.05,0,.08c0,.03-.03.04-.05.06l-.31.15s-.05.01-.08,0c-.03,0-.04-.03-.06-.05l-.39-.8c-.03-.06-.04-.13-.01-.2.02-.07.07-.12.13-.15l1.77-.87s.05-.01.08,0c.03,0,.04.03.06.05l.16.32h0Z"/>
    <path d="m206.14,92.25s.02.05,0,.08c0,.03-.02.04-.05.06l-3.08,1.6.16.31s.02.05,0,.08c0,.03-.02.04-.05.06l-.3.16s-.05.02-.08,0c-.03,0-.04-.02-.06-.05l-.32-.62s-.03-.09-.01-.14c.01-.04.04-.08.09-.1l.28-.15c-.22-.04-.42-.12-.6-.25-.18-.13-.33-.3-.44-.51-.12-.23-.18-.46-.17-.69,0-.23.07-.44.19-.62.12-.19.28-.33.47-.43l1.83-.95c.22-.11.45-.13.67-.05.23.08.4.22.51.43l.32.62s.02.05,0,.08c0,.03-.02.04-.05.06l-.3.16s-.05.02-.08,0c-.03,0-.04-.02-.06-.05l-.32-.62c-.04-.08-.11-.14-.2-.17-.09-.03-.18-.02-.26.02l-1.71.89c-.23.12-.37.28-.44.5-.07.21-.04.43.08.66.14.27.34.44.6.53s.52.05.79-.09l2.25-1.17s.05-.02.08,0c.03,0,.04.02.06.05l.16.31h0Z"/>
    <path d="m204.28,88.72s.02.05.01.08c0,.03-.02.05-.05.06l-.29.18s-.05.02-.08.01c-.03,0-.05-.02-.06-.05l-.3-.49-2.58,1.59.3.49s.02.05.01.08c0,.03-.02.05-.05.06l-.29.18s-.05.02-.08.01c-.03,0-.05-.02-.06-.05l-1.68-2.73c-.04-.06-.05-.12-.03-.19.02-.07.05-.12.11-.16l3.2-1.97s.05-.02.08-.01c.03,0,.05.02.06.05l.19.3s.02.05.01.08c0,.03-.02.05-.05.06l-2.95,1.82.94,1.52,2.82-1.74c.06-.04.12-.05.19-.03.07.02.12.05.16.11l.46.74h0Z"/>
    <path d="m200.04,85.3s.02.05.01.07c0,.03-.02.05-.04.06l-1.42.92.32.49s.02.05.01.07c0,.03-.02.05-.04.06l-.29.19s-.05.02-.07.01c-.03,0-.05-.02-.06-.04l-.48-.74c-.04-.06-.05-.12-.04-.19.01-.07.05-.12.11-.16l1.65-1.08s.05-.02.07-.01c.03,0,.05.02.06.04l.19.3h0Z"/>
    <path d="m199.53,81.41s.02.05.02.07c0,.03-.02.05-.04.06l-2.81,2.03,1.23,1.71s.02.05.02.07c0,.03-.02.05-.04.06l-.28.2s-.05.02-.07.02c-.03,0-.05-.02-.06-.04l-1.41-1.95c-.04-.06-.06-.12-.05-.19s.05-.12.1-.17l3.04-2.2s.05-.02.07-.02c.03,0,.05.02.06.04l.21.29h0Z"/>
    <path d="m198.13,79.53s.02.05.02.07c0,.03-.02.05-.04.07l-2.76,2.1.36.47s.02.05.02.07c0,.03-.02.05-.04.07l-.27.21s-.05.02-.07.02c-.03,0-.05-.02-.07-.04l-.54-.71c-.04-.06-.06-.12-.05-.19,0-.07.04-.13.1-.17l2.99-2.27s.05-.02.07-.02c.03,0,.05.02.07.04l.21.28h0Z"/>
    <path d="m197.34,78.46s.03.05.02.08c0,.02-.02.05-.04.06l-.28.22s-.05.03-.07.02c-.03,0-.05-.02-.07-.04l-.07-.09c-.05-.06-.11-.11-.18-.14-.07-.04-.21-.08-.41-.15l-.2-.07-.53-.18-1.83,1.46.62.78s.03.05.02.07c0,.03-.02.05-.04.07l-.27.21s-.05.03-.07.02c-.03,0-.05-.02-.07-.04l-.81-1.01c-.04-.06-.06-.12-.05-.19s.04-.13.09-.17l2.93-2.35s.05-.03.07-.02c.03,0,.05.02.07.04l.21.27s.03.05.02.07c0,.03-.02.05-.04.07l-.42.33h0s.53.17.53.17c.22.07.39.13.5.18.11.05.2.13.28.23l.06.08h0Z"/>
    <path d="m194.89,75.53s.03.05.03.07c0,.03-.01.05-.03.07l-.36.32c-.21.18-.42.31-.63.4-.21.08-.41.13-.59.15-.18.02-.41.02-.67.01-.29-.01-.52,0-.69.03-.17.03-.33.11-.47.23l-.12.1,1.28,1.45c.07.08.1.16.09.26,0,.09-.05.17-.13.24l-.86.76s-.05.03-.07.03c-.03,0-.05-.01-.07-.03l-.24-.27s-.03-.05-.03-.07c0-.03.01-.05.03-.07l.72-.64-1.34-1.52c-.05-.05-.07-.11-.06-.19,0-.07.03-.13.09-.18l.26-.23c.17-.15.35-.27.53-.33.18-.07.35-.11.51-.12.16-.01.35-.02.58,0,.22,0,.4,0,.54,0,.14-.01.29-.05.44-.1.15-.06.3-.15.45-.28l.41-.37s.05-.03.07-.03c.03,0,.05.01.07.03l.24.28h0Z"/>
    <path d="m191.24,71.45s.05.08.04.13l-.59,2.95c.2.05.36.05.49,0,.13-.05.27-.14.42-.29l.76-.74-.39-.4s-.03-.04-.03-.07c0-.03.01-.05.03-.07l.24-.24s.04-.03.07-.03c.03,0,.05.01.07.03l.6.61c.05.05.07.11.07.18,0,.07-.03.13-.08.18l-.93.91c-.2.2-.39.33-.58.41-.19.08-.41.1-.67.06l-.18-.03-.21,1.05s-.02.06-.04.08c-.04.04-.08.05-.14.04l-.25-.06s-.06-.02-.08-.04c-.04-.04-.05-.08-.04-.13l.48-2.39c-.19-.16-.39-.25-.58-.27-.2-.02-.37.05-.53.2l-.54.53.39.4s.03.04.03.07c0,.03-.01.05-.03.07l-.24.24s-.04.03-.07.03c-.03,0-.05-.01-.07-.03l-.6-.61c-.05-.05-.07-.11-.07-.18,0-.07.03-.13.08-.18l.72-.7c.22-.21.48-.33.77-.35.29-.02.58.07.86.27l.32-1.59s.02-.06.04-.08c.04-.04.08-.05.14-.04l.25.06s.06.02.08.04h0Z"/>
    <text transform="translate(189.18 69.54) rotate(-137.16)"><tspan x="0" y="0">/</tspan></text>
    <text transform="translate(187.08 67.57) rotate(-140.03)"><tspan x="0" y="0">/</tspan></text>
    <path d="m183,64.21s.04.04.04.07c0,.03,0,.05-.02.07l-.21.27s-.04.04-.07.04c-.03,0-.05,0-.07-.02l-.46-.35-1.83,2.42.46.35s.04.04.04.07c0,.03,0,.05-.02.07l-.21.27s-.04.04-.07.04c-.03,0-.05,0-.07-.02l-2.56-1.94c-.06-.04-.09-.1-.1-.17,0-.07,0-.13.05-.19l2.27-3s.04-.04.07-.04c.03,0,.05,0,.07.02l.28.21s.04.04.04.07c0,.03,0,.05-.02.07l-2.09,2.77,1.42,1.07,2-2.64c.04-.06.1-.09.17-.1.07,0,.13,0,.19.05l.7.53h0Z"/>
    <path d="m177.79,62.62s.04.04.04.06c0,.03,0,.05-.02.07l-.95,1.4.49.33s.04.04.04.06c0,.03,0,.05-.02.07l-.19.28s-.04.04-.06.04c-.03,0-.05,0-.07-.02l-.73-.5c-.06-.04-.09-.09-.11-.16-.01-.07,0-.13.04-.19l1.11-1.63s.04-.04.06-.04c.03,0,.05,0,.07.02l.29.2h0Z"/>
    <path d="m177.66,60.37s.04.04.04.06c0,.03,0,.05-.01.08l-.18.29s-.04.04-.06.04c-.03,0-.05,0-.08-.01l-.48-.31-1.64,2.55.48.31s.04.04.04.06c0,.03,0,.05-.01.08l-.18.29s-.04.04-.06.04c-.03,0-.05,0-.08-.01l-2.7-1.74c-.06-.04-.1-.09-.11-.16-.01-.07,0-.13.04-.19l2.03-3.16s.04-.04.06-.04c.03,0,.05,0,.08.01l.3.19s.04.04.04.06c0,.03,0,.05-.01.08l-1.88,2.92,1.5.96,1.79-2.79c.04-.06.09-.1.16-.11.07-.01.13,0,.19.04l.73.47h0Z"/>
    <path d="m173.85,57.99s.04.03.05.06c0,.03,0,.05-.01.08l-.17.3s-.03.04-.06.05c-.03,0-.05,0-.08-.01l-.51-.29c-.09-.05-.18-.06-.28-.04-.1.03-.17.08-.22.17l-1.33,2.31.65.37s.04.03.05.06c0,.03,0,.05-.01.08l-.17.3s-.03.04-.06.05c-.03,0-.05,0-.08-.01l-.91-.52c-.06-.04-.1-.09-.12-.15s0-.13.03-.19l1.47-2.56c.08-.14.19-.25.33-.33.14-.08.29-.12.46-.12.16,0,.31.04.45.11l.52.3h0Z"/>
    <path d="m171.08,56.43s.04.03.05.06c0,.03,0,.05,0,.08l-1.65,3.05.52.28s.04.03.05.06c0,.03,0,.05,0,.08l-.16.3s-.03.04-.06.05c-.03,0-.05,0-.08,0l-.78-.42c-.06-.03-.1-.08-.12-.15-.02-.07-.01-.13.02-.19l1.79-3.3s.03-.04.06-.05c.03,0,.05,0,.08,0l.31.17h0Z"/>
    <path d="m169.68,55.69s.04.03.05.06c0,.03,0,.05,0,.08l-.15.3s-.03.04-.06.05c-.03,0-.05,0-.08,0l-1.53-.78c-.08-.04-.17-.05-.26-.02-.09.03-.16.08-.2.16l-1.22,2.41,1.78.91s.04.03.05.06c0,.03,0,.05,0,.08l-.15.3s-.03.04-.06.05c-.03,0-.05,0-.08,0l-2.05-1.04c-.06-.03-.11-.08-.13-.15-.02-.07-.02-.13.02-.2l1.35-2.66c.07-.14.17-.25.31-.33.13-.08.28-.13.44-.14.16,0,.31.03.45.1l1.53.78h0Z"/>
    <path d="m166.41,54.08s.04.03.05.05c0,.02,0,.05,0,.08l-.14.31s-.03.04-.05.05c-.02,0-.05,0-.08,0l-.53-.23-1.24,2.77.53.23s.04.03.05.05c0,.02,0,.05,0,.08l-.14.31s-.03.04-.05.05c-.02,0-.05,0-.08,0l-2.93-1.31c-.06-.03-.11-.08-.13-.14s-.02-.13,0-.2l1.53-3.43s.03-.04.05-.05c.03,0,.05,0,.08,0l.32.14s.04.03.05.05c0,.02,0,.05,0,.08l-1.41,3.17,1.63.73,1.35-3.03c.03-.06.08-.11.14-.13s.13-.02.2,0l.8.36h0Z"/>
    <path d="m161.84,52.12s.05.03.06.05c.01.02.01.05,0,.08l-1.25,3.24.33.13s.05.03.06.05c.01.02.01.05,0,.08l-.12.32s-.03.05-.05.06c-.02.01-.05.01-.08,0l-.66-.25s-.08-.05-.1-.09c-.02-.04-.02-.09,0-.14l.12-.3c-.19.12-.39.19-.61.21-.22.02-.44,0-.67-.09-.24-.09-.44-.23-.58-.41-.15-.18-.24-.38-.27-.59-.03-.22,0-.43.07-.63l.75-1.93c.09-.23.25-.39.47-.48.22-.09.45-.1.67-.01l.66.25s.05.03.06.05c.01.02.01.05,0,.08l-.12.32s-.03.05-.05.06c-.02.01-.05.01-.08,0l-.65-.25c-.09-.03-.18-.03-.26,0-.09.04-.15.1-.18.19l-.69,1.79c-.09.24-.09.46,0,.67.09.21.26.35.49.45.28.11.55.11.8,0,.25-.11.43-.31.54-.59l.91-2.36s.03-.05.05-.06c.02-.01.05-.01.08,0l.33.13h0Z"/>
    <text transform="translate(156.84 50.31) rotate(-163.16)"><tspan x="0" y="0">/</tspan></text>
    <text transform="translate(154.09 49.49) rotate(-164.59)"><tspan x="0" y="0">/</tspan></text>
    <path d="m148.97,48.18s.05.02.06.04c.01.02.02.05.01.08l-.07.33s-.02.05-.04.06c-.02.01-.05.02-.08.01l-.56-.11-.59,2.97.56.11s.05.02.06.04c.01.02.02.05.01.08l-.07.33s-.02.05-.04.06c-.02.01-.05.02-.08.01l-3.15-.62c-.07-.01-.12-.05-.16-.11-.04-.06-.05-.12-.04-.19l.73-3.69s.02-.05.04-.06c.02-.01.05-.02.08-.01l.35.07s.05.02.06.04c.01.02.02.05.01.08l-.67,3.41,1.75.34.64-3.25c.01-.07.05-.12.11-.16.06-.04.12-.05.19-.04l.86.17h0Z"/>
    <path d="m143.59,49s.05.02.07.04c.02.02.02.05.02.07l-.24,1.67.58.09s.05.02.07.04c.02.02.02.05.02.07l-.05.34s-.02.05-.04.07c-.02.02-.05.02-.07.02l-.88-.13c-.07-.01-.13-.04-.17-.1-.04-.06-.06-.12-.05-.19l.29-1.95s.02-.05.04-.07c.02-.02.05-.02.07-.02l.35.05h0Z"/>
    <path d="m141.63,48.72s.05.02.07.04c.02.02.02.05.02.07l-.2,1.68.59.07s.05.02.07.04c.02.02.02.05.02.07l-.04.34s-.02.05-.04.07c-.02.02-.05.02-.07.02l-.88-.11c-.07,0-.13-.04-.17-.1-.04-.06-.06-.12-.05-.19l.24-1.96s.02-.05.04-.07c.02-.02.05-.02.07-.02l.35.04h0Z"/>
    <path d="m139.76,46.7s.05.01.07.04c.02.02.02.05.02.07l-.33,3.46.59.06s.05.01.07.04c.02.02.02.05.02.07l-.03.34s-.01.05-.04.07c-.02.02-.05.02-.07.02l-.88-.09c-.07,0-.13-.04-.17-.09s-.06-.12-.06-.19l.36-3.74s.01-.05.04-.07c.02-.02.05-.02.07-.02l.35.03h0Z"/>
    <path d="m137.81,46.52s.05.01.07.03c.02.02.03.04.02.07l-.02.34s-.01.05-.03.07c-.02.02-.04.03-.07.02l-2.23-.16c-.01.18.01.33.07.45.06.11.16.23.3.35l.38.32.36.3c.22.19.39.35.49.48.1.13.17.26.21.39.03.13.04.3.03.5l-.03.39.48.03s.05.01.07.03c.02.02.03.04.02.07l-.02.34s-.01.05-.03.07c-.02.02-.04.03-.07.02l-.78-.06c-.07,0-.13-.03-.18-.09-.05-.05-.07-.12-.06-.19l.05-.67c0-.14,0-.25-.05-.35-.04-.1-.1-.19-.19-.28-.08-.09-.23-.22-.43-.4-.28.07-.5.17-.66.31-.16.14-.24.33-.26.58l-.03.42.48.03s.05.01.07.03c.02.02.03.04.02.07l-.02.34s-.01.05-.03.07c-.02.02-.04.03-.07.02l-.78-.06c-.07,0-.13-.03-.18-.09-.05-.05-.07-.12-.06-.19l.04-.5c.03-.38.12-.68.27-.9.15-.22.41-.39.77-.52-.21-.17-.37-.33-.48-.46-.11-.14-.18-.27-.21-.41-.03-.14-.05-.31-.03-.51l.02-.28c0-.07.03-.13.09-.18.05-.05.12-.07.19-.06l2.53.18h0Z"/>
    <path d="m133.31,48.06s.05.01.07.03c.02.02.03.04.03.07l-.04,1.69h.59s.05.02.07.04c.02.02.03.04.03.07v.34s-.02.05-.04.07c-.02.02-.04.03-.07.03l-.89-.02c-.07,0-.13-.03-.18-.08-.05-.05-.07-.11-.07-.18l.05-1.97s.01-.05.03-.07c.02-.02.04-.03.07-.03h.35Z"/>
    <path d="m131.49,46.24s.05,0,.07.03c.02.02.03.04.03.07v3.47s.36,0,.36,0c.03,0,.05,0,.07.03.02.02.03.04.03.07v.34s0,.05-.03.07c-.02.02-.04.03-.07.03h-.7c-.05,0-.09-.02-.13-.05-.03-.03-.05-.08-.05-.13v-.32c-.13.18-.3.31-.49.42-.2.1-.42.15-.66.15-.26,0-.49-.06-.69-.17-.2-.11-.36-.27-.47-.46-.11-.19-.16-.4-.16-.61v-2.07c0-.25.09-.45.26-.62.17-.17.38-.25.62-.25h.7s.05,0,.07.03c.02.02.03.04.03.07v.34s0,.05-.03.07c-.02.02-.04.03-.07.03h-.7c-.09,0-.18.03-.24.1-.07.07-.1.15-.1.24v1.92c0,.26.08.46.24.62.16.16.37.24.62.24.3,0,.55-.1.74-.29.19-.19.29-.44.29-.74v-2.53s0-.05.02-.07c.02-.02.04-.03.07-.03h.35Z"/>
    <text transform="translate(126.07 46.37) rotate(175.77)"><tspan x="0" y="0">/</tspan></text>
    <text transform="translate(123.21 46.6) rotate(174.39)"><tspan x="0" y="0">/</tspan></text>
    <path d="m117.96,47.23s.05,0,.07.02c.02.02.04.04.04.07l.06.34s0,.05-.02.07c-.02.02-.04.04-.07.04l-.57.1.51,2.99.57-.1s.05,0,.07.02c.02.02.04.04.04.07l.06.34s0,.05-.02.07c-.02.02-.04.04-.07.04l-3.16.54c-.07.01-.13,0-.19-.04-.06-.04-.09-.1-.1-.17l-.63-3.7s0-.05.02-.07c.02-.02.04-.04.07-.04l.35-.06s.05,0,.07.02c.02.02.04.04.04.07l.59,3.42,1.76-.3-.56-3.27c-.01-.07,0-.13.04-.19.04-.06.1-.09.17-.1l.86-.15h0Z"/>
    <path d="m113.23,48.11s.05,0,.08.01c.02.01.04.04.04.06l.07.33s0,.05-.01.08c-.01.02-.04.04-.06.04l-2.18.48c.04.18.11.32.2.41.09.09.22.17.39.25l.46.2.43.18c.27.12.47.23.61.32.14.09.24.2.31.32.07.12.13.27.17.47l.08.38.47-.1s.05,0,.08.01c.02.01.04.04.04.06l.07.33s0,.05-.01.08c-.01.02-.04.04-.06.04l-.76.17c-.07.02-.13,0-.19-.03-.06-.04-.1-.09-.11-.16l-.15-.66c-.03-.13-.08-.24-.14-.32-.07-.08-.15-.15-.26-.21-.11-.06-.28-.15-.53-.26-.25.15-.43.31-.54.48-.11.17-.14.38-.09.63l.09.41.47-.1s.05,0,.08.01c.02.01.04.04.04.06l.07.33s0,.05-.01.08c-.01.02-.04.04-.06.04l-.76.17c-.07.02-.13,0-.19-.03-.06-.04-.1-.09-.11-.16l-.11-.49c-.08-.37-.08-.68,0-.93.08-.25.28-.49.59-.72-.25-.1-.45-.21-.59-.31-.14-.1-.25-.21-.32-.34-.07-.12-.13-.29-.18-.48l-.06-.27c-.02-.07,0-.13.03-.19.04-.06.09-.1.16-.11l2.48-.55h0Z"/>
    <path d="m108.73,49.2s.05,0,.08,0c.02.01.04.03.05.06l.13.47c.07.26.1.51.08.74-.02.23-.06.43-.13.6-.07.17-.16.37-.28.61-.14.25-.23.46-.28.63s-.05.34,0,.53l.04.15,1.87-.51c.1-.03.19-.02.27.03.08.05.14.12.16.22l.3,1.11s0,.05,0,.08c-.01.02-.03.04-.06.05l-.34.09s-.05,0-.08,0c-.02-.01-.04-.03-.05-.06l-.25-.93-1.95.53c-.07.02-.13.01-.19-.02-.06-.03-.1-.09-.12-.16l-.09-.34c-.06-.22-.08-.43-.07-.62.02-.19.05-.36.11-.51.06-.15.14-.32.25-.52.1-.2.18-.36.23-.49s.09-.28.1-.44c.02-.16,0-.34-.05-.53l-.15-.53s0-.05,0-.08c.01-.02.03-.04.06-.05l.36-.1h0Z"/>
    <path d="m105.48,50.15s.05,0,.08,0c.02.01.04.03.05.06l1.07,3.3.56-.18s.05,0,.08,0c.02.01.04.03.05.06l.1.32s0,.05,0,.08c-.01.02-.03.04-.06.05l-.84.27c-.07.02-.13.02-.2-.02-.06-.03-.1-.08-.13-.15l-1.16-3.57s0-.05,0-.08c.01-.02.03-.04.06-.05l.34-.11h0Z"/>
    <path d="m101.23,51.51s.09-.01.14.02l2.42,1.78c.12-.16.19-.31.21-.45.01-.14-.01-.31-.08-.5l-.35-1.01-.52.18s-.05,0-.08,0c-.02-.01-.04-.03-.05-.06l-.11-.32s0-.05,0-.08c.01-.02.03-.04.06-.05l.8-.28c.07-.02.13-.02.2.01.06.03.11.08.13.15l.43,1.23c.09.26.14.5.13.7,0,.21-.08.42-.23.63l-.11.15.86.63s.04.04.05.07c.02.05,0,.1-.02.14l-.16.2s-.04.04-.07.05c-.05.02-.09.01-.14-.02l-1.97-1.45c-.23.11-.39.24-.49.41-.1.17-.12.36-.04.56l.25.71.52-.18s.05,0,.08,0c.02.01.04.03.05.06l.11.32s0,.05,0,.08c-.01.02-.03.04-.06.05l-.8.28c-.07.02-.13.02-.2-.01-.06-.03-.11-.08-.13-.15l-.33-.94c-.1-.29-.1-.57,0-.85.1-.27.31-.5.61-.66l-1.31-.96s-.04-.04-.05-.07c-.02-.05,0-.1.02-.14l.16-.2s.04-.04.07-.05h0Z"/>
    <path d="m99.54,52.26s.05-.01.08,0c.02.01.04.03.05.06l1.3,3.22.33-.13s.05-.01.08,0c.02.01.04.03.05.06l.13.32s.01.05,0,.08c-.01.02-.03.04-.06.05l-.65.26s-.09.02-.14,0c-.04-.02-.07-.05-.09-.1l-.12-.3c-.06.21-.16.4-.3.57-.14.17-.33.3-.55.39-.24.1-.48.13-.71.1-.23-.03-.43-.11-.6-.25-.17-.14-.3-.31-.38-.51l-.77-1.92c-.09-.23-.08-.46.01-.68.1-.22.26-.38.48-.47l.65-.26s.05-.01.08,0c.02.01.04.03.05.06l.13.32s.01.05,0,.08c-.01.02-.03.04-.06.05l-.65.26c-.09.04-.15.1-.19.18-.04.09-.04.17,0,.26l.72,1.78c.1.24.25.4.45.49.21.09.43.08.67-.01.28-.11.47-.3.58-.54.11-.25.1-.51-.01-.8l-.95-2.35s-.01-.05,0-.08c.01-.02.03-.04.06-.05l.33-.13h0Z"/>
    <text transform="translate(94.59 54.41) rotate(153.86)"><tspan x="0" y="0">/</tspan></text>
    <text transform="translate(92 55.66) rotate(151.1)"><tspan x="0" y="0">/</tspan></text>
    <path d="m87.4,58.25s.05-.02.08-.01c.03,0,.05.02.06.05l.18.29s.02.05.01.08c0,.03-.02.05-.05.06l-.49.3,1.59,2.58.49-.3s.05-.02.08-.01c.03,0,.05.02.06.05l.18.29s.02.05.01.08c0,.03-.02.05-.05.06l-2.73,1.68c-.06.04-.12.05-.19.03-.07-.02-.12-.05-.16-.11l-1.97-3.2s-.02-.05-.01-.08c0-.03.02-.05.05-.06l.3-.19s.05-.02.08-.01c.03,0,.05.02.06.05l1.82,2.95,1.52-.94-1.74-2.82c-.04-.06-.05-.12-.03-.19s.05-.12.11-.16l.74-.46h0Z"/>
    <path d="m83.64,60.63s.05-.02.07-.02c.03,0,.05.02.06.04l.19.28s.02.05.02.07c0,.03-.02.05-.04.06l-.49.33c-.09.06-.14.14-.16.24-.02.1,0,.19.06.28l1.51,2.2.61-.42s.05-.02.07-.02c.03,0,.05.02.06.04l.19.28s.02.05.02.07c0,.03-.02.05-.04.06l-.86.59c-.06.04-.12.05-.19.04-.07-.01-.12-.05-.16-.11l-1.67-2.43c-.09-.13-.14-.28-.15-.44-.01-.16.02-.32.09-.47.07-.15.17-.27.3-.36l.5-.34h0Z"/>
    <path d="m80.03,63.1c.21-.16.45-.26.71-.29.26-.03.51,0,.75.1.24.1.44.26.61.47l1.31,1.73.34-.26s.05-.02.07-.02c.03,0,.05.02.07.04l.21.27s.02.05.02.07c0,.03-.02.05-.04.07l-2.49,1.89c-.06.04-.12.06-.19.05-.07,0-.13-.04-.17-.1l-1.49-1.96c-.16-.21-.26-.45-.29-.71-.03-.26,0-.51.1-.75.1-.24.25-.44.46-.6h0Zm.32.42c-.13.1-.23.23-.29.38-.06.15-.08.31-.06.47.02.16.08.31.18.44l1.33,1.75,1.46-1.11-1.33-1.75c-.1-.13-.23-.23-.38-.29-.15-.06-.31-.08-.47-.06-.16.02-.31.08-.44.18h0Z"/>
    <path d="m77.62,65.08s.05-.03.07-.02c.03,0,.05.02.07.04l2.17,2.71.46-.37s.05-.03.07-.02c.03,0,.05.02.07.04l.21.27s.03.05.02.07c0,.03-.02.05-.04.07l-.69.55c-.06.04-.12.06-.19.05-.07,0-.13-.04-.17-.09l-2.35-2.93s-.03-.05-.02-.07c0-.03.02-.05.04-.07l.28-.22h0Z"/>
    <path d="m74.78,67.48s.05-.03.07-.03c.03,0,.05.01.07.03l2.3,2.6,1.58-1.4s.05-.03.07-.03c.03,0,.05.01.07.03l.23.26s.03.05.03.07c0,.03-.01.05-.03.07l-1.8,1.59c-.05.05-.11.07-.19.06s-.13-.03-.18-.09l-2.49-2.81s-.03-.05-.03-.07c0-.03.01-.05.03-.07l.27-.24h0Z"/>
    <path d="m73.31,68.78s.04-.03.07-.03c.03,0,.05.01.07.03l2.43,2.48.25-.25s.04-.03.07-.03c.03,0,.05.01.07.03l.24.24s.03.04.03.07c0,.03-.01.05-.03.07l-.5.49s-.08.05-.13.05c-.05,0-.09-.02-.12-.06l-.22-.23c.03.22,0,.43-.06.64-.07.21-.19.4-.36.57-.19.18-.39.3-.61.36-.22.06-.44.06-.65,0-.21-.06-.39-.17-.55-.33l-1.44-1.48c-.17-.18-.25-.39-.24-.63,0-.24.1-.45.27-.61l.5-.49s.04-.03.07-.03c.03,0,.05.01.07.03l.24.24s.03.04.03.07c0,.03-.01.05-.03.07l-.5.49c-.07.07-.1.15-.1.24,0,.09.03.17.1.24l1.34,1.38c.18.18.38.28.6.28.22,0,.43-.09.61-.26.22-.21.33-.45.33-.72s-.1-.52-.31-.73l-1.77-1.81s-.03-.04-.03-.07c0-.03.01-.05.03-.07l.25-.25h0Z"/>
    <text transform="translate(69.55 72.53) rotate(132.84)"><tspan x="0" y="0">/</tspan></text>
    <text transform="translate(67.58 74.63) rotate(129.97)"><tspan x="0" y="0">/</tspan></text>
    <path d="m64.22,78.7s.04-.04.07-.04c.03,0,.05,0,.07.02l.27.21s.04.04.04.07c0,.03,0,.05-.02.07l-.35.46,2.42,1.83.35-.46s.04-.04.07-.04c.03,0,.05,0,.07.02l.27.21s.04.04.04.07c0,.03,0,.05-.02.07l-1.94,2.56c-.04.06-.1.09-.17.1-.07,0-.13,0-.19-.05l-3-2.27s-.04-.04-.04-.07c0-.03,0-.05.02-.07l.21-.28s.04-.04.07-.04c.03,0,.05,0,.07.02l2.77,2.09,1.07-1.42-2.64-2c-.06-.04-.09-.1-.1-.17,0-.07,0-.13.05-.19l.53-.7h0Z"/>
    <path d="m62.62,83.92s.04-.04.06-.04c.03,0,.05,0,.07.02l1.4.95.33-.49s.04-.04.06-.04c.03,0,.05,0,.07.02l.28.19s.04.04.04.06c0,.03,0,.05-.02.07l-.5.73c-.04.06-.09.09-.16.11s-.13,0-.19-.04l-1.63-1.11s-.04-.04-.04-.06c0-.03,0-.05.02-.07l.2-.29h0Z"/>
    <path d="m59.93,84.73s.04-.04.06-.04c.03,0,.05,0,.08.01l.41.26c.23.15.42.31.55.5.14.18.24.36.31.53.06.17.13.38.2.64.07.28.14.5.21.66.08.16.19.29.35.39l.13.08,1.05-1.63c.06-.09.13-.14.22-.16.09-.02.18,0,.27.05l.97.62s.04.04.04.06c0,.03,0,.05-.01.08l-.19.3s-.04.04-.06.04c-.03,0-.05,0-.08-.01l-.81-.52-1.09,1.7c-.04.06-.09.1-.16.11-.07.01-.13,0-.19-.04l-.29-.19c-.2-.13-.35-.26-.47-.42-.12-.15-.2-.3-.26-.45-.06-.15-.11-.33-.17-.55-.05-.21-.1-.39-.15-.52-.05-.13-.12-.27-.22-.4-.1-.13-.23-.25-.39-.36l-.47-.3s-.04-.04-.04-.06c0-.03,0-.05.01-.08l.2-.31h0Z"/>
    <path d="m58.25,87.41c.04-.06.09-.1.15-.12.07-.02.13,0,.19.03l3.26,1.87s.04.03.05.06c0,.03,0,.05-.01.08l-.18.31s-.03.04-.06.05c-.03,0-.05,0-.08-.01l-3.02-1.73-.6,1.05c-.13.23-.16.47-.1.71.07.25.22.43.44.56l1.53.88c.12.07.23.09.33.06.1-.03.18-.1.24-.19.06-.1.07-.21.04-.32-.03-.11-.1-.19-.19-.25l-.94-.54s-.04-.03-.05-.06c0-.03,0-.05.01-.08l.18-.31s.03-.04.06-.05c.03,0,.05,0,.08.01l.92.53c.15.09.27.21.35.35.08.15.12.31.12.48,0,.17-.05.34-.14.5-.13.23-.32.38-.55.44-.24.07-.48.03-.74-.12l-1.57-.9c-.22-.13-.39-.3-.52-.52-.12-.22-.19-.45-.19-.7,0-.25.06-.49.19-.71l.78-1.37h0Z"/>
    <path d="m57.57,92.27s.03-.04.06-.05c.03,0,.05,0,.08,0l1.49.8.28-.52s.03-.04.06-.05c.03,0,.05,0,.08,0l.3.16s.04.03.05.06c0,.03,0,.05,0,.08l-.42.78c-.03.06-.08.1-.15.12s-.13.01-.19-.02l-1.74-.94s-.04-.03-.05-.06c0-.03,0-.05,0-.08l.17-.31h0Z"/>
    <path d="m55.45,92.44s.03-.05.06-.05c.02,0,.05,0,.07.01l.32.16s.04.03.05.06c0,.03,0,.05,0,.08l-.05.1c-.03.07-.05.14-.05.22,0,.08.01.23.04.44l.02.21.06.56,2.09,1.06.45-.89s.03-.04.06-.05c.03,0,.05,0,.08,0l.3.15s.04.03.05.06c0,.03,0,.05,0,.08l-.59,1.15c-.03.06-.08.11-.15.13-.07.02-.13.02-.2-.02l-3.35-1.7s-.04-.03-.05-.06c0-.03,0-.05,0-.08l.15-.3s.03-.04.06-.05c.03,0,.05,0,.08,0l.47.24h0s-.07-.56-.07-.56c-.03-.23-.04-.41-.04-.53,0-.12.03-.23.09-.35l.05-.09h0Z"/>
    <path d="m55.51,96.47s.03-.04.05-.05c.02,0,.05,0,.08,0l1.54.69.24-.54s.03-.04.05-.05c.02,0,.05,0,.08,0l.31.14s.04.03.05.05c0,.02,0,.05,0,.08l-.36.81c-.03.06-.08.11-.14.13s-.13.02-.2,0l-1.8-.8s-.04-.03-.05-.05c0-.03,0-.05,0-.08l.14-.32h0Z"/>
    <path d="m52.62,98.66s.03-.04.05-.05c.02-.01.05,0,.08,0l3.21,1.33.68-1.65s.03-.04.05-.05c.02-.01.05,0,.08,0l.31.13s.04.03.05.05c.01.02,0,.05,0,.08l-1.15,2.75s-.03.04-.05.05c-.02.01-.05,0-.08,0l-.31-.13s-.04-.03-.05-.05c-.01-.02,0-.05,0-.08l.25-.6-3.21-1.33s-.04-.03-.05-.05c-.01-.02,0-.05,0-.08l.14-.33h0Z"/>
    <text transform="translate(51.32 101.99) rotate(109.72)"><tspan x="0" y="0">/</tspan></text>
    <text transform="translate(50.37 104.71) rotate(106.84)"><tspan x="0" y="0">/</tspan></text>
    <path d="m48.86,109.77s.02-.05.04-.06c.02-.01.05-.02.08-.01l.33.07s.05.02.06.04c.01.02.02.05.01.08l-.13.56,2.96.66.13-.56s.02-.05.04-.06c.02-.01.05-.02.08-.01l.33.07s.05.02.06.04c.01.02.02.05.01.08l-.7,3.13c-.02.07-.05.12-.11.16-.06.04-.12.05-.19.03l-3.67-.82s-.05-.02-.06-.04c-.01-.02-.02-.05-.01-.08l.08-.35s.02-.05.04-.06c.02-.01.05-.02.08-.01l3.39.75.39-1.74-3.24-.72c-.07-.02-.12-.05-.16-.11-.04-.06-.05-.12-.03-.19l.19-.85h0Z"/>
    <path d="m49.51,115.21s.02-.05.04-.06c.02-.01.05-.02.08-.01l1.66.33.11-.58s.02-.05.04-.06c.02-.01.05-.02.08-.01l.33.07s.05.02.06.04c.01.02.02.05.01.08l-.17.87c-.01.07-.05.12-.11.16-.06.04-.12.05-.19.04l-1.94-.38s-.05-.02-.06-.04c-.01-.02-.02-.05-.01-.08l.07-.35h0Z"/>
    <path d="m47.37,117.02s.02-.05.04-.07c.02-.02.05-.02.07-.02l.48.08c.27.05.51.13.7.24.2.11.36.24.49.37.13.13.27.3.43.51.17.23.32.4.45.52s.29.19.48.22l.15.03.33-1.91c.02-.1.06-.18.14-.24.08-.05.17-.07.27-.05l1.13.19s.05.02.07.04c.02.02.02.05.02.07l-.06.35s-.02.05-.04.07c-.02.02-.05.02-.07.02l-.95-.16-.34,1.99c-.01.07-.05.13-.1.17-.06.04-.12.05-.19.04l-.34-.06c-.23-.04-.43-.11-.59-.2-.17-.1-.3-.2-.41-.32-.11-.11-.23-.26-.37-.45-.13-.18-.25-.32-.35-.42s-.22-.2-.36-.28c-.14-.08-.31-.14-.5-.18l-.55-.09s-.05-.02-.07-.04c-.02-.02-.02-.05-.02-.07l.06-.36h0Z"/>
    <path d="m46.7,121.94s.02-.05.04-.07c.02-.02.05-.02.07-.02l3.45.42.25-2.09s.02-.05.04-.07c.02-.02.05-.02.07-.02l.34.04s.05.02.07.04c.02.02.02.05.02.07l-.29,2.39c0,.07-.04.13-.1.17-.06.04-.12.06-.19.05l-3.73-.45s-.05-.02-.07-.04c-.02-.02-.02-.05-.02-.07l.04-.35h0Z"/>
    <path d="m46.5,124.24s.01-.05.03-.07c.02-.02.04-.03.07-.02l3.46.25.04-.59s.01-.05.03-.07c.02-.02.04-.03.07-.02l.34.02s.05.01.07.03c.02.02.03.04.02.07l-.06.89c0,.07-.03.13-.09.18s-.12.07-.19.06l-3.75-.27s-.05-.01-.07-.03c-.02-.02-.03-.04-.02-.07l.03-.35h0Z"/>
    <path d="m46.3,127.59s.01-.05.03-.07c.02-.02.04-.03.07-.03l3.47.16.08-1.78s.01-.05.03-.07c.02-.02.04-.03.07-.03l.34.02s.05.01.07.03c.02.02.03.04.03.07l-.14,2.98s-.01.05-.03.07c-.02.02-.04.03-.07.03l-.34-.02s-.05-.01-.07-.03c-.02-.02-.03-.04-.03-.07l.03-.65-3.47-.16s-.05-.01-.07-.03c-.02-.02-.03-.04-.03-.07l.02-.35h0Z"/>
    <path d="m46.24,129.82s0-.05.03-.07c.02-.02.04-.03.07-.03h.34s.05,0,.07.03c.02.02.03.04.03.07v2.24c.19,0,.33-.03.44-.1.11-.07.22-.18.33-.32l.29-.41.27-.38c.17-.24.32-.41.44-.53s.25-.19.38-.23c.13-.04.29-.06.49-.06h.39s0-.48,0-.48c0-.03,0-.05.03-.07.02-.02.04-.03.07-.03h.34s.05,0,.07.03c.02.02.03.04.03.07v.78c0,.07-.02.13-.07.18-.05.05-.11.07-.18.07h-.67c-.14,0-.25.02-.35.07-.09.05-.18.12-.26.21-.08.09-.2.24-.37.46.09.27.21.48.36.63.15.15.35.22.6.22h.42s0-.48,0-.48c0-.03,0-.05.03-.07.02-.02.04-.03.07-.03h.34s.05,0,.07.03c.02.02.03.04.03.07v.78c0,.07-.02.13-.07.18s-.11.07-.18.07h-.5c-.38,0-.68-.07-.91-.2-.23-.13-.42-.38-.57-.73-.16.22-.3.39-.43.51-.13.12-.26.2-.4.24-.14.05-.31.07-.51.07h-.28c-.07,0-.13-.02-.18-.07-.05-.05-.07-.11-.07-.18v-2.53h0Z"/>
    <path d="m46.31,134.29s0-.05.02-.07c.02-.02.04-.03.07-.03l3.47-.17-.03-.59s0-.05.02-.07c.02-.02.04-.03.07-.03l.34-.02s.05,0,.07.02c.02.02.03.04.03.07l.04.89c0,.07-.02.13-.07.18s-.11.08-.18.08l-3.75.19s-.05,0-.07-.02c-.02-.02-.03-.04-.03-.07l-.02-.35h0Z"/>
    <path d="m46.55,138.08s0-.05.02-.07c.02-.02.04-.03.07-.03l3.46-.26-.16-2.1s0-.05.02-.07c.02-.02.04-.03.07-.03l.34-.03s.05,0,.07.02c.02.02.03.04.03.07l.18,2.4c0,.07-.02.13-.06.19-.05.05-.1.08-.18.09l-3.75.28s-.05,0-.07-.02c-.02-.02-.03-.04-.03-.07l-.03-.35h0Z"/>
    <path d="m46.74,140s0-.05.02-.07c.02-.02.04-.03.07-.04l.34-.04s.05,0,.07.02c.02.02.03.04.04.07l.23,1.88c.01.09.05.17.13.23.07.06.16.08.25.07l2.67-.33-.21-1.7-1.24.15.08.63s0,.05-.02.07c-.02.02-.04.03-.07.04l-.34.04s-.05,0-.07-.02c-.02-.02-.03-.04-.04-.07l-.11-.93c-.01-.11,0-.19.03-.22.04-.03.1-.06.19-.07l1.52-.19-.05-.43s0-.05.02-.07c.02-.02.04-.03.07-.04l.34-.04s.05,0,.07.02c.02.02.03.04.04.07l.36,2.97c0,.07,0,.13-.05.19-.04.06-.1.09-.17.1l-2.95.36c-.16.02-.31,0-.46-.07-.14-.06-.26-.16-.36-.28-.1-.13-.15-.27-.17-.43l-.23-1.88h0Z"/>
    <text transform="translate(47.46 145.2) rotate(78.91)"><tspan x="0" y="0">/</tspan></text>
    <text transform="translate(48.01 148.02) rotate(77.54)"><tspan x="0" y="0">/</tspan></text>
    <path d="m49.23,153.16s0-.05,0-.08c.01-.02.03-.04.06-.05l.33-.1s.05,0,.08,0c.02.01.04.03.05.06l.16.55,2.91-.86-.16-.55s0-.05,0-.08c.01-.02.03-.04.06-.05l.33-.1s.05,0,.08,0c.02.01.04.03.05.06l.91,3.08c.02.07.01.13-.02.19-.03.06-.08.1-.15.12l-3.6,1.07s-.05,0-.08,0c-.02-.01-.04-.03-.05-.06l-.1-.34s0-.05,0-.08c.01-.02.03-.04.06-.05l3.33-.99-.51-1.71-3.18.94c-.07.02-.13.01-.19-.02-.06-.03-.1-.08-.12-.15l-.25-.84h0Z"/>
    <path d="m52.46,157.55s0-.05,0-.08c.01-.02.03-.04.06-.05l1.59-.56-.19-.56s0-.05,0-.08c.01-.02.03-.04.06-.05l.32-.11s.05,0,.08,0c.02.01.04.03.05.06l.29.84c.02.07.02.13-.01.2-.03.06-.08.11-.15.13l-1.86.65s-.05,0-.08,0c-.02-.01-.04-.03-.05-.06l-.12-.34h0Z"/>
    <path d="m51.12,159.24s-.01-.06,0-.08c.01-.02.03-.04.06-.05l.33-.13s.05,0,.08,0c.02.01.04.03.05.06l.04.11c.03.07.07.13.13.19.06.06.17.15.35.27l.17.13.45.33,2.19-.83-.35-.93s0-.05,0-.08c.01-.02.03-.04.06-.05l.32-.12s.05,0,.08,0c.02.01.04.03.05.06l.46,1.21c.03.07.02.13,0,.2-.03.06-.08.11-.14.13l-3.51,1.33s-.05,0-.08,0c-.02-.01-.04-.03-.05-.06l-.12-.32s0-.05,0-.08c.01-.02.03-.04.06-.05l.5-.19h0s-.45-.33-.45-.33c-.19-.13-.33-.24-.41-.33-.08-.08-.15-.18-.19-.3l-.04-.09h0Z"/>
    <path d="m52.56,162.94c-.1-.23-.1-.45-.01-.68.09-.23.25-.39.47-.49l2.72-1.18c.07-.03.13-.03.2,0,.07.03.11.07.14.14l.25.59s.01.05,0,.08c0,.02-.03.04-.05.05l-.3.13s-.05.01-.08,0c-.02,0-.04-.03-.05-.05l-.15-.35-2.48,1.07c-.09.04-.15.1-.18.19-.03.09-.03.17,0,.26l.31.72,3.19-1.38s.05-.01.08,0c.02,0,.04.03.05.05l.13.29s.01.05,0,.08c0,.02-.03.04-.05.05l-3.19,1.38.31.72c.04.09.1.15.19.19.09.04.18.04.26,0l2.48-1.07-.15-.35s-.01-.05,0-.08c0-.02.03-.04.05-.05l.3-.13s.05-.01.08,0c.02,0,.04.03.05.05l.25.59c.03.07.03.13,0,.2-.03.07-.07.11-.14.14l-2.72,1.18c-.23.1-.45.1-.68,0-.23-.09-.39-.25-.49-.48l-.81-1.87h0Z"/>
    <path d="m54.44,167.18s-.01-.05,0-.08c0-.03.03-.04.05-.06l3.15-1.45-.25-.54s-.01-.05,0-.08c0-.03.03-.04.05-.06l.31-.14s.05-.01.08,0c.03,0,.04.03.06.05l.37.81c.03.06.03.13,0,.2s-.07.11-.13.14l-3.41,1.57s-.05.01-.08,0c-.03,0-.04-.03-.06-.05l-.15-.32h0Z"/>
    <path d="m55.3,168.95s-.02-.05,0-.08c0-.03.02-.04.05-.06l3.08-1.6-.16-.31s-.02-.05,0-.08c0-.03.02-.04.05-.06l.3-.16s.05-.02.08,0c.03,0,.04.02.06.05l.32.62s.03.09.01.14c-.01.04-.04.08-.09.1l-.28.15c.22.04.42.12.6.25.18.13.33.3.44.51.12.23.18.46.17.69,0,.23-.07.44-.19.62-.12.19-.28.33-.47.43l-1.83.95c-.22.11-.45.13-.67.05-.23-.08-.4-.22-.51-.43l-.32-.62s-.02-.05,0-.08c0-.03.02-.04.05-.06l.3-.16s.05-.02.08,0c.03,0,.04.02.06.05l.32.62c.04.08.11.14.2.17.09.03.18.02.26-.02l1.71-.89c.23-.12.37-.28.44-.5.07-.21.04-.43-.08-.66-.14-.27-.34-.44-.6-.53s-.52-.05-.79.09l-2.25,1.17s-.05.02-.08,0c-.03,0-.04-.02-.06-.05l-.16-.31h0Z"/>
    <text transform="translate(57.82 173.63) rotate(58.33)"><tspan x="0" y="0">/</tspan></text>
    <text transform="translate(59.33 176.08) rotate(56.94)"><tspan x="0" y="0">/</tspan></text>
    <path d="m62.27,180.46s-.02-.05-.02-.07c0-.03.02-.05.04-.07l.27-.21s.05-.02.07-.02c.03,0,.05.02.07.04l.35.46,2.41-1.83-.35-.46s-.02-.05-.02-.07c0-.03.02-.05.04-.07l.27-.21s.05-.02.07-.02c.03,0,.05.02.07.04l1.94,2.55c.04.06.06.12.05.19,0,.07-.04.13-.1.17l-2.99,2.27s-.05.02-.07.02c-.03,0-.05-.02-.07-.04l-.21-.28s-.02-.05-.02-.07c0-.03.02-.05.04-.07l2.76-2.1-1.08-1.42-2.64,2.01c-.06.04-.12.06-.19.05s-.13-.04-.17-.1l-.53-.7h0Z"/>
    <path d="m66.86,183.47s-.03-.05-.02-.07c0-.03.02-.05.04-.07l1.32-1.06-.37-.46s-.03-.05-.02-.07c0-.03.02-.05.04-.07l.27-.21s.05-.03.07-.02c.03,0,.05.02.07.04l.55.69c.04.06.06.12.05.19,0,.07-.04.13-.09.17l-1.54,1.23s-.05.03-.07.02c-.03,0-.05-.02-.07-.04l-.22-.28h0Z"/>
    <path d="m66.29,185.58s-.03-.05-.03-.07c0-.03.01-.05.03-.07l.26-.23s.05-.03.07-.03c.03,0,.05.01.07.03l1.31,1.48,2.27-2.01-1.21-1.37s-.03-.05-.03-.07c0-.03.01-.05.03-.07l.26-.23s.05-.03.07-.03c.03,0,.05.01.07.03l1.41,1.6c.05.05.07.11.06.19s-.03.13-.09.18l-2.48,2.2.33.38s.03.05.03.07c0,.03-.01.05-.03.07l-.26.23s-.05.03-.07.03c-.03,0-.05-.01-.07-.03l-2.01-2.27h0Z"/>
    <path d="m69.29,188.92s-.03-.04-.03-.07c0-.03.01-.05.03-.07l2.54-2.36-.4-.43s-.03-.04-.03-.07c0-.03.01-.05.03-.07l.25-.23s.04-.03.07-.03c.03,0,.05.01.07.03l.6.65c.05.05.07.11.07.18,0,.07-.03.13-.08.18l-2.75,2.56s-.04.03-.07.03c-.03,0-.05-.01-.07-.03l-.24-.26h0Z"/>
    <path d="m71.04,190.72c-.18-.17-.27-.38-.27-.62,0-.24.08-.45.25-.63l2.07-2.13c.05-.05.11-.08.18-.08.07,0,.13.02.18.07l.46.45s.03.04.03.07c0,.03,0,.05-.03.07l-.23.23s-.04.03-.07.03c-.03,0-.05,0-.07-.03l-.27-.26-1.89,1.94c-.07.07-.1.15-.1.24,0,.09.04.17.1.24l.56.55,2.42-2.49s.04-.03.07-.03c.03,0,.05,0,.07.03l.23.22s.03.04.03.07c0,.03,0,.05-.03.07l-2.42,2.49.56.55c.07.07.15.1.24.1.1,0,.18-.03.24-.1l1.89-1.94-.27-.26s-.03-.04-.03-.07c0-.03,0-.05.03-.07l.23-.23s.04-.03.07-.03c.03,0,.05,0,.07.03l.46.45c.05.05.08.11.08.18s-.02.13-.07.18l-2.07,2.13c-.17.18-.38.27-.63.27-.25,0-.46-.08-.63-.26l-1.46-1.42h0Z"/>
    <path d="m75.6,192.57s-.03-.04-.03-.07c0-.03,0-.05.03-.07l1.12-1.27-.44-.39s-.03-.04-.03-.07c0-.03,0-.05.03-.07l.23-.26s.04-.03.07-.03c.03,0,.05,0,.07.03l.67.59c.05.05.08.11.09.18,0,.07-.02.13-.06.19l-1.31,1.48s-.04.03-.07.03c-.03,0-.05,0-.07-.03l-.27-.23h0Z"/>
    <path d="m75.75,195.07s-.03-.04-.04-.07c0-.03,0-.05.02-.07l2.23-2.66-.29-.24s-.03-.04-.04-.07c0-.03,0-.05.02-.07l.22-.26s.04-.03.07-.04c.03,0,.05,0,.07.02l2.75,2.3s.03.04.04.07c0,.03,0,.05-.02.07l-.22.26s-.04.03-.07.04c-.03,0-.05,0-.07-.02l-.29-.24-2.23,2.66s-.04.03-.07.04c-.03,0-.05,0-.07-.02l-.27-.23s-.03-.04-.04-.07c0-.03,0-.05.02-.07l2.23-2.66-1.32-1.11-2.23,2.66s-.04.03-.07.04c-.03,0-.05,0-.07-.02l-.27-.23h0Z"/>
    <text transform="translate(80.13 198.59) rotate(35.65)"><tspan x="0" y="0">/</tspan></text>
    <text transform="translate(82.47 200.27) rotate(34.2)"><tspan x="0" y="0">/</tspan></text>
    <path d="m88.41,204.08s-.06-.05-.07-.09c-.01-.04,0-.08.01-.11l.25-.46s.05-.06.09-.07.08,0,.11.01l.46.25,1.19-2.2-.46-.25s-.06-.05-.07-.09,0-.08.01-.11l.26-.47s.05-.06.09-.07.08,0,.11.01l3,1.62c.07.04.12.1.15.18.02.08.02.16-.02.23l-1.76,3.26s-.05.06-.09.07-.08,0-.11-.01l-.49-.26s-.06-.05-.07-.09c-.01-.04,0-.08.01-.11l1.51-2.79-1.31-.71-1.44,2.65c-.04.07-.1.12-.18.15-.08.02-.16.02-.23-.02l-.94-.51h0Z"/>
    <path d="m93.95,205.17s-.06-.05-.08-.09c-.01-.04,0-.08.01-.11l.7-1.38-.48-.24s-.06-.05-.08-.09c-.01-.04,0-.08.01-.11l.24-.48s.05-.06.09-.08c.04-.01.08,0,.11.01l.97.49c.08.04.13.1.15.18.03.08.02.16-.02.23l-.94,1.85s-.05.06-.09.08-.08,0-.11-.01l-.49-.25h0Z"/>
    <path d="m94.89,207.45s-.07-.04-.08-.08c-.01-.04-.01-.08,0-.11l.22-.49s.04-.07.08-.08c.04-.01.08-.01.11,0l1.98.89s.02-.09,0-.12c-.01-.04-.04-.09-.08-.16-.04-.07-.07-.13-.1-.17l-.48-.83c-.15-.26-.26-.48-.31-.65-.06-.17-.08-.33-.07-.49.01-.15.07-.33.15-.53l.07-.16-.4-.18s-.07-.04-.08-.08c-.01-.04-.01-.08,0-.11l.21-.47s.04-.07.08-.08c.04-.01.08-.01.11,0l.89.4c.08.03.13.09.16.17.03.08.03.16,0,.23l-.28.62c-.05.11-.07.21-.07.3,0,.09.03.19.09.3.05.11.15.28.28.51.22,0,.39-.05.53-.13.14-.08.24-.2.32-.37l.11-.24-.4-.18s-.07-.04-.08-.08c-.01-.04-.01-.08,0-.11l.21-.47s.04-.07.08-.08c.04-.01.08-.01.11,0l.89.4c.08.03.13.09.16.17.03.08.03.16,0,.23l-.25.56c-.14.31-.31.54-.52.69-.21.15-.47.24-.79.26.17.29.26.53.28.71.02.18-.01.38-.11.6l-.15.34c-.04.08-.1.14-.18.17-.08.03-.17.03-.25,0l-2.48-1.11h0Z"/>
    <path d="m99.27,209.35s-.07-.04-.08-.08c-.02-.04-.01-.08,0-.11l1.22-2.93-.5-.21s-.07-.04-.08-.08c-.02-.04-.01-.08,0-.11l.21-.5s.04-.07.08-.08c.04-.02.08-.01.11,0l1.01.42c.08.03.13.09.17.17.03.08.03.16,0,.23l-1.42,3.42s-.04.07-.08.08c-.04.02-.08.01-.11,0l-.51-.21h0Z"/>
    <path d="m101.67,210.28s-.07-.04-.09-.08c-.02-.04-.02-.07,0-.11l.13-.37c.1-.27.22-.49.37-.67.15-.18.31-.32.47-.43.16-.1.36-.21.59-.33.25-.12.43-.23.56-.33.13-.1.22-.22.28-.38h0s-1.81-.66-1.81-.66c-.08-.03-.14-.08-.17-.16-.04-.08-.04-.15-.01-.23l.49-1.36s.04-.07.08-.09c.04-.02.07-.02.11,0l.52.19s.07.04.09.08.02.07,0,.11l-.31.86,1.8.64c.08.03.14.08.17.16.04.08.04.15.01.23l-.1.29c-.1.28-.22.51-.36.69-.14.18-.29.32-.44.42-.15.1-.34.21-.56.33-.25.13-.45.26-.6.37-.15.12-.26.29-.33.5l-.15.42s-.04.07-.08.09-.07.02-.11,0l-.53-.19h0Z"/>
    <path d="m105.52,209.89s-.07-.04-.09-.07c-.02-.04-.02-.07,0-.11l.49-1.47-.51-.17s-.07-.04-.09-.07c-.02-.04-.02-.07,0-.11l.17-.51s.04-.07.07-.09c.04-.02.07-.02.11,0l1.03.34c.08.03.14.08.18.15.04.07.04.15.02.23l-.65,1.98s-.04.07-.07.09-.07.02-.11,0l-.53-.17h0Z"/>
    <path d="m109.26,212.8c-.05-.02-.09-.05-.1-.1l-.92-2.56c-.09.03-.16.09-.21.17-.05.08-.1.19-.14.35l-.2.73.44.12s.07.03.09.07c.02.03.02.07.01.11l-.14.51s-.03.07-.07.09-.07.02-.11.01l-.97-.27c-.08-.02-.14-.07-.19-.14-.04-.07-.05-.15-.03-.23l.33-1.21c.08-.28.18-.51.31-.67.13-.17.31-.3.53-.39l.07-.03-.33-.92s-.01-.06,0-.09c.01-.05.05-.08.1-.1l.52-.19s.06-.01.09,0c.05.01.08.05.1.1l.8,2.24c.16.03.3,0,.43-.06.13-.07.21-.18.25-.32l.15-.55-.45-.12s-.07-.03-.09-.07c-.02-.03-.02-.07-.01-.11l.14-.51s.03-.07.07-.09c.03-.02.07-.02.11-.01l.98.27c.08.02.14.07.19.14.04.07.05.15.03.23l-.28,1.02c-.08.29-.23.52-.45.69-.22.17-.48.26-.79.28l.44,1.25s.01.06,0,.09c-.01.05-.05.09-.1.1l-.52.19s-.06.01-.09,0h0Z"/>
    <path d="m112.8,213.55s-.07-.03-.1-.06c-.02-.03-.03-.07-.02-.11l.4-2.04s.03-.07.06-.1c.03-.02.07-.03.11-.02l.54.11s.07.03.1.06c.02.03.03.07.02.11l-.4,2.04s-.03.07-.06.1c-.03.02-.07.03-.11.02l-.54-.11h0Zm2.4.47s-.07-.03-.1-.06c-.02-.03-.03-.07-.02-.11l.61-3.11-2.25-.45s-.07-.03-.1-.06c-.02-.03-.03-.07-.02-.11l.1-.52s.03-.07.06-.1c.03-.02.07-.03.11-.02l2.79.55c.08.02.15.06.2.13.05.07.06.15.05.23l-.72,3.64s-.03.07-.06.1c-.03.02-.07.03-.11.02l-.54-.11h0Z"/>
    <path d="m118.88,214.63s-.08-.03-.1-.06c-.02-.03-.03-.07-.03-.11l.46-3.14-1.84-.27s-.08-.03-.1-.06-.03-.07-.03-.11l.08-.53s.03-.08.06-.1c.03-.02.07-.03.11-.03l2.38.35c.08.01.15.05.2.12.05.07.07.14.06.23l-.54,3.67s-.03.08-.06.1c-.03.02-.07.03-.11.03l-.55-.08h0Z"/>
    <path d="m121.48,213.32s-.08-.02-.1-.06c-.02-.03-.03-.07-.03-.11l.19-1.54-.54-.06s-.08-.02-.1-.06c-.02-.03-.03-.07-.03-.11l.06-.54s.02-.08.06-.1c.03-.02.07-.03.11-.03l1.08.13c.08.01.15.05.2.11.05.07.07.14.06.23l-.25,2.07s-.02.08-.06.1c-.03.02-.07.03-.11.03l-.55-.07h0Z"/>
    <path d="m123.15,215.14s-.08-.02-.1-.05-.04-.07-.03-.11l.04-.54s.02-.08.05-.1.07-.04.11-.03l2.17.16s-.02-.09-.04-.12-.07-.07-.13-.12c-.06-.05-.11-.09-.15-.12l-.74-.62c-.23-.2-.41-.37-.52-.51-.11-.14-.19-.29-.23-.44-.04-.15-.05-.33-.04-.55v-.17s-.42-.03-.42-.03c-.04,0-.08-.02-.1-.05-.03-.03-.04-.07-.03-.11l.04-.52s.02-.08.05-.1.07-.04.11-.03l.98.07c.08,0,.15.04.21.1.05.06.08.14.07.22l-.05.68c0,.12,0,.22.04.3.03.08.1.17.18.26.09.09.23.22.43.39.2-.08.35-.18.45-.31.1-.12.16-.27.17-.45l.02-.26-.43-.03s-.08-.02-.1-.05-.04-.07-.03-.11l.04-.52s.02-.08.05-.1.07-.04.11-.03l.98.07c.08,0,.15.04.21.1.05.06.08.14.07.22l-.04.62c-.02.34-.11.61-.26.83-.15.22-.36.39-.65.52.25.22.43.41.51.57.09.17.12.37.1.6l-.03.38c0,.09-.04.16-.11.22-.07.06-.15.09-.24.08l-2.71-.19h0Z"/>
    <path d="m127.94,213.8s-.08-.02-.11-.05c-.03-.03-.04-.06-.04-.11l.04-1.55h-.54s-.08-.03-.11-.06c-.03-.03-.04-.06-.04-.11v-.54s.03-.08.06-.11c.03-.03.06-.04.11-.04l1.09.02c.09,0,.16.03.21.09.06.06.09.13.08.22l-.05,2.08s-.02.08-.05.11c-.03.03-.06.04-.11.04h-.55Z"/>
    <path d="m130.36,215.47s-.08-.01-.11-.04c-.03-.03-.04-.06-.04-.11v-.39c0-.28.04-.54.12-.76.08-.22.18-.41.29-.56.12-.15.26-.32.44-.51.19-.2.33-.36.41-.5.09-.13.13-.28.13-.45h0s-1.92,0-1.92,0c-.09,0-.16-.03-.22-.09-.06-.06-.09-.13-.09-.22v-1.45s.01-.08.04-.11c.03-.03.06-.04.11-.04h.55s.08.01.11.04c.03.03.04.06.04.11v.92s1.91,0,1.91,0c.09,0,.16.03.22.09.06.06.09.13.09.22v.31c0,.29-.04.55-.11.77-.07.22-.16.4-.27.55-.11.14-.24.31-.41.5-.19.21-.34.39-.44.55-.1.16-.15.36-.14.58v.45s-.01.08-.04.11c-.03.03-.06.04-.11.04h-.57Z"/>
    <path d="m135.99,216.35c-.09,0-.16-.02-.22-.08-.06-.06-.1-.13-.1-.21l-.2-4.05-.54.03s-.08-.01-.11-.04c-.03-.03-.05-.06-.05-.1l-.03-.53s.01-.08.04-.11c.03-.03.06-.05.1-.05l1.08-.05c.09,0,.16.02.22.08.06.06.1.13.1.21l.2,4.06.43-.02s.08.01.11.04c.03.03.05.06.05.1l.03.52s-.01.08-.04.11c-.03.03-.06.05-.1.05l-.98.05h0Z"/>
    <path d="m138.22,215.15s-.08,0-.11-.03-.05-.06-.05-.1l-.31-3.16-.54.05s-.08,0-.11-.03-.05-.06-.05-.1l-.05-.54s0-.08.03-.11c.03-.03.06-.05.1-.05l1.09-.11c.08,0,.16.01.22.07.06.05.1.12.11.21l.36,3.69s0,.08-.03.11c-.03.03-.06.05-.1.05l-.55.05h0Z"/>
    <path d="m140.68,214.89s-.08,0-.11-.03c-.03-.02-.05-.06-.06-.1l-.39-3.15-.54.07s-.08,0-.11-.03c-.03-.02-.05-.06-.06-.1l-.07-.54s0-.08.03-.11c.02-.03.06-.05.1-.06l1.09-.13c.08-.01.16.01.23.06.07.05.1.12.11.2l.45,3.68s0,.08-.03.11c-.02.03-.06.05-.1.06l-.55.07h0Z"/>
    <path d="m144.13,214.42s-.08,0-.11-.03c-.03-.02-.05-.06-.06-.1l-.06-.43c-.04-.26-.04-.5-.01-.71.03-.21.08-.39.15-.55.07-.15.15-.32.27-.51.13-.23.22-.42.27-.58.05-.16.07-.33.04-.53l-2.5.37s-.08,0-.11-.03c-.03-.02-.05-.06-.06-.1l-.08-.53s0-.08.03-.11c.02-.03.06-.05.1-.06l3.03-.44c.08-.01.16,0,.23.06.07.05.11.12.12.2l.04.3c.04.3.05.55.02.78-.03.22-.07.41-.13.57-.06.15-.15.34-.25.54-.13.24-.22.44-.27.61-.05.17-.06.37-.02.6l.06.42s0,.08-.03.11c-.02.03-.06.05-.1.06l-.56.08h0Zm-1.35,1.24s-.08,0-.11-.03c-.03-.02-.05-.06-.06-.1l-.46-3.12s0-.08.03-.11.06-.05.1-.06l.54-.08s.08,0,.11.03c.03.02.05.06.06.1l.46,3.12s0,.08-.03.11c-.02.03-.06.05-.1.06l-.54.08h0Z"/>
    <path d="m147.11,213.91s-.08,0-.11-.02c-.03-.02-.06-.05-.06-.09l-.69-3.12-.32.07s-.06,0-.1-.02c-.03-.02-.05-.05-.06-.08l-.12-.55s0-.07.02-.1c.02-.03.05-.05.08-.05l.91-.2c.06-.01.11,0,.16.03.05.03.08.07.09.13l.05.23c.08-.18.2-.33.36-.46.16-.13.33-.21.52-.26.27-.06.52-.05.77.02.24.07.45.2.62.37.17.18.29.39.34.65l.39,1.77c.04.18.03.36-.03.53-.06.17-.16.32-.29.45-.13.12-.29.21-.47.25l-.67.15s-.08,0-.11-.02c-.03-.02-.06-.05-.06-.09l-.12-.53s0-.08.02-.11c.02-.03.05-.06.09-.06l.67-.15c.05-.01.09-.04.12-.08.03-.05.04-.09.03-.14l-.36-1.64c-.05-.21-.15-.36-.3-.46-.16-.1-.34-.13-.54-.08-.25.06-.44.18-.57.37-.12.19-.16.42-.1.68l.51,2.33s0,.08-.02.11-.05.06-.09.06l-.54.12h0Z"/>
    <path d="m152.92,212.56s-.08,0-.11-.01c-.04-.02-.06-.05-.07-.09l-.15-.5s0-.08.01-.11c.02-.04.05-.06.09-.07l.5-.15-.71-2.4-.5.15s-.08,0-.11-.01c-.04-.02-.06-.05-.07-.09l-.15-.52s0-.08.01-.11c.02-.04.05-.06.09-.07l3.27-.97c.08-.02.16-.02.23.02.07.04.12.1.15.18l1.06,3.55s0,.08-.01.11c-.02.04-.05.06-.09.07l-.53.16s-.08,0-.11-.01c-.04-.02-.06-.05-.07-.09l-.9-3.04-1.42.42.86,2.89c.02.08.02.16-.02.23-.04.07-.1.12-.18.15l-1.03.31h0Z"/>
    <path d="m157.44,211.18s-.08.01-.11,0c-.04-.02-.06-.05-.08-.09l-.18-.51s-.01-.08,0-.11c.02-.04.05-.06.09-.08l.54-.19-.83-2.36-.37.13s-.08.01-.11,0c-.04-.02-.06-.05-.08-.09l-.17-.5s-.01-.08,0-.11c.02-.04.05-.06.09-.08l.88-.31c.08-.03.16-.02.23.01.08.04.13.09.16.18l1,2.85.41-.14c.21-.07.36-.2.45-.38.09-.18.1-.37.03-.57l-.58-1.66-.31.11s-.08.01-.11,0c-.04-.02-.06-.05-.08-.09l-.17-.5s-.01-.08,0-.11c.02-.04.05-.06.09-.08l.82-.29c.08-.03.16-.02.23.01.08.04.13.09.16.18l.76,2.16c.1.27.12.54.06.81-.05.27-.17.51-.35.72-.18.21-.4.36-.67.46l-1.8.63h0Z"/>
    <path d="m163.21,209.04s-.08.02-.11,0c-.04-.01-.06-.04-.08-.08l-.21-.49s-.02-.08,0-.11.04-.06.08-.08l1.64-.71-1-2.3-1.49.64s-.08.02-.11,0-.06-.04-.08-.08l-.21-.49s-.02-.08,0-.11.04-.06.08-.08l1.99-.85c.08-.03.16-.04.23,0,.08.03.13.09.17.16l1.2,2.78.46-.2s.08-.02.11,0c.04.01.06.04.08.08l.21.49s.02.08,0,.11-.04.06-.08.08l-2.87,1.24h0Z"/>
    <path d="m166.81,207.46s-.08.02-.11,0-.07-.04-.09-.08l-.23-.47s-.02-.08,0-.11c.01-.04.04-.07.08-.09l.47-.23-1.1-2.25-.47.23s-.08.02-.11,0-.07-.04-.09-.08l-.24-.48s-.02-.08,0-.11c.01-.04.04-.07.08-.09l3.06-1.5c.08-.04.15-.04.23-.02.08.03.14.08.18.16l1.63,3.33s.02.08,0,.11c-.01.04-.04.07-.08.09l-.5.24s-.08.02-.11,0c-.04-.01-.07-.04-.09-.08l-1.4-2.85-1.33.65,1.33,2.71c.04.08.04.15.02.23-.03.08-.08.14-.16.18l-.96.47h0Z"/>
    <path d="m171.09,205.29s-.08.03-.11.01c-.04-.01-.07-.04-.09-.07l-.26-.47s-.03-.08-.01-.11.04-.07.07-.09l1.55-.85s.08-.06.09-.12c.02-.05.01-.1,0-.14l-1.11-2.01-1.67.92s-.08.03-.11.01c-.04-.01-.07-.04-.09-.07l-.26-.47s-.03-.08-.01-.11.04-.07.07-.09l2.14-1.18c.07-.04.15-.05.23-.03.08.02.14.07.18.15l1.37,2.48c.14.26.17.52.09.78-.08.27-.25.47-.52.62l-1.55.85h0Z"/>
     <g class="link">
       <text transform="translate(180.85 199.15) rotate(-37.25)"><tspan x="0" y="0">t</tspan></text>
       <text transform="translate(183.58 197.08) rotate(-40.06)"><tspan x="0" y="0">f</tspan></text>
       <text transform="translate(186.02 195.04) rotate(-41.47)"><tspan x="0" y="0">i</tspan></text>
       <text transform="translate(188.0 193.3) rotate(-42.89)"><tspan x="0" y="0">.</tspan></text>
       <text transform="translate(189.8 191.61) rotate(-45.73)"><tspan x="0" y="0">l</tspan></text>
       <text transform="translate(191.75 189.64) rotate(-47.16)"><tspan x="0" y="0">a</tspan></text>
       <text transform="translate(194.62 186.5) rotate(-50.03)"><tspan x="0" y="0">/</tspan></text>
       <text transform="translate(196.68 184.09) rotate(-52.91)"><tspan x="0" y="0">r</tspan></text>
    </g>
    <text transform="translate(200.12 179.46) rotate(-55.8)"><tspan x="0" y="0">:</tspan></text>
    <path d="m202.69,175.55s-.04.04-.06.05c-.03,0-.05,0-.08-.01l-.41-.25c-.24-.14-.43-.3-.58-.47-.15-.17-.26-.34-.33-.5-.07-.16-.15-.36-.23-.59-.09-.26-.18-.47-.26-.62-.09-.15-.22-.28-.39-.39l-.15-.09-1.39,2.28s-.04.04-.06.05c-.03,0-.05,0-.08-.01l-.3-.18s-.04-.04-.05-.06c0-.03,0-.05.01-.08l1.54-2.54c.04-.06.09-.1.16-.12.07-.02.13,0,.2.03l.31.19c.2.12.36.26.49.4.12.15.22.29.29.43.07.14.14.32.21.53.08.21.14.38.2.51.06.13.14.26.26.39.11.13.25.25.43.36l.42.25s.04.04.05.06c0,.03,0,.05-.01.08l-.19.31h0Zm.13,1.8s-.04.04-.06.05c-.03,0-.05,0-.08-.01l-2.89-1.75s-.04-.04-.05-.06c0-.03,0-.05.01-.08l.18-.3s.04-.04.06-.05c.03,0,.05,0,.08.01l2.89,1.75s.04.04.05.06c0,.03,0,.05-.01.08l-.18.3h0Z"/>
    <path d="m204.09,173.2s-.03.04-.06.05c-.03,0-.05,0-.08-.01l-.3-.17s-.04-.03-.05-.06c0-.03,0-.05.01-.08l.3-.52c.05-.09.07-.19.04-.28s-.09-.17-.18-.23l-2.34-1.34-.38.66s-.03.04-.06.05c-.03,0-.05,0-.08-.01l-.3-.17s-.04-.03-.05-.06c0-.03,0-.05.01-.08l.53-.92c.04-.06.09-.1.16-.12.07-.02.13-.01.2.03l2.59,1.49c.14.08.25.19.33.34.08.14.12.3.12.47,0,.17-.04.32-.12.46l-.3.53h0Z"/>
    <path d="m204.19,169.3s-.03.04-.06.05c-.03,0-.05,0-.08,0l-1.53-.78-.27.53s-.03.04-.06.05c-.03,0-.05,0-.08,0l-.31-.16s-.04-.03-.05-.06c0-.03,0-.05,0-.08l.41-.8c.03-.06.08-.11.15-.13.07-.02.13-.02.2.02l1.78.91s.04.03.05.06c0,.03,0,.05,0,.08l-.16.32h0Z"/>
    <path d="m206.93,167.89s-.03.04-.06.05c-.03,0-.05,0-.08,0l-.44-.21c-.25-.12-.46-.26-.62-.43-.16-.17-.29-.33-.37-.49-.09-.16-.18-.37-.28-.62-.1-.27-.2-.48-.3-.63s-.23-.27-.4-.35l-.14-.07-.85,1.77c-.05.1-.11.16-.2.19-.09.03-.18.02-.28-.02l-1.05-.5s-.04-.03-.05-.06c0-.03,0-.05,0-.08l.15-.32s.03-.04.06-.05c.03,0,.05,0,.08,0l.88.42.88-1.85c.03-.06.08-.11.15-.13.07-.02.13-.02.2.01l.32.15c.21.1.39.22.52.36.14.14.24.28.32.42.08.14.16.32.24.54.08.21.16.38.22.5s.16.25.27.37c.11.12.26.22.44.31l.51.24s.04.03.05.06c0,.03,0,.05,0,.08l-.16.34h0Z"/>
</svg>