<svg xmlns="http://www.w3.org/2000/svg" viewBox="0 0 33.63 55.33">
 <defs>
  <style>.cls-1, .cls-2, .cls-3, .cls-4, .cls-5, .cls-6, .cls-7, .cls-8, .cls-9, .cls-10, .cls-11, .cls-12, .cls-13, .cls-14, .cls-15, .cls-16 { fill: none; }
.cls-2 { clip-path: url(#clippath-8); }
.cls-3 { clip-path: url(#clippath-7); }
.cls-4 { clip-path: url(#clippath-6); }
.cls-5 { clip-path: url(#clippath-9); }
.cls-6 { clip-path: url(#clippath-5); }
.cls-7 { clip-path: url(#clippath-3); }
.cls-8 { clip-path: url(#clippath-4); }
.cls-9 { clip-path: url(#clippath-2); }
.cls-10 { clip-path: url(#clippath-1); }
.cls-17, .cls-18, .cls-14 { stroke-miterlimit: 10; }
.cls-18, .cls-14, .cls-15 { stroke: #000; }
.cls-19 { fill: #ff5337; }
.cls-11 { clip-rule: evenodd; }
.cls-12 { clip-path: url(#clippath-11); }
.cls-13 { clip-path: url(#clippath-10); }
.cls-14 { stroke-width: .75px; }
.cls-15 { stroke-linecap: round;        stroke-linejoin: round;        stroke-width: 2.75px; }
.cls-16 { clip-path: url(#clippath); }</style>
  <clipPath id="clippath">
   <path class="cls-11" d="m15.88 47.13c0 1.26-1.02 2.28-2.28 2.28s-2.28-1.02-2.28-2.28 1.02-2.28 2.28-2.28 2.28 1.02 2.28 2.28" />
  </clipPath>
  <clipPath id="clippath-1">
   <rect class="cls-1" x="-5.81" y="-53.32" width="445.19" height="2343.6" />
  </clipPath>
  <clipPath id="clippath-2">
   <path class="cls-11" d="m22.72 47.13c0 1.26-1.02 2.28-2.28 2.28s-2.28-1.02-2.28-2.28 1.02-2.28 2.28-2.28 2.28 1.02 2.28 2.28" />
  </clipPath>
  <clipPath id="clippath-3">
   <rect class="cls-1" x="-5.81" y="-53.32" width="445.19" height="2343.6" />
  </clipPath>
  <clipPath id="clippath-4">
   <path class="cls-11" d="m17.02 55.12c-1.26 0-2.28-1.02-2.28-2.28s1.02-2.28 2.28-2.28 2.28 1.02 2.28 2.28-1.02 2.28-2.28 2.28z" />
  </clipPath>
  <clipPath id="clippath-5">
   <rect class="cls-1" x="-5.81" y="-53.32" width="445.19" height="2343.6" />
  </clipPath>
  <clipPath id="clippath-6">
   <path class="cls-11" d="m4.96,5.78c0-.91.74-1.65,1.65-1.65s1.65.74,1.65,1.65-.74,1.65-1.65,1.65-1.65-.74-1.65-1.65" />
  </clipPath>
  <clipPath id="clippath-7">
   <rect class="cls-1" x="-301.61" y="-1617.9" width="322.27" height="1696.4" />
  </clipPath>
  <clipPath id="clippath-8">
   <path class="cls-11" d="m0,5.78c0-.91.74-1.65,1.65-1.65s1.65.74,1.65,1.65-.74,1.65-1.65,1.65S0,6.7,0,5.78" />
  </clipPath>
  <clipPath id="clippath-9">
   <rect class="cls-1" x="-301.61" y="-1617.9" width="322.27" height="1696.4" />
  </clipPath>
  <clipPath id="clippath-10">
   <path class="cls-11" d="m4.13,0c.91,0,1.65.74,1.65,1.65s-.74,1.65-1.65,1.65-1.65-.74-1.65-1.65S3.22,0,4.13,0Z" />
  </clipPath>
  <clipPath id="clippath-11">
   <rect class="cls-1" x="-301.61" y="-1617.9" width="322.27" height="1696.4" />
  </clipPath>
 </defs>
 <rect class="cls-18" transform="rotate(90)" x="12.4" y="-33.13" width="23.75" height="1.75" />
 <rect class="cls-18" transform="rotate(90)" x="10.5" y="-2.67" width="44.33" height="1.75" />
 <g class="cls-16" clip-path="url(#clippath)">
  <g class="cls-10" clip-path="url(#clippath-1)">
   <rect class="cls-19" x="10.17" y="43.71" width="6.85" height="6.85" />
  </g>
 </g>
 <g class="cls-9" clip-path="url(#clippath-2)">
  <g class="cls-7" clip-path="url(#clippath-3)">
   <rect class="cls-19" x="17.02" y="43.71" width="6.85" height="6.85" />
  </g>
 </g>
 <g class="cls-8" clip-path="url(#clippath-4)">
  <g class="cls-6" clip-path="url(#clippath-5)">
   <rect class="cls-19" x="13.59" y="49.42" width="6.85" height="6.85" />
  </g>
 </g>
 <circle class="cls-15" cx="17.02" cy="26.59" r="8.67" />
 <rect class="cls-17" x=".92" y="10.49" width="6.42" height="1.75" stroke="#000000" />
 <line class="cls-14" x1="6.61" x2="6.61" y1="4.85" y2="10.35" />
 <line class="cls-14" x1="1.65" x2="1.65" y1="5.08" y2="10.58" />
 <line class="cls-14" x1="4.13" x2="4.13" y1="1.65" y2="11.17" />
 <g class="cls-4" clip-path="url(#clippath-6)">
  <g class="cls-3" clip-path="url(#clippath-7)">
   <rect class="cls-19" x="4.13" y="3.31" width="4.96" height="4.96" />
  </g>
 </g>
 <g class="cls-2" clip-path="url(#clippath-8)">
  <g class="cls-5" clip-path="url(#clippath-9)">
   <rect class="cls-19" x="-.83" y="3.31" width="4.96" height="4.96" />
  </g>
 </g>
 <g class="cls-13" clip-path="url(#clippath-10)">
  <g class="cls-12" clip-path="url(#clippath-11)">
   <rect class="cls-19" x="1.65" y="-.83" width="4.96" height="4.96" />
  </g>
 </g>
 <rect class="cls-18" transform="scale(-1)" x="-33.136" y="-12.243" width="20.819" height="1.759" stroke="#000000" />
</svg>
