<svg xmlns="http://www.w3.org/2000/svg" viewBox="0 0 297.64 420.94">
 <rect width="297.64" height="420.95" fill="#ffffff" />
 <path d="m240.54 260.82v-4.48c0-0.12-0.02-0.24-0.08-0.36-0.05-0.12-0.12-0.23-0.2-0.32s-0.17-0.17-0.27-0.23-0.21-0.09-0.31-0.09c-0.07 0-0.13 0.02-0.18 0.07s-0.07 0.11-0.07 0.18c0 0.1 0.04 0.17 0.12 0.22 0.09 0.06 0.18 0.15 0.26 0.26 0.09 0.11 0.13 0.24 0.13 0.4v4.2c0 0.15-0.04 0.29-0.13 0.4-0.08 0.11-0.17 0.2-0.26 0.26-0.08 0.06-0.12 0.14-0.12 0.22s0.02 0.14 0.07 0.18c0.05 0.05 0.11 0.07 0.18 0.07 0.11 0 0.21-0.03 0.31-0.09s0.19-0.14 0.27-0.23 0.15-0.2 0.2-0.32c0.06-0.1 0.08-0.22 0.08-0.34m-2.3-0.88v-2.42c0-0.18-0.04-0.35-0.12-0.51s-0.19-0.3-0.32-0.42-0.29-0.21-0.47-0.28-0.36-0.1-0.56-0.1c-0.26 0-0.49 0.04-0.69 0.11-0.2 0.08-0.4 0.22-0.62 0.43v-0.18c0-0.09-0.03-0.16-0.08-0.21s-0.12-0.08-0.22-0.08h-0.68c-0.07 0-0.11 0.04-0.11 0.1v0.39c0 0.08 0.04 0.11 0.11 0.11h0.4v3.92c0 0.07 0.03 0.1 0.1 0.1h0.4c0.07 0 0.1-0.04 0.1-0.1v-2.89c0-0.15 0.03-0.3 0.09-0.44s0.14-0.26 0.24-0.36 0.23-0.19 0.36-0.24c0.14-0.06 0.29-0.09 0.44-0.09 0.3 0 0.54 0.08 0.72 0.23s0.27 0.34 0.27 0.56v2.35c0 0.11-0.04 0.2-0.11 0.27s-0.16 0.11-0.27 0.11h-0.78c-0.07 0-0.11 0.04-0.11 0.1v0.4c0 0.07 0.04 0.1 0.11 0.1h0.78c0.14 0 0.27-0.02 0.39-0.08 0.12-0.05 0.23-0.12 0.32-0.21s0.16-0.19 0.22-0.31c0.06-0.09 0.09-0.22 0.09-0.36m-5.49-0.56c0 0.14-0.03 0.28-0.08 0.4s-0.13 0.24-0.22 0.33c-0.1 0.1-0.21 0.17-0.33 0.22s-0.26 0.08-0.4 0.08-0.28-0.03-0.4-0.08-0.24-0.13-0.33-0.22c-0.09-0.1-0.17-0.21-0.22-0.33s-0.08-0.26-0.08-0.4v-2.48h2.07v2.48zm0.63-2.8c0-0.09-0.03-0.16-0.08-0.21s-0.13-0.08-0.22-0.08h-3.44c-0.04 0-0.07 0.01-0.09 0.03s-0.03 0.05-0.03 0.07v0.39c0 0.03 0.01 0.05 0.03 0.08 0.02 0.02 0.05 0.04 0.09 0.04h0.42v2.46c0 0.23 0.04 0.44 0.13 0.64s0.21 0.38 0.36 0.52c0.15 0.15 0.32 0.27 0.52 0.36s0.41 0.13 0.64 0.13 0.45-0.04 0.65-0.13 0.38-0.21 0.53-0.36 0.27-0.32 0.36-0.52 0.13-0.41 0.13-0.64v-2.78zm-4.83 3.36v-3.36c0-0.09-0.03-0.16-0.08-0.21s-0.12-0.08-0.22-0.08h-2.74c-0.07 0-0.11 0.04-0.11 0.1v0.39c0 0.08 0.04 0.11 0.11 0.11h2.41v3.04c0 0.11-0.04 0.2-0.12 0.27s-0.17 0.11-0.28 0.11h-2.02c-0.07 0-0.11 0.04-0.11 0.11v0.39c0 0.07 0.04 0.1 0.11 0.1h2.02c0.14 0 0.27-0.02 0.39-0.08 0.12-0.05 0.23-0.12 0.32-0.21s0.17-0.2 0.22-0.31c0.08-0.1 0.1-0.23 0.1-0.37m-4.22-3.36c0-0.09-0.03-0.16-0.08-0.21s-0.12-0.08-0.22-0.08h-3.45c-0.07 0-0.11 0.04-0.11 0.1v0.39c0 0.08 0.04 0.11 0.11 0.11h0.57v3.42h-0.62c-0.07 0-0.1 0.04-0.1 0.11v0.39c0 0.07 0.04 0.1 0.1 0.1h0.95c0.09 0 0.16-0.03 0.21-0.08s0.08-0.12 0.08-0.22v-3.73h1.94v3.92c0 0.07 0.04 0.1 0.11 0.1h0.4c0.07 0 0.1-0.04 0.1-0.1v-4.22zm-7.35 3.36v-2.42c0-0.18-0.04-0.35-0.12-0.51s-0.19-0.3-0.32-0.42-0.29-0.21-0.47-0.28-0.36-0.1-0.56-0.1c-0.26 0-0.49 0.04-0.69 0.11-0.2 0.08-0.4 0.22-0.62 0.43v-0.18c0-0.09-0.03-0.16-0.08-0.21s-0.12-0.08-0.22-0.08h-0.68c-0.07 0-0.11 0.04-0.11 0.1v0.39c0 0.08 0.04 0.11 0.11 0.11h0.4v3.92c0 0.07 0.04 0.1 0.1 0.1h0.4c0.07 0 0.1-0.04 0.1-0.1v-2.89c0-0.15 0.03-0.3 0.09-0.44s0.14-0.26 0.24-0.36 0.23-0.19 0.36-0.24c0.14-0.06 0.29-0.09 0.44-0.09 0.3 0 0.55 0.08 0.72 0.23 0.18 0.15 0.27 0.34 0.27 0.56v2.35c0 0.11-0.04 0.2-0.11 0.27s-0.17 0.11-0.27 0.11h-0.78c-0.07 0-0.11 0.04-0.11 0.1v0.4c0 0.07 0.04 0.1 0.11 0.1h0.78c0.14 0 0.27-0.02 0.39-0.08 0.12-0.05 0.23-0.12 0.32-0.21s0.16-0.19 0.22-0.31c0.06-0.09 0.09-0.22 0.09-0.36m-4.86 0v-3.36c0-0.09-0.03-0.16-0.08-0.21s-0.12-0.08-0.22-0.08h-2.74c-0.07 0-0.11 0.04-0.11 0.1v0.39c0 0.08 0.04 0.11 0.11 0.11h2.41v3.04c0 0.11-0.04 0.2-0.12 0.27s-0.17 0.11-0.28 0.11h-2.02c-0.07 0-0.11 0.04-0.11 0.11v0.39c0 0.07 0.04 0.1 0.11 0.1h2.02c0.14 0 0.27-0.02 0.39-0.08 0.12-0.05 0.23-0.12 0.32-0.21s0.17-0.2 0.22-0.31c0.07-0.1 0.1-0.23 0.1-0.37m-4.11 0.88v-4.24c0-0.09-0.03-0.16-0.08-0.21s-0.13-0.08-0.22-0.08h-0.82c-0.03 0-0.06 0.01-0.08 0.03s-0.04 0.05-0.04 0.07v0.39c0 0.03 0.01 0.06 0.04 0.08 0.02 0.02 0.05 0.03 0.08 0.03h0.5v3.92c0 0.03 0.01 0.06 0.04 0.08 0.02 0.02 0.05 0.03 0.08 0.03h0.38c0.03 0 0.06-0.01 0.08-0.03 0.03-0.01 0.04-0.03 0.04-0.07m-2.24-4.24c0-0.09-0.03-0.16-0.08-0.21s-0.13-0.08-0.22-0.08h-3.45c-0.07 0-0.11 0.04-0.11 0.1v0.39c0 0.08 0.04 0.11 0.11 0.11h0.57v3.42h-0.62c-0.07 0-0.1 0.04-0.1 0.11v0.39c0 0.07 0.03 0.1 0.1 0.1h0.95c0.09 0 0.16-0.03 0.21-0.08s0.08-0.12 0.08-0.22v-3.73h1.94v3.92c0 0.07 0.04 0.1 0.11 0.1h0.4c0.07 0 0.1-0.04 0.1-0.1v-4.22zm-4.96 3.92c0.02-0.05 0.02-0.09-0.01-0.12-0.03-0.04-0.06-0.05-0.11-0.05h-0.43c-0.04 0-0.08 0.02-0.11 0.05s-0.05 0.07-0.06 0.11l-0.3 1.52c0 0.06 0.03 0.09 0.09 0.09h0.22c0.06 0 0.11-0.03 0.13-0.08l0.58-1.52zm-4.41-2.26v-1.66c0-0.09-0.03-0.16-0.08-0.21s-0.13-0.08-0.22-0.08h-0.98c-0.03 0-0.06 0.01-0.08 0.03s-0.04 0.05-0.04 0.07v0.39c0 0.03 0.01 0.06 0.04 0.08s0.05 0.03 0.08 0.03h0.66v1.34c0 0.03 0.01 0.05 0.04 0.07s0.05 0.03 0.08 0.03h0.38c0.03 0 0.06-0.01 0.08-0.03s0.04-0.03 0.04-0.06m-2.16-1.77c0.02-0.05 0.01-0.1-0.01-0.13s-0.06-0.05-0.11-0.05h-0.43c-0.1 0-0.16 0.05-0.17 0.16l-0.3 1.91c0 0.06 0.03 0.09 0.09 0.09h0.22c0.07 0 0.11-0.02 0.13-0.07l0.58-1.91zm-1.96 4.03c0.02-0.05 0.02-0.09-0.01-0.12-0.03-0.04-0.06-0.05-0.11-0.05h-0.43c-0.04 0-0.08 0.02-0.11 0.05s-0.05 0.07-0.06 0.11l-0.3 1.52c0 0.06 0.03 0.09 0.09 0.09h0.22c0.06 0 0.11-0.03 0.13-0.08l0.58-1.52zm-4.43-2.79v-1.12c0-0.09-0.03-0.16-0.08-0.22-0.05-0.05-0.12-0.08-0.22-0.08h-0.98c-0.07 0-0.1 0.04-0.1 0.1v0.4c0 0.07 0.04 0.1 0.1 0.1h0.65v0.85c0 0.25-0.09 0.44-0.27 0.58s-0.42 0.21-0.7 0.24l-1.54-2.26c-0.03-0.04-0.07-0.07-0.12-0.08s-0.1 0-0.14 0.03l-0.19 0.13c-0.05 0.03-0.08 0.07-0.09 0.12s0 0.1 0.02 0.14l0.7 1.02-0.15 0.11c-0.26 0.19-0.42 0.39-0.5 0.62-0.07 0.23-0.11 0.48-0.11 0.76v1.47c0 0.09 0.03 0.16 0.08 0.21 0.06 0.05 0.13 0.08 0.22 0.08h0.94c0.08 0 0.11-0.04 0.11-0.1v-0.39c0-0.08-0.04-0.11-0.11-0.11h-0.63v-1.2c0-0.23 0.03-0.41 0.1-0.56 0.06-0.14 0.2-0.27 0.39-0.4l1.86 2.7c0.03 0.04 0.08 0.07 0.13 0.08s0.11 0 0.16-0.03l0.18-0.12c0.04-0.03 0.07-0.07 0.08-0.12s0.01-0.1-0.02-0.14l-0.99-1.45c0.2-0.03 0.37-0.09 0.53-0.18 0.15-0.09 0.28-0.19 0.39-0.31 0.1-0.12 0.18-0.26 0.24-0.41 0.04-0.13 0.06-0.29 0.06-0.46m-5.08 3.7c-0.09-0.06-0.18-0.15-0.27-0.26s-0.13-0.24-0.13-0.4v-4.28c0-0.15 0.04-0.29 0.13-0.4s0.18-0.2 0.27-0.26c0.08-0.05 0.12-0.13 0.12-0.22 0-0.07-0.02-0.14-0.07-0.18-0.05-0.05-0.11-0.07-0.18-0.07-0.11 0-0.21 0.03-0.31 0.09s-0.19 0.13-0.27 0.23-0.15 0.2-0.2 0.32-0.08 0.24-0.08 0.36v4.56c0 0.12 0.02 0.24 0.08 0.36 0.05 0.12 0.12 0.22 0.2 0.32 0.08 0.09 0.17 0.17 0.27 0.23s0.21 0.09 0.31 0.09c0.07 0 0.13-0.02 0.18-0.07s0.07-0.11 0.07-0.18c0-0.1-0.04-0.18-0.12-0.24" />
 <path d="m232.26 227.77s1.78-0.08 2.99-0.08h4.93l0.13-2.41-0.42-0.14c-0.47-0.15-0.44-0.93-0.45-1.21l-0.19-2.86c-0.1-1.56-0.84-2.12-2.24-2.12h-2.93c-0.35 0-0.51-0.12-0.61-0.36l-0.18-0.41-0.84 0.19 0.13 3.13h3.25c0.98 0 1.36 0.2 1.65 0.48 0.22 0.56 0.45 1.12 0.56 2.16 0.05 0.54 0.05 0.7 0.05 0.94-0.32 0.08-1.09 0.2-1.75 0.2h-3.84l-0.24 2.49zm-2.51-2.09c0.18-0.46 1.14-2.77 1.19-4.37 0.02-0.58-0.03-0.99-0.1-1.41-0.05-0.27-0.37-0.94-0.79-0.95l-1.57-0.05-0.29-0.7-1.03 0.19 0.12 3.06 0.69 0.05c0.71 0.05 1.5 0.14 1.5 0.83 0 0.65-0.93 2.04-1.28 2.53l1.56 0.82zm-9.2 2.01h5.15c-0.05-0.7-0.29-3.79-0.34-4.73-0.03-0.83-0.05-2.55-0.05-3.16-0.05-0.36-0.34-0.85-0.74-0.85h-1.78l-0.29-0.75-1.03 0.07 0.34 3.23h1.63c0.18 0.19 0.29 0.56 0.32 0.7 0.22 0.92 0.29 1.46 0.29 2.62 0 0.17-0.03 0.24-0.07 0.31-0.15 0.07-0.71 0.15-1.58 0.15h-1.67l-0.18 2.41zm-2.83 0.18 1.63-0.37-0.15-1.97c-0.14-1.79-0.1-5.05-0.1-5.39 0-0.82-0.51-1.1-0.71-1.19l-1.08-0.08c-0.22-0.03-0.37-0.09-0.59-0.17l-0.2-0.51-0.88 0.07 0.17 3.16 1.3 0.08c0.12 0.09 0.39 0.32 0.47 0.78 0.07 0.32 0.17 1.53 0.2 2.11 0.11 1.61 0.01 2.58-0.06 3.48m-8.72-0.18h5.15c-0.05-0.7-0.29-3.79-0.34-4.73-0.03-0.83-0.05-2.55-0.05-3.16-0.05-0.36-0.34-0.85-0.74-0.85h-1.78l-0.29-0.75-1.03 0.07 0.34 3.23h1.63c0.18 0.19 0.29 0.56 0.32 0.7 0.22 0.92 0.29 1.46 0.29 2.62 0 0.17-0.03 0.24-0.07 0.31-0.15 0.07-0.71 0.15-1.58 0.15h-1.67l-0.18 2.41zm-2.25-2.01c0.18-0.46 1.15-2.77 1.2-4.37 0.02-0.58-0.03-0.99-0.1-1.41-0.05-0.27-0.37-0.94-0.79-0.95l-1.57-0.05-0.29-0.7-1.03 0.19 0.12 3.06 0.69 0.05c0.71 0.05 1.5 0.14 1.5 0.83 0 0.65-0.93 2.04-1.28 2.53l1.55 0.82zm-5.62 2.19 1.63-0.37-0.15-1.97c-0.13-1.79-0.1-5.05-0.1-5.39 0-0.82-0.51-1.1-0.71-1.19l-1.08-0.08c-0.22-0.03-0.37-0.09-0.59-0.17l-0.2-0.51-0.88 0.07 0.17 3.16 1.3 0.08c0.12 0.09 0.39 0.32 0.47 0.78 0.07 0.32 0.17 1.53 0.2 2.11 0.1 1.61 0 2.58-0.06 3.48m-5.49 0 1.95-0.46c-0.1-0.56-0.25-2.06-0.34-3.15-0.17-2.06-0.17-3.04-0.17-3.5 0-0.58-0.5-1.36-1.08-1.82h-5.67c-0.39 0-0.54-0.14-0.64-0.22l-0.25-0.54-0.76 0.15 0.18 3.03c0.24 0.09 0.52 0.14 0.91 0.14h0.49l-0.56 1.33c-0.1 0.22-0.13 0.56-0.12 0.75l0.12 2.06-1.53 0.12-0.44 1.94h3.43c0.17-0.97 0.18-1.19 0.18-1.51-0.07-0.39-0.49-2.67-0.49-3.21 0-0.51 0.27-1.04 0.45-1.46h3.64l0.13 0.2c0.42 0.65 0.62 2.16 0.62 2.99 0.03 1.28 0.02 1.75-0.05 3.16m-11.01-7.53h1.51l0.54-3.84h-2.05v3.84zm-2.79 0h1.53l0.52-3.84h-2.05v3.84z" />
 <path d="m232.16 205.19h6.23c0.61 0 0.77-0.17 0.89-0.48l0.77-2.16-0.35-4.27c-0.1-1.21-1.23-1.84-1.8-1.84h-3.3l-0.49-0.76-1.01 0.17 0.27 3.14h2.76c1.62 0 2.17 0.61 2.41 2.14l0.08 0.56c0.1 0.66-0.08 0.85-0.24 1.07h-5.76zm-2.88 0.18 1.6-0.42c-0.05-0.76-0.15-2.6-0.15-3.33v-3.01c0-0.97-0.62-2.16-1.67-2.16h-4.44l-0.45-0.76-0.91 0.12 0.15 3.2h4.7c0.24 0.12 0.67 0.31 0.93 0.9 0.2 0.48 0.39 1.79 0.39 2.67-0.01 0.75-0.08 1.64-0.15 2.79m-15.33-0.18h6.23c0.61 0 0.77-0.17 0.89-0.48l0.77-2.16-0.35-4.27c-0.1-1.21-1.23-1.84-1.8-1.84h-3.3l-0.49-0.76-1.01 0.17 0.27 3.14h2.76c1.62 0 2.17 0.61 2.41 2.14l0.08 0.56c0.1 0.66-0.08 0.85-0.24 1.07h-5.76zm-2.26-2.01c0.18-0.46 1.14-2.77 1.19-4.37 0.02-0.58-0.03-0.99-0.1-1.41-0.05-0.27-0.37-0.93-0.79-0.95l-1.57-0.05-0.29-0.7-1.03 0.19 0.12 3.06 0.69 0.05c0.71 0.05 1.5 0.14 1.5 0.83 0 0.65-0.93 2.04-1.28 2.53zm-15.55 2.19 1.55-0.8c-0.15-0.22-0.29-0.48-0.35-0.6-0.09-0.15-0.88-1.41-0.93-3.16l-0.1-3.6c0-0.29-0.25-0.76-0.69-0.76h-1.36c-0.15 0-0.49-0.12-0.51-0.15l-0.18-0.61-0.98 0.12 0.17 3.2h1.7c0.05 0.03 0.15 0.12 0.22 0.39 0.05 0.26 0.1 0.51 0.15 0.99l0.15 1.31-0.49 0.63c-0.13 0.19-0.45 0.31-0.69 0.39-0.32 0.03-0.66 0.05-1.06 0.05l-1.2 0.02 0.08 2.5 1.97-0.12c0.1-0.03 0.13-0.07 0.17-0.14l1.4-2.46c0.03 0.22 0.12 0.58 0.42 1.44 0.15 0.43 0.34 0.87 0.56 1.36m-7.98 0 2-0.46c-0.08-0.54-0.4-2.75-0.44-3.65-0.02-0.44-0.07-1.77-0.02-2.07l0.74-0.31-0.08-2.07c-0.13-0.12-0.4-0.36-1.35-0.36h-4.49c-0.57 0-0.64-0.09-0.77-0.15l-0.34-0.61-0.77 0.1 0.27 3.21h5.05c0.05 0.19 0.25 0.66 0.25 3.37 0 1.3-0.03 2.37-0.05 3m-8.46 0 1.63-0.37-0.15-1.97c-0.14-1.79-0.1-5.05-0.1-5.39 0-0.82-0.51-1.11-0.71-1.19l-1.08-0.09c-0.22-0.03-0.37-0.08-0.59-0.17l-0.2-0.51-0.88 0.07 0.17 3.16 1.3 0.08c0.12 0.09 0.39 0.32 0.47 0.78 0.07 0.32 0.17 1.53 0.2 2.11 0.1 1.62 0 2.59-0.06 3.49m-8.35-0.18h1.35c1.85-1.26 3.77-4.1 3.77-6.58 0-0.9-0.25-2.16-1.92-2.16h-3.08c-0.64 0-1.03-0.1-1.26-0.15-0.08-0.1-0.22-0.27-0.24-0.61l-0.05-1.12h0.52c0.3 0 0.49-0.07 0.54-0.1l-0.18-1.82c-0.02-0.17-0.13-0.32-0.39-0.32h-0.67c-0.46 0-1.01 0.07-1.18 0.1l0.27 6.61c0.42-0.02 1.2-0.03 2.58-0.03h2.07c0.44 0 1.38 0.12 1.38 0.97 0 0.7-0.66 1.87-1.5 2.46-0.89 0.63-1.8 0.66-2.12 0.7zm-5.32-2.01c0.19-0.46 1.15-2.77 1.19-4.37 0.02-0.58-0.03-0.99-0.1-1.41-0.05-0.27-0.37-0.93-0.79-0.95l-1.57-0.05-0.29-0.7-1.03 0.19 0.12 3.06 0.69 0.05c0.71 0.05 1.5 0.14 1.5 0.83 0 0.65-0.93 2.04-1.28 2.53zm-9.61-0.41c-0.47 0-0.69-0.12-0.69-0.63l0.03-3.09c0.37-0.05 1.23-0.07 2.1-0.07 1.77 0 2.34 0.27 2.49 1.73l0.2 1.7c0.02 0.19-0.1 0.36-0.34 0.36zm-2.36 2.42h7.62c0.07 0 0.3-0.07 0.3-0.27l-0.13-6.56c-0.02-0.88-0.54-1.9-1.85-1.9h-5.03c-0.07 0-0.18-0.07-0.22-0.15l-0.27-0.61-0.98 0.08 0.2 3.2 1.21 0.17v0.02l-0.79 1.43zm-6.72 0.08c0.1 0 0.2-0.02 0.3-0.09l0.42-2.79c-0.25-0.09-0.79-0.2-1.53-0.75l-1.51-1.24 0.82-1.41h1.97l-0.18-1.78c-0.05-0.6-0.37-0.76-1.72-0.76-0.94 0-1.23 0.1-1.58 0.17l0.47 2.23c-0.05 0.19-0.22 0.61-0.42 1.04-0.45-0.31-1.97-1.55-2.49-2.04-0.62-0.58-1.04-1.36-1.45-2.16-0.17 0-0.4 0.07-0.52 0.14l-0.27 2.97 0.89 0.66-0.35 0.76c-0.08 0.19-0.13 0.59-0.08 1.05l0.18 1.5-1.38 0.24-0.47 2.18h3.6l0.3-1.8c-0.2-0.17-0.42-0.39-0.61-0.76-0.15-0.31-0.51-1.05-0.51-1.77 0-0.48 0.07-0.56 0.15-0.8l4.38 3.79c0.94 0.76 1.59 1.42 1.59 1.42m-14.86-0.08h1.35c1.85-1.26 3.77-4.1 3.77-6.58 0-0.9-0.25-2.16-1.92-2.16h-3.08c-0.64 0-1.03-0.1-1.26-0.15-0.08-0.1-0.22-0.27-0.24-0.61l-0.05-1.12h0.52c0.3 0 0.49-0.07 0.54-0.1l-0.18-1.82c-0.02-0.17-0.14-0.32-0.39-0.32h-0.67c-0.45 0-1.01 0.07-1.18 0.1l0.27 6.61c0.42-0.02 1.19-0.03 2.57-0.03h2.07c0.44 0 1.38 0.12 1.38 0.97 0 0.7-0.66 1.87-1.5 2.46-0.89 0.63-1.8 0.66-2.12 0.7zm-4.61 0.08c0.1 0 0.2-0.02 0.3-0.09l0.42-2.79c-0.25-0.09-0.79-0.2-1.53-0.75l-1.51-1.24 0.82-1.41h1.97l-0.19-1.78c-0.05-0.6-0.37-0.76-1.72-0.76-0.94 0-1.23 0.1-1.58 0.17l0.47 2.23c-0.05 0.19-0.22 0.61-0.42 1.04-0.45-0.31-1.97-1.55-2.49-2.04-0.62-0.58-1.04-1.36-1.45-2.16-0.17 0-0.4 0.07-0.52 0.14l-0.27 2.97 0.89 0.66-0.35 0.76c-0.08 0.19-0.13 0.59-0.08 1.05l0.18 1.5-1.38 0.24-0.47 2.18h3.6l0.3-1.8c-0.2-0.17-0.42-0.39-0.61-0.76-0.15-0.31-0.5-1.05-0.5-1.77 0-0.48 0.07-0.56 0.15-0.8l4.38 3.79c0.94 0.76 1.59 1.42 1.59 1.42m-21.88 1.36s1.83-0.61 2.61-0.88c1.58-0.56 2.74-1.19 2.74-1.19 0.59-0.27 0.94-0.92 1.09-1.63l0.81-3.65 0.71-0.31-0.08-2.19c-0.02-0.32-0.25-0.32-0.52-0.32h-2.19c-0.37 0.02-0.32 0.29-0.29 0.58l0.15 1.82 1.21 0.43-0.84 2.55c-0.17 0.53-0.49 0.75-0.81 0.95-0.19 0.12-0.44 0.26-0.76 0.43l-1.22-3.02c-0.17-0.41-0.19-0.75-0.2-0.95l0.94-0.32 0.14-2.11c0.03-0.26-0.03-0.37-0.24-0.37h-1.62c-0.24 0-0.32-0.09-0.39-0.14l-0.29-0.63-0.91 0.17 0.17 3.23 0.69 0.31 1.99 4.13-0.56 0.2c-1.31 0.48-1.99 0.56-2.46 0.65zm-2.52-3.45c0.19-0.46 1.14-2.77 1.19-4.37 0.02-0.58-0.03-0.99-0.1-1.41-0.05-0.27-0.37-0.93-0.79-0.95l-1.57-0.05-0.29-0.7-1.03 0.19 0.12 3.06 0.7 0.05c0.71 0.05 1.5 0.14 1.5 0.83 0 0.65-0.93 2.04-1.28 2.53zm-5.05 0c0.18-0.46 1.14-2.77 1.19-4.37 0.02-0.58-0.03-0.99-0.1-1.41-0.05-0.27-0.37-0.93-0.79-0.95l-1.57-0.05-0.29-0.7-1.03 0.19 0.12 3.06 0.69 0.05c0.71 0.05 1.5 0.14 1.5 0.83 0 0.65-0.93 2.04-1.28 2.53zm-5.68 2.19 1.6-0.42c-0.05-0.76-0.15-2.6-0.15-3.33v-3.01c0-0.97-0.62-2.16-1.67-2.16h-4.44l-0.45-0.76-0.91 0.12 0.15 3.2h4.7c0.24 0.12 0.67 0.31 0.93 0.9 0.2 0.48 0.39 1.79 0.39 2.67-0.01 0.75-0.08 1.64-0.15 2.79m-9.12 0 1.63-0.37-0.15-1.97c-0.13-1.79-0.1-5.05-0.1-5.39 0-0.82-0.5-1.11-0.71-1.19l-1.08-0.09c-0.22-0.03-0.37-0.08-0.59-0.17l-0.2-0.51-0.88 0.07 0.17 3.16 1.3 0.08c0.12 0.09 0.39 0.32 0.47 0.78 0.07 0.32 0.17 1.53 0.2 2.11 0.11 1.62 0.01 2.59-0.06 3.49m-5.48 0 1.95-0.46c-0.1-0.56-0.25-2.06-0.34-3.14-0.17-2.06-0.17-3.04-0.17-3.5 0-0.58-0.51-1.36-1.08-1.82h-5.67c-0.39 0-0.54-0.14-0.64-0.22l-0.25-0.54-0.76 0.15 0.18 3.03c0.24 0.08 0.52 0.14 0.91 0.14h0.49l-0.56 1.33c-0.1 0.22-0.14 0.56-0.12 0.75l0.12 2.06-1.53 0.12-0.44 1.94h3.43c0.17-0.97 0.19-1.19 0.19-1.51-0.07-0.39-0.49-2.67-0.49-3.21 0-0.51 0.27-1.04 0.45-1.46h3.64l0.13 0.2c0.42 0.65 0.62 2.16 0.62 2.99 0.02 1.27 0 1.74-0.06 3.15m126.1 4.1 2.29-0.48c-0.12-0.95-0.35-2.29-0.42-4.74l-0.13-4.95 1.11-0.34-0.07-1.87c-0.17-0.42-0.61-0.63-0.96-0.63h-1.53c-0.3 0-0.66-0.12-0.84-0.25l-0.18-0.51-1.06 0.09 0.15 3.23h0.83c0.54 0 0.77 0.15 1.01 0.29l0.09 5.07c0.02 1.76-0.1 3.32-0.29 5.09" />
 <path d="m239.65 182.77c0.1 0 0.2-0.02 0.3-0.08l0.42-2.79c-0.25-0.09-0.79-0.2-1.53-0.75l-1.51-1.24 0.82-1.41h1.97l-0.19-1.79c-0.05-0.6-0.37-0.76-1.72-0.76-0.94 0-1.23 0.1-1.58 0.17l0.47 2.23c-0.05 0.19-0.22 0.61-0.42 1.04-0.45-0.31-1.97-1.55-2.49-2.04-0.62-0.58-1.04-1.36-1.45-2.16-0.17 0-0.4 0.07-0.52 0.14l-0.27 2.98 0.89 0.66-0.35 0.76c-0.08 0.19-0.13 0.6-0.08 1.05l0.18 1.5-1.38 0.24-0.47 2.18h3.6l0.3-1.8c-0.2-0.17-0.42-0.39-0.61-0.76-0.15-0.31-0.51-1.05-0.51-1.77 0-0.48 0.07-0.56 0.15-0.8l4.38 3.79c0.94 0.75 1.6 1.41 1.6 1.41m-11.65 0.1 1.63-0.37-0.15-1.97c-0.13-1.79-0.1-5.05-0.1-5.39 0-0.82-0.5-1.1-0.71-1.19l-1.08-0.08c-0.22-0.03-0.37-0.09-0.59-0.17l-0.2-0.51-0.88 0.07 0.17 3.16 1.29 0.08c0.12 0.09 0.39 0.32 0.47 0.78 0.07 0.32 0.17 1.53 0.2 2.11 0.12 1.61 0.02 2.58-0.05 3.48m-5.48 0 1.95-0.46c-0.1-0.56-0.25-2.06-0.34-3.15-0.17-2.06-0.17-3.04-0.17-3.5 0-0.58-0.5-1.36-1.08-1.82h-5.67c-0.39 0-0.54-0.14-0.64-0.22l-0.25-0.54-0.76 0.15 0.18 3.03c0.24 0.09 0.52 0.14 0.91 0.14h0.49l-0.55 1.33c-0.1 0.22-0.14 0.56-0.12 0.75l0.12 2.06-1.53 0.12-0.44 1.94h3.43c0.17-0.97 0.18-1.19 0.18-1.51-0.07-0.39-0.49-2.67-0.49-3.21 0-0.51 0.27-1.04 0.45-1.46h3.64l0.13 0.2c0.42 0.65 0.62 2.16 0.62 2.99 0.02 1.28 0 1.75-0.06 3.16m-11.62 4.08 2.29-0.48c-0.12-0.95-0.35-2.29-0.42-4.74l-0.13-4.95 1.11-0.34-0.07-1.87c-0.17-0.42-0.61-0.63-0.96-0.63h-1.53c-0.3 0-0.66-0.12-0.84-0.25l-0.18-0.51-1.06 0.09 0.15 3.23h0.83c0.54 0 0.77 0.15 1.01 0.29l0.09 5.07c0.02 1.76-0.1 3.32-0.29 5.09m-12.1-4.26h1.35c1.85-1.26 3.77-4.1 3.77-6.58 0-0.9-0.25-2.16-1.92-2.16h-3.08c-0.64 0-1.03-0.1-1.26-0.15-0.08-0.1-0.22-0.27-0.24-0.61l-0.05-1.12h0.52c0.3 0 0.49-0.07 0.54-0.1l-0.18-1.82c-0.02-0.17-0.13-0.32-0.39-0.32h-0.67c-0.45 0-1.01 0.07-1.18 0.1l0.27 6.61c0.42-0.02 1.19-0.03 2.57-0.03h2.07c0.44 0 1.38 0.12 1.38 0.97 0 0.7-0.66 1.87-1.5 2.46-0.89 0.63-1.8 0.66-2.12 0.7zm-4.61 0.08c0.1 0 0.2-0.02 0.3-0.08l0.42-2.79c-0.25-0.09-0.79-0.2-1.53-0.75l-1.51-1.24 0.82-1.41h1.97l-0.18-1.79c-0.05-0.6-0.37-0.76-1.72-0.76-0.94 0-1.23 0.1-1.58 0.17l0.47 2.23c-0.05 0.19-0.22 0.61-0.42 1.04-0.45-0.31-1.97-1.55-2.49-2.04-0.62-0.58-1.04-1.36-1.45-2.16-0.17 0-0.4 0.07-0.52 0.14l-0.27 2.98 0.89 0.66-0.35 0.76c-0.08 0.19-0.13 0.6-0.08 1.05l0.18 1.5-1.38 0.24-0.47 2.18h3.6l0.3-1.8c-0.2-0.17-0.42-0.39-0.61-0.76-0.15-0.31-0.5-1.05-0.5-1.77 0-0.48 0.07-0.56 0.15-0.8l4.38 3.79c0.92 0.75 1.58 1.41 1.58 1.41m-20.67 0.1c0.71-0.07 1.16-0.12 1.97-0.27 2-0.39 3.28-1.31 3.69-1.94 0.34-0.53 0.96-1.31 0.96-3.37 0-2.46-0.37-3.47-1.23-3.43l-2.17 0.08-0.46 3.06h0.42c0.12-0.31 0.35-0.51 0.49-0.51l0.98-0.05c0.35 0.61 0.37 1.24 0.37 1.65 0 0.54-0.02 1.09-0.13 1.55-0.24 0.12-0.62 0.34-1.78 0.56-0.84 0.15-1.36 0.19-1.92 0.24-0.17-0.24-0.45-0.56-0.67-2.11-0.12-0.8-0.13-1.33-0.17-1.67l0.89-0.17 0.18-2.16c0.02-0.17-0.08-0.39-0.3-0.39h-1.35c-0.27 0-0.39-0.25-0.47-0.42l-0.15-0.32-0.94 0.15 0.1 3.06 0.77 0.29c0 0.29 0.02 2.02 0.22 3.42 0.21 1.55 0.49 2.21 0.7 2.75m-4.58-2.19c0.18-0.46 1.14-2.77 1.19-4.37 0.02-0.58-0.03-0.99-0.1-1.41-0.05-0.27-0.37-0.94-0.79-0.95l-1.57-0.05-0.29-0.7-1.03 0.19 0.12 3.06 0.69 0.05c0.71 0.05 1.5 0.14 1.5 0.83 0 0.65-0.93 2.04-1.28 2.53zm-5.67 2.19 1.6-0.43c-0.05-0.76-0.15-2.6-0.15-3.33v-3.01c0-0.97-0.62-2.16-1.67-2.16h-4.44l-0.45-0.76-0.91 0.12 0.15 3.2h4.7c0.24 0.12 0.67 0.31 0.92 0.9 0.2 0.48 0.39 1.79 0.39 2.67-0.01 0.76-0.08 1.65-0.14 2.8m-8.55-2.19c0.19-0.46 1.15-2.77 1.2-4.37 0.02-0.58-0.03-0.99-0.1-1.41-0.05-0.27-0.37-0.94-0.79-0.95l-1.57-0.05-0.29-0.7-1.03 0.19 0.12 3.06 0.69 0.05c0.71 0.05 1.5 0.14 1.5 0.83 0 0.65-0.93 2.04-1.28 2.53zm-6.62 6.27 2.29-0.48c-0.12-0.95-0.35-2.29-0.42-4.74l-0.13-4.95 1.11-0.34-0.07-1.87c-0.17-0.42-0.61-0.63-0.96-0.63h-1.53c-0.3 0-0.66-0.12-0.84-0.25l-0.18-0.51-1.06 0.09 0.15 3.23h0.83c0.54 0 0.77 0.15 1.01 0.29l0.09 5.07c0.02 1.76-0.1 3.32-0.29 5.09m-14.37 0 1.84-0.43c-0.15-0.8-0.57-3.08-0.57-5.64 0-0.99 0.05-1.58 0.07-2.18l-1.53 0.1c0.05 0.49 0.1 1.09 0.13 2.19 0.02 1.32 0.04 3.53 0.06 5.96m2.71-4.26h1.04c1.99-1.34 3.37-3.23 3.37-5.68v-0.99c0-0.88-0.29-2.07-1.67-2.07h-3.92c-0.42 0-0.67-0.07-0.91-0.14l-0.27-0.63-1.08 0.1 0.27 3.3c0.34-0.02 1.7-0.09 2.61-0.09h1.83c0.81 0 1.65 0.41 1.65 1.14 0 1.33-0.82 1.92-2 2.46-0.34 0.15-0.71 0.27-0.98 0.34zm-11.94 0.18c0.71-0.07 1.16-0.12 1.97-0.27 2-0.39 3.28-1.31 3.69-1.94 0.34-0.53 0.96-1.31 0.96-3.37 0-2.46-0.37-3.47-1.23-3.43l-2.17 0.08-0.45 3.06h0.42c0.12-0.31 0.35-0.51 0.49-0.51l0.98-0.05c0.35 0.61 0.37 1.24 0.37 1.65 0 0.54-0.02 1.09-0.13 1.55-0.24 0.12-0.62 0.34-1.78 0.56-0.84 0.15-1.36 0.19-1.92 0.24-0.17-0.24-0.45-0.56-0.67-2.11-0.12-0.8-0.14-1.33-0.17-1.67l0.89-0.17 0.19-2.16c0.02-0.17-0.08-0.39-0.3-0.39h-1.35c-0.27 0-0.39-0.25-0.47-0.42l-0.15-0.32-0.94 0.15 0.1 3.06 0.77 0.29c0 0.29 0.02 2.02 0.22 3.42 0.2 1.55 0.48 2.21 0.68 2.75m-8.73-0.18h5.15c-0.05-0.7-0.29-3.79-0.34-4.73-0.03-0.83-0.05-2.55-0.05-3.16-0.05-0.36-0.34-0.85-0.74-0.85h-1.78l-0.29-0.75-1.03 0.07 0.34 3.23h1.63c0.18 0.19 0.29 0.56 0.32 0.7 0.22 0.92 0.29 1.46 0.29 2.62 0 0.17-0.03 0.24-0.07 0.31-0.15 0.07-0.71 0.15-1.58 0.15h-1.67zm-2.26-2.01c0.19-0.46 1.15-2.77 1.19-4.37 0.02-0.58-0.03-0.99-0.1-1.41-0.05-0.27-0.37-0.94-0.79-0.95l-1.57-0.05-0.29-0.7-1.03 0.19 0.12 3.06 0.69 0.05c0.71 0.05 1.5 0.14 1.5 0.83 0 0.65-0.93 2.04-1.28 2.53zm-9.61-0.41c-0.47 0-0.69-0.12-0.69-0.63l0.03-3.09c0.37-0.05 1.23-0.07 2.1-0.07 1.77 0 2.34 0.27 2.49 1.73l0.2 1.7c0.02 0.19-0.1 0.36-0.34 0.36zm-2.35 2.42h7.62c0.07 0 0.3-0.07 0.3-0.27l-0.13-6.56c-0.02-0.88-0.54-1.9-1.85-1.9h-5.03c-0.07 0-0.18-0.07-0.22-0.15l-0.27-0.61-0.98 0.09 0.2 3.2 1.21 0.17v0.02l-0.79 1.43zm-8 0.18 1.63-0.37-0.15-1.97c-0.13-1.79-0.1-5.05-0.1-5.39 0-0.82-0.5-1.1-0.71-1.19l-1.08-0.08c-0.22-0.03-0.37-0.09-0.59-0.17l-0.2-0.51-0.88 0.07 0.17 3.16 1.3 0.08c0.12 0.09 0.39 0.32 0.47 0.78 0.07 0.32 0.17 1.53 0.2 2.11 0.11 1.61 0.01 2.58-0.06 3.48m-8.35-0.18h1.35c1.85-1.26 3.77-4.1 3.77-6.58 0-0.9-0.25-2.16-1.92-2.16h-3.08c-0.64 0-1.03-0.1-1.26-0.15-0.08-0.1-0.22-0.27-0.24-0.61l-0.05-1.12h0.52c0.3 0 0.49-0.07 0.54-0.1l-0.18-1.82c-0.02-0.17-0.14-0.32-0.39-0.32h-0.67c-0.46 0-1.01 0.07-1.18 0.1l0.27 6.61c0.42-0.02 1.19-0.03 2.57-0.03h2.07c0.44 0 1.38 0.12 1.38 0.97 0 0.7-0.66 1.87-1.5 2.46-0.89 0.63-1.8 0.66-2.12 0.7zm-4.61 0.08c0.1 0 0.2-0.02 0.3-0.08l0.42-2.79c-0.25-0.09-0.79-0.2-1.53-0.75l-1.51-1.24 0.83-1.41h1.97l-0.18-1.79c-0.05-0.6-0.37-0.76-1.72-0.76-0.94 0-1.23 0.1-1.58 0.17l0.47 2.23c-0.05 0.19-0.22 0.61-0.42 1.04-0.45-0.31-1.97-1.55-2.49-2.04-0.62-0.58-1.04-1.36-1.45-2.16-0.17 0-0.4 0.07-0.52 0.14l-0.27 2.98 0.89 0.66-0.35 0.76c-0.08 0.19-0.13 0.6-0.08 1.05l0.19 1.5-1.38 0.24-0.47 2.18h3.6l0.3-1.8c-0.2-0.17-0.42-0.39-0.61-0.76-0.15-0.31-0.5-1.05-0.5-1.77 0-0.48 0.07-0.56 0.15-0.8l4.38 3.79c0.91 0.75 1.56 1.41 1.56 1.41" />
 <path d="m237.98 152.84h1.51l0.54-3.84h-2.05v3.84zm-2.79 0h1.53l0.52-3.84h-2.05v3.84zm-9.56 8.79s1.83-0.61 2.61-0.88c1.58-0.56 2.74-1.19 2.74-1.19 0.59-0.27 0.94-0.92 1.09-1.63l0.81-3.65 0.71-0.31-0.08-2.19c-0.02-0.32-0.25-0.32-0.52-0.32h-2.19c-0.37 0.02-0.32 0.29-0.29 0.58l0.15 1.82 1.21 0.42-0.84 2.55c-0.17 0.53-0.49 0.75-0.81 0.95-0.18 0.12-0.44 0.26-0.76 0.43l-1.23-2.99c-0.17-0.41-0.18-0.75-0.2-0.95l0.94-0.32 0.13-2.11c0.03-0.26-0.03-0.37-0.24-0.37h-1.62c-0.24 0-0.32-0.09-0.39-0.14l-0.29-0.63-0.91 0.17 0.17 3.23 0.69 0.31 1.99 4.13-0.55 0.2c-1.31 0.48-1.99 0.56-2.46 0.65l0.14 2.24zm-3.15-1.26 1.6-0.42c-0.05-0.77-0.15-2.6-0.15-3.33v-3.01c0-0.97-0.62-2.16-1.67-2.16h-4.44l-0.46-0.77-0.91 0.12 0.15 3.2h4.69c0.24 0.12 0.67 0.31 0.93 0.9 0.2 0.48 0.39 1.79 0.39 2.67 0.01 0.76-0.06 1.65-0.13 2.8m-8.55-2.19c0.18-0.46 1.14-2.77 1.19-4.37 0.02-0.58-0.03-0.99-0.1-1.41-0.05-0.27-0.37-0.93-0.79-0.95l-1.57-0.05-0.29-0.7-1.03 0.19 0.12 3.06 0.69 0.05c0.71 0.05 1.5 0.14 1.5 0.83 0 0.65-0.93 2.04-1.28 2.53l1.56 0.82zm-9.61-0.41c-0.47 0-0.69-0.12-0.69-0.63l0.03-3.09c0.37-0.05 1.23-0.07 2.1-0.07 1.77 0 2.34 0.27 2.49 1.73l0.2 1.7c0.02 0.19-0.1 0.36-0.34 0.36h-3.79zm-2.35 2.42h7.62c0.07 0 0.3-0.07 0.3-0.27l-0.14-6.56c-0.02-0.88-0.54-1.9-1.85-1.9h-5.03c-0.07 0-0.18-0.07-0.22-0.15l-0.27-0.61-0.98 0.08 0.2 3.2 1.21 0.17v0.02l-0.79 1.43-0.05 4.59zm-14.72 0.18 1.78-0.41c-0.03-0.63-0.07-1.8-0.07-2.3 0-0.56 0.03-1.46 0.08-2.26l-1.53 0.42c0 0.53-0.03 1.26-0.08 2.28-0.03 0.73-0.11 1.52-0.18 2.27m6.35 0 1.85-0.49c-0.05-0.27-0.44-2.01-0.52-3.96-0.03-0.63-0.03-1.1-0.03-1.6l0.96-0.42-0.08-2.11c-0.22-0.22-0.47-0.34-0.82-0.34h-6.02c-0.37 0-0.54-0.05-0.81-0.12l-0.24-0.63-0.93 0.12 0.29 3.18h4.98c0.61 0 0.81 0.08 1.16 0.22 0.05 0.26 0.25 1.51 0.24 3.35l-0.03 2.8zm-13.26-0.18h1.35c1.85-1.26 3.77-4.1 3.77-6.58 0-0.9-0.25-2.16-1.92-2.16h-3.08c-0.64 0-1.03-0.1-1.26-0.15-0.08-0.1-0.22-0.27-0.24-0.61l-0.05-1.12h0.52c0.3 0 0.49-0.07 0.54-0.1l-0.18-1.82c-0.02-0.17-0.13-0.32-0.39-0.32h-0.67c-0.45 0-1.01 0.07-1.18 0.1l0.27 6.61c0.42-0.02 1.19-0.03 2.57-0.03h2.07c0.44 0 1.38 0.12 1.38 0.97 0 0.7-0.66 1.87-1.5 2.46-0.89 0.63-1.8 0.66-2.12 0.7l0.12 2.05zm-9.11 0h1.35c1.85-1.26 3.77-4.1 3.77-6.58 0-0.9-0.25-2.16-1.92-2.16h-3.08c-0.64 0-1.03-0.1-1.26-0.15-0.08-0.1-0.22-0.27-0.24-0.61l-0.05-1.12h0.52c0.3 0 0.49-0.07 0.54-0.1l-0.19-1.82c-0.02-0.17-0.13-0.32-0.39-0.32h-0.67c-0.45 0-1.01 0.07-1.18 0.1l0.27 6.61c0.42-0.02 1.2-0.03 2.58-0.03h2.07c0.44 0 1.38 0.12 1.38 0.97 0 0.7-0.66 1.87-1.5 2.46-0.89 0.63-1.8 0.66-2.12 0.7l0.12 2.05zm-5.89 0.18 1.63-0.37-0.15-1.97c-0.14-1.79-0.1-5.05-0.1-5.39 0-0.82-0.5-1.11-0.71-1.19l-1.08-0.09c-0.22-0.03-0.37-0.08-0.59-0.17l-0.2-0.51-0.88 0.07 0.17 3.16 1.3 0.08c0.12 0.08 0.39 0.32 0.47 0.78 0.07 0.32 0.17 1.53 0.2 2.11 0.11 1.62 0.01 2.59-0.06 3.49m-8.01-0.1c0.1 0 0.2-0.02 0.3-0.09l0.42-2.79c-0.25-0.08-0.79-0.2-1.53-0.75l-1.51-1.24 0.82-1.41h1.97l-0.19-1.79c-0.05-0.6-0.37-0.76-1.72-0.76-0.94 0-1.23 0.1-1.58 0.17l0.47 2.23c-0.05 0.19-0.22 0.61-0.42 1.04-0.45-0.31-1.97-1.55-2.49-2.04-0.62-0.58-1.04-1.36-1.45-2.16-0.17 0-0.4 0.07-0.52 0.14l-0.27 2.97 0.89 0.66-0.35 0.76c-0.09 0.19-0.14 0.6-0.09 1.05l0.19 1.5-1.38 0.24-0.47 2.18h3.6l0.3-1.8c-0.2-0.17-0.42-0.39-0.61-0.77-0.15-0.31-0.5-1.05-0.5-1.77 0-0.48 0.07-0.56 0.15-0.8l4.38 3.79c0.93 0.78 1.59 1.44 1.59 1.44m-11.08-2.09c0.19-0.46 1.15-2.77 1.2-4.37 0.02-0.58-0.03-0.99-0.1-1.41-0.05-0.27-0.37-0.93-0.79-0.95l-1.57-0.05-0.29-0.7-1.03 0.19 0.12 3.06 0.69 0.05c0.71 0.05 1.5 0.14 1.5 0.83 0 0.65-0.93 2.04-1.28 2.53l1.55 0.82zm-6.61 6.27 2.29-0.48c-0.12-0.95-0.35-2.3-0.42-4.74l-0.13-4.95 1.11-0.34-0.07-1.87c-0.17-0.43-0.61-0.63-0.96-0.63h-1.53c-0.3 0-0.66-0.12-0.84-0.26l-0.18-0.51-1.06 0.08 0.15 3.23h0.83c0.54 0 0.77 0.15 1.01 0.29l0.08 5.07c0.02 1.78-0.1 3.34-0.28 5.11m-14.97-2.82s1.83-0.61 2.61-0.88c1.58-0.56 2.74-1.19 2.74-1.19 0.59-0.27 0.94-0.92 1.09-1.63l0.81-3.65 0.71-0.31-0.08-2.19c-0.02-0.32-0.25-0.32-0.52-0.32h-2.19c-0.37 0.02-0.32 0.29-0.29 0.58l0.15 1.82 1.21 0.42-0.84 2.55c-0.17 0.53-0.49 0.75-0.81 0.95-0.18 0.12-0.44 0.26-0.76 0.43l-1.23-2.99c-0.17-0.41-0.18-0.75-0.2-0.95l0.94-0.32 0.13-2.11c0.03-0.26-0.03-0.37-0.23-0.37h-1.62c-0.24 0-0.32-0.09-0.39-0.14l-0.29-0.63-0.91 0.17 0.17 3.23 0.69 0.31 1.99 4.13-0.56 0.2c-1.31 0.48-1.99 0.56-2.46 0.65l0.14 2.24zm-3.09-1.26 1.63-0.37-0.15-1.97c-0.13-1.79-0.1-5.05-0.1-5.39 0-0.82-0.5-1.11-0.71-1.19l-1.08-0.09c-0.22-0.03-0.37-0.08-0.59-0.17l-0.2-0.51-0.88 0.07 0.17 3.16 1.3 0.08c0.12 0.08 0.39 0.32 0.47 0.78 0.07 0.32 0.17 1.53 0.2 2.11 0.1 1.62 0 2.59-0.06 3.49m-12.32 0 3.91-0.37c2.25-0.22 3.1-1.55 3.23-1.79 0.46-0.8 0.88-2.16 1.15-3.3l0.18-0.8 0.64-0.24 0.14-2.12c0.03-0.26-0.15-0.31-0.34-0.31h-2.34c-0.27 0-0.25 0.25-0.25 0.32l0.17 2.06 0.81 0.27-0.18 0.68c-0.14 0.51-0.46 1.38-0.72 1.9-0.61 1.16-1.89 1.09-2.91 1.19l-0.54 0.05 1.18-3.65 1.26-0.49-0.22-1.94c-0.02-0.19-0.15-0.39-0.45-0.39h-2.07c-0.19 0-0.24 0.05-0.22 0.22l0.18 1.9c0.02 0.2 0 0.51-0.02 0.65l-0.71 3.81-0.69 0.05c-0.25-0.22-0.47-0.9-0.66-2.35l-0.18-1.51 1.13-0.24-0.2-2.33c-0.02-0.19-0.1-0.2-0.22-0.2h-1.35c-0.25 0-0.34-0.07-0.42-0.14l-0.27-0.63-0.88 0.1 0.12 3.2 0.88 0.32 0.25 2.58c0.1 1.41 0.37 2.45 0.61 3.5m-4.51-2.19c0.18-0.46 1.14-2.77 1.19-4.37 0.02-0.58-0.03-0.99-0.1-1.41-0.05-0.27-0.37-0.93-0.79-0.95l-1.57-0.05-0.29-0.7-1.03 0.19 0.12 3.06 0.69 0.05c0.71 0.05 1.5 0.14 1.5 0.83 0 0.65-0.93 2.04-1.28 2.53l1.56 0.82zm-6.62 6.27 2.29-0.48c-0.12-0.95-0.35-2.3-0.42-4.74l-0.14-4.95 1.11-0.34-0.07-1.87c-0.17-0.43-0.61-0.63-0.96-0.63h-1.53c-0.3 0-0.66-0.12-0.84-0.26l-0.19-0.51-1.06 0.08 0.15 3.23h0.82c0.54 0 0.78 0.15 1.01 0.29l0.08 5.07c0.05 1.78-0.06 3.34-0.25 5.11" />
</svg>
