<svg xmlns="http://www.w3.org/2000/svg" viewBox="0 0 297.64 420.94">
 <rect width="297.64" height="420.95" fill="#ffffff" />
 <path d="m240.54 260.82v-4.48c0-.12-.02-.24-.08-.36-.05-.12-.12-.23-.2-.32s-.17-.17-.27-.23-.21-.09-.31-.09c-.07 0-.13 .02-.18 .07s-.07 .11-.07 .18c0 .1 .04 .17 .12 .22 .09 .06 .18 .15 .26 .26 .09 .11 .13 .24 .13 .4v4.2c0 .15-.04 .29-.13 .4-.08 .11-.17 .2-.26 .26-.08 .06-.12 .14-.12 .22s0.02 .14 .07 .18c0.05 .05 .11 .07 .18 .07 .11 0 .21-.03 .31-.09s0.19-.14 .27-.23 .15-.2 .2-.32c0.06-.1 .08-.22 .08-.34m-2.3-.88v-2.42c0-.18-.04-.35-.12-.51s-.19-.3-.32-.42-.29-.21-.47-.28-.36-.1-.56-.1c-.26 0-.49 .04-.69 .11-.2 .08-.4 .22-.62 .43v-.18c0-.09-.03-.16-.08-.21s-.12-.08-.22-.08h-.68c-.07 0-.11 .04-.11 .1v0.39c0 .08 .04 .11 .11 .11h0.4v3.92c0 .07 .03 .1 .1 .1h0.4c0.07 0 .1-.04 .1-.1v-2.89c0-.15 .03-.3 .09-.44s0.14-.26 .24-.36 .23-.19 .36-.24c0.14-.06 .29-.09 .44-.09 .3 0 .54 .08 .72 .23s0.27 .34 .27 .56v2.35c0 .11-.04 .2-.11 .27s-.16 .11-.27 .11h-.78c-.07 0-.11 .04-.11 .1v0.4c0 .07 .04 .1 .11 .1h0.78c0.14 0 .27-.02 .39-.08 .12-.05 .23-.12 .32-.21s0.16-.19 .22-.31c0.06-.09 .09-.22 .09-.36m-5.49-.56c0 .14-.03 .28-.08 .4s-.13 .24-.22 .33c-.1 .1-.21 .17-.33 .22s-.26 .08-.4 .08-.28-.03-.4-.08-.24-.13-.33-.22c-.09-.1-.17-.21-.22-.33s-.08-.26-.08-.4v-2.48h2.07v2.48zm0.63-2.8c0-.09-.03-.16-.08-.21s-.13-.08-.22-.08h-3.44c-.04 0-.07 .01-.09 .03s-.03 .05-.03 .07v0.39c0 .03 .01 .05 .03 .08 .02 .02 .05 .04 .09 .04h0.42v2.46c0 .23 .04 .44 .13 .64s0.21 .38 .36 .52c0.15 .15 .32 .27 .52 .36s0.41 .13 .64 .13 .45-.04 .65-.13 .38-.21 .53-.36 .27-.32 .36-.52 .13-.41 .13-.64v-2.78zm-4.83 3.36v-3.36c0-.09-.03-.16-.08-.21s-.12-.08-.22-.08h-2.74c-.07 0-.11 .04-.11 .1v0.39c0 .08 .04 .11 .11 .11h2.41v3.04c0 .11-.04 .2-.12 .27s-.17 .11-.28 .11h-2.02c-.07 0-.11 .04-.11 .11v0.39c0 .07 .04 .1 .11 .1h2.02c0.14 0 .27-.02 .39-.08 .12-.05 .23-.12 .32-.21s0.17-.2 .22-.31c0.08-.1 .1-.23 .1-.37m-4.22-3.36c0-.09-.03-.16-.08-.21s-.12-.08-.22-.08h-3.45c-.07 0-.11 .04-.11 .1v0.39c0 .08 .04 .11 .11 .11h0.57v3.42h-.62c-.07 0-.1 .04-.1 .11v0.39c0 .07 .04 .1 .1 .1h0.95c0.09 0 .16-.03 .21-.08s0.08-.12 .08-.22v-3.73h1.94v3.92c0 .07 .04 .1 .11 .1h0.4c0.07 0 .1-.04 .1-.1v-4.22zm-7.35 3.36v-2.42c0-.18-.04-.35-.12-.51s-.19-.3-.32-.42-.29-.21-.47-.28-.36-.1-.56-.1c-.26 0-.49 .04-.69 .11-.2 .08-.4 .22-.62 .43v-.18c0-.09-.03-.16-.08-.21s-.12-.08-.22-.08h-.68c-.07 0-.11 .04-.11 .1v0.39c0 .08 .04 .11 .11 .11h0.4v3.92c0 .07 .04 .1 .1 .1h0.4c0.07 0 .1-.04 .1-.1v-2.89c0-.15 .03-.3 .09-.44s0.14-.26 .24-.36 .23-.19 .36-.24c0.14-.06 .29-.09 .44-.09 .3 0 .55 .08 .72 .23 .18 .15 .27 .34 .27 .56v2.35c0 .11-.04 .2-.11 .27s-.17 .11-.27 .11h-.78c-.07 0-.11 .04-.11 .1v0.4c0 .07 .04 .1 .11 .1h0.78c0.14 0 .27-.02 .39-.08 .12-.05 .23-.12 .32-.21s0.16-.19 .22-.31c0.06-.09 .09-.22 .09-.36m-4.86 0v-3.36c0-.09-.03-.16-.08-.21s-.12-.08-.22-.08h-2.74c-.07 0-.11 .04-.11 .1v0.39c0 .08 .04 .11 .11 .11h2.41v3.04c0 .11-.04 .2-.12 .27s-.17 .11-.28 .11h-2.02c-.07 0-.11 .04-.11 .11v0.39c0 .07 .04 .1 .11 .1h2.02c0.14 0 .27-.02 .39-.08 .12-.05 .23-.12 .32-.21s0.17-.2 .22-.31c0.07-.1 .1-.23 .1-.37m-4.11 .88v-4.24c0-.09-.03-.16-.08-.21s-.13-.08-.22-.08h-.82c-.03 0-.06 .01-.08 .03s-.04 .05-.04 .07v0.39c0 .03 .01 .06 .04 .08 .02 .02 .05 .03 .08 .03h0.5v3.92c0 .03 .01 .06 .04 .08 .02 .02 .05 .03 .08 .03h0.38c0.03 0 .06-.01 .08-.03 .03-.01 .04-.03 .04-.07m-2.24-4.24c0-.09-.03-.16-.08-.21s-.13-.08-.22-.08h-3.45c-.07 0-.11 .04-.11 .1v0.39c0 .08 .04 .11 .11 .11h0.57v3.42h-.62c-.07 0-.1 .04-.1 .11v0.39c0 .07 .03 .1 .1 .1h0.95c0.09 0 .16-.03 .21-.08s0.08-.12 .08-.22v-3.73h1.94v3.92c0 .07 .04 .1 .11 .1h0.4c0.07 0 .1-.04 .1-.1v-4.22zm-4.96 3.92c0.02-.05 .02-.09-.01-.12-.03-.04-.06-.05-.11-.05h-.43c-.04 0-.08 .02-.11 .05s-.05 .07-.06 .11l-.3 1.52c0 .06 .03 .09 .09 .09h0.22c0.06 0 .11-.03 .13-.08l0.58-1.52zm-4.41-2.26v-1.66c0-.09-.03-.16-.08-.21s-.13-.08-.22-.08h-.98c-.03 0-.06 .01-.08 .03s-.04 .05-.04 .07v0.39c0 .03 .01 .06 .04 .08s0.05 .03 .08 .03h0.66v1.34c0 .03 .01 .05 .04 .07s0.05 .03 .08 .03h0.38c0.03 0 .06-.01 .08-.03s0.04-.03 .04-.06m-2.16-1.77c0.02-.05 .01-.1-.01-.13s-.06-.05-.11-.05h-.43c-.1 0-.16 .05-.17 .16l-.3 1.91c0 .06 .03 .09 .09 .09h0.22c0.07 0 .11-.02 .13-.07l0.58-1.91zm-1.96 4.03c0.02-.05 .02-.09-.01-.12-.03-.04-.06-.05-.11-.05h-.43c-.04 0-.08 .02-.11 .05s-.05 .07-.06 .11l-.3 1.52c0 .06 .03 .09 .09 .09h0.22c0.06 0 .11-.03 .13-.08l0.58-1.52zm-4.43-2.79v-1.12c0-.09-.03-.16-.08-.22-.05-.05-.12-.08-.22-.08h-.98c-.07 0-.1 .04-.1 .1v0.4c0 .07 .04 .1 .1 .1h0.65v0.85c0 .25-.09 .44-.27 .58s-.42 .21-.7 .24l-1.54-2.26c-.03-.04-.07-.07-.12-.08s-.1 0-.14 .03l-.19 .13c-.05 .03-.08 .07-.09 .12s0 .1 .02 .14l0.7 1.02-.15 .11c-.26 .19-.42 .39-.5 .62-.07 .23-.11 .48-.11 .76v1.47c0 .09 .03 .16 .08 .21 .06 .05 .13 .08 .22 .08h0.94c0.08 0 .11-.04 .11-.1v-.39c0-.08-.04-.11-.11-.11h-.63v-1.2c0-.23 .03-.41 .1-.56 .06-.14 .2-.27 .39-.4l1.86 2.7c0.03 .04 .08 .07 .13 .08s0.11 0 .16-.03l0.18-.12c0.04-.03 .07-.07 .08-.12s0.01-.1-.02-.14l-.99-1.45c0.2-.03 .37-.09 .53-.18 .15-.09 .28-.19 .39-.31 .1-.12 .18-.26 .24-.41 .04-.13 .06-.29 .06-.46m-5.08 3.7c-.09-.06-.18-.15-.27-.26s-.13-.24-.13-.4v-4.28c0-.15 .04-.29 .13-.4s0.18-.2 .27-.26c0.08-.05 .12-.13 .12-.22 0-.07-.02-.14-.07-.18-.05-.05-.11-.07-.18-.07-.11 0-.21 .03-.31 .09s-.19 .13-.27 .23-.15 .2-.2 .32-.08 .24-.08 .36v4.56c0 .12 .02 .24 .08 .36 .05 .12 .12 .22 .2 .32 .08 .09 .17 .17 .27 .23s0.21 .09 .31 .09c0.07 0 .13-.02 .18-.07s0.07-.11 .07-.18c0-.1-.04-.18-.12-.24" />
 <path d="m232.26 227.77s1.78-.08 2.99-.08h4.93l0.13-2.41-.42-.14c-.47-.15-.44-.93-.45-1.21l-.19-2.86c-.1-1.56-.84-2.12-2.24-2.12h-2.93c-.35 0-.51-.12-.61-.36l-.18-.41-.84 .19 .13 3.13h3.25c0.98 0 1.36 .2 1.65 .48 .22 .56 .45 1.12 .56 2.16 .05 .54 .05 .7 .05 .94-.32 .08-1.09 .2-1.75 .2h-3.84l-.24 2.49zm-2.51-2.09c0.18-.46 1.14-2.77 1.19-4.37 .02-.58-.03-.99-.1-1.41-.05-.27-.37-.94-.79-.95l-1.57-.05-.29-.7-1.03 .19 .12 3.06 .69 .05c0.71 .05 1.5 .14 1.5 .83 0 .65-.93 2.04-1.28 2.53l1.56 .82zm-9.2 2.01h5.15c-.05-.7-.29-3.79-.34-4.73-.03-.83-.05-2.55-.05-3.16-.05-.36-.34-.85-.74-.85h-1.78l-.29-.75-1.03 .07 .34 3.23h1.63c0.18 .19 .29 .56 .32 .7 .22 .92 .29 1.46 .29 2.62 0 .17-.03 .24-.07 .31-.15 .07-.71 .15-1.58 .15h-1.67l-.18 2.41zm-2.83 .18 1.63-.37-.15-1.97c-.14-1.79-.1-5.05-.1-5.39 0-.82-.51-1.1-.71-1.19l-1.08-.08c-.22-.03-.37-.09-.59-.17l-.2-.51-.88 .07 .17 3.16 1.3 .08c0.12 .09 .39 .32 .47 .78 .07 .32 .17 1.53 .2 2.11 .11 1.61 .01 2.58-.06 3.48m-8.72-.18h5.15c-.05-.7-.29-3.79-.34-4.73-.03-.83-.05-2.55-.05-3.16-.05-.36-.34-.85-.74-.85h-1.78l-.29-.75-1.03 .07 .34 3.23h1.63c0.18 .19 .29 .56 .32 .7 .22 .92 .29 1.46 .29 2.62 0 .17-.03 .24-.07 .31-.15 .07-.71 .15-1.58 .15h-1.67l-.18 2.41zm-2.25-2.01c0.18-.46 1.15-2.77 1.2-4.37 .02-.58-.03-.99-.1-1.41-.05-.27-.37-.94-.79-.95l-1.57-.05-.29-.7-1.03 .19 .12 3.06 .69 .05c0.71 .05 1.5 .14 1.5 .83 0 .65-.93 2.04-1.28 2.53l1.55 .82zm-5.62 2.19 1.63-.37-.15-1.97c-.13-1.79-.1-5.05-.1-5.39 0-.82-.51-1.1-.71-1.19l-1.08-.08c-.22-.03-.37-.09-.59-.17l-.2-.51-.88 .07 .17 3.16 1.3 .08c0.12 .09 .39 .32 .47 .78 .07 .32 .17 1.53 .2 2.11 .1 1.61 0 2.58-.06 3.48m-5.49 0 1.95-.46c-.1-.56-.25-2.06-.34-3.15-.17-2.06-.17-3.04-.17-3.5 0-.58-.5-1.36-1.08-1.82h-5.67c-.39 0-.54-.14-.64-.22l-.25-.54-.76 .15 .18 3.03c0.24 .09 .52 .14 .91 .14h0.49l-.56 1.33c-.1 .22-.13 .56-.12 .75l0.12 2.06-1.53 .12-.44 1.94h3.43c0.17-.97 .18-1.19 .18-1.51-.07-.39-.49-2.67-.49-3.21 0-.51 .27-1.04 .45-1.46h3.64l0.13 .2c0.42 .65 .62 2.16 .62 2.99 .03 1.28 .02 1.75-.05 3.16m-11.01-7.53h1.51l0.54-3.84h-2.05v3.84zm-2.79 0h1.53l0.52-3.84h-2.05v3.84z" />
 <path d="m232.16 205.19h6.23c0.61 0 .77-.17 .89-.48l0.77-2.16-.35-4.27c-.1-1.21-1.23-1.84-1.8-1.84h-3.3l-.49-.76-1.01 .17 .27 3.14h2.76c1.62 0 2.17 .61 2.41 2.14l0.08 .56c0.1 .66-.08 .85-.24 1.07h-5.76zm-2.88 .18 1.6-.42c-.05-.76-.15-2.6-.15-3.33v-3.01c0-.97-.62-2.16-1.67-2.16h-4.44l-.45-.76-.91 .12 .15 3.2h4.7c0.24 .12 .67 .31 .93 .9 .2 .48 .39 1.79 .39 2.67-.01 .75-.08 1.64-.15 2.79m-15.33-.18h6.23c0.61 0 .77-.17 .89-.48l0.77-2.16-.35-4.27c-.1-1.21-1.23-1.84-1.8-1.84h-3.3l-.49-.76-1.01 .17 .27 3.14h2.76c1.62 0 2.17 .61 2.41 2.14l0.08 .56c0.1 .66-.08 .85-.24 1.07h-5.76zm-2.26-2.01c0.18-.46 1.14-2.77 1.19-4.37 .02-.58-.03-.99-.1-1.41-.05-.27-.37-.93-.79-.95l-1.57-.05-.29-.7-1.03 .19 .12 3.06 .69 .05c0.71 .05 1.5 .14 1.5 .83 0 .65-.93 2.04-1.28 2.53zm-15.55 2.19 1.55-.8c-.15-.22-.29-.48-.35-.6-.09-.15-.88-1.41-.93-3.16l-.1-3.6c0-.29-.25-.76-.69-.76h-1.36c-.15 0-.49-.12-.51-.15l-.18-.61-.98 .12 .17 3.2h1.7c0.05 .03 .15 .12 .22 .39 .05 .26 .1 .51 .15 .99l0.15 1.31-.49 .63c-.13 .19-.45 .31-.69 .39-.32 .03-.66 .05-1.06 .05l-1.2 .02 .08 2.5 1.97-.12c0.1-.03 .13-.07 .17-.14l1.4-2.46c0.03 .22 .12 .58 .42 1.44 .15 .43 .34 .87 .56 1.36m-7.98 0 2-.46c-.08-.54-.4-2.75-.44-3.65-.02-.44-.07-1.77-.02-2.07l0.74-.31-.08-2.07c-.13-.12-.4-.36-1.35-.36h-4.49c-.57 0-.64-.09-.77-.15l-.34-.61-.77 .1 .27 3.21h5.05c0.05 .19 .25 .66 .25 3.37 0 1.3-.03 2.37-.05 3m-8.46 0 1.63-.37-.15-1.97c-.14-1.79-.1-5.05-.1-5.39 0-.82-.51-1.11-.71-1.19l-1.08-.09c-.22-.03-.37-.08-.59-.17l-.2-.51-.88 .07 .17 3.16 1.3 .08c0.12 .09 .39 .32 .47 .78 .07 .32 .17 1.53 .2 2.11 .1 1.62 0 2.59-.06 3.49m-8.35-.18h1.35c1.85-1.26 3.77-4.1 3.77-6.58 0-.9-.25-2.16-1.92-2.16h-3.08c-.64 0-1.03-.1-1.26-.15-.08-.1-.22-.27-.24-.61l-.05-1.12h0.52c0.3 0 .49-.07 .54-.1l-.18-1.82c-.02-.17-.13-.32-.39-.32h-.67c-.46 0-1.01 .07-1.18 .1l0.27 6.61c0.42-.02 1.2-.03 2.58-.03h2.07c0.44 0 1.38 .12 1.38 .97 0 .7-.66 1.87-1.5 2.46-.89 .63-1.8 .66-2.12 .7zm-5.32-2.01c0.19-.46 1.15-2.77 1.19-4.37 .02-.58-.03-.99-.1-1.41-.05-.27-.37-.93-.79-.95l-1.57-.05-.29-.7-1.03 .19 .12 3.06 .69 .05c0.71 .05 1.5 .14 1.5 .83 0 .65-.93 2.04-1.28 2.53zm-9.61-.41c-.47 0-.69-.12-.69-.63l0.03-3.09c0.37-.05 1.23-.07 2.1-.07 1.77 0 2.34 .27 2.49 1.73l0.2 1.7c0.02 .19-.1 .36-.34 .36zm-2.36 2.42h7.62c0.07 0 .3-.07 .3-.27l-.13-6.56c-.02-.88-.54-1.9-1.85-1.9h-5.03c-.07 0-.18-.07-.22-.15l-.27-.61-.98 .08 .2 3.2 1.21 .17v0.02l-.79 1.43zm-6.72 .08c0.1 0 .2-.02 .3-.09l0.42-2.79c-.25-.09-.79-.2-1.53-.75l-1.51-1.24 .82-1.41h1.97l-.18-1.78c-.05-.6-.37-.76-1.72-.76-.94 0-1.23 .1-1.58 .17l0.47 2.23c-.05 .19-.22 .61-.42 1.04-.45-.31-1.97-1.55-2.49-2.04-.62-.58-1.04-1.36-1.45-2.16-.17 0-.4 .07-.52 .14l-.27 2.97 .89 .66-.35 .76c-.08 .19-.13 .59-.08 1.05l0.18 1.5-1.38 .24-.47 2.18h3.6l0.3-1.8c-.2-.17-.42-.39-.61-.76-.15-.31-.51-1.05-.51-1.77 0-.48 .07-.56 .15-.8l4.38 3.79c0.94 .76 1.59 1.42 1.59 1.42m-14.86-.08h1.35c1.85-1.26 3.77-4.1 3.77-6.58 0-.9-.25-2.16-1.92-2.16h-3.08c-.64 0-1.03-.1-1.26-.15-.08-.1-.22-.27-.24-.61l-.05-1.12h0.52c0.3 0 .49-.07 .54-.1l-.18-1.82c-.02-.17-.14-.32-.39-.32h-.67c-.45 0-1.01 .07-1.18 .1l0.27 6.61c0.42-.02 1.19-.03 2.57-.03h2.07c0.44 0 1.38 .12 1.38 .97 0 .7-.66 1.87-1.5 2.46-.89 .63-1.8 .66-2.12 .7zm-4.61 .08c0.1 0 .2-.02 .3-.09l0.42-2.79c-.25-.09-.79-.2-1.53-.75l-1.51-1.24 .82-1.41h1.97l-.19-1.78c-.05-.6-.37-.76-1.72-.76-.94 0-1.23 .1-1.58 .17l0.47 2.23c-.05 .19-.22 .61-.42 1.04-.45-.31-1.97-1.55-2.49-2.04-.62-.58-1.04-1.36-1.45-2.16-.17 0-.4 .07-.52 .14l-.27 2.97 .89 .66-.35 .76c-.08 .19-.13 .59-.08 1.05l0.18 1.5-1.38 .24-.47 2.18h3.6l0.3-1.8c-.2-.17-.42-.39-.61-.76-.15-.31-.5-1.05-.5-1.77 0-.48 .07-.56 .15-.8l4.38 3.79c0.94 .76 1.59 1.42 1.59 1.42m-21.88 1.36s1.83-.61 2.61-.88c1.58-.56 2.74-1.19 2.74-1.19 .59-.27 .94-.92 1.09-1.63l0.81-3.65 .71-.31-.08-2.19c-.02-.32-.25-.32-.52-.32h-2.19c-.37 .02-.32 .29-.29 .58l0.15 1.82 1.21 .43-.84 2.55c-.17 .53-.49 .75-.81 .95-.19 .12-.44 .26-.76 .43l-1.22-3.02c-.17-.41-.19-.75-.2-.95l0.94-.32 .14-2.11c0.03-.26-.03-.37-.24-.37h-1.62c-.24 0-.32-.09-.39-.14l-.29-.63-.91 .17 .17 3.23 .69 .31 1.99 4.13-.56 .2c-1.31 .48-1.99 .56-2.46 .65zm-2.52-3.45c0.19-.46 1.14-2.77 1.19-4.37 .02-.58-.03-.99-.1-1.41-.05-.27-.37-.93-.79-.95l-1.57-.05-.29-.7-1.03 .19 .12 3.06 .7 .05c0.71 .05 1.5 .14 1.5 .83 0 .65-.93 2.04-1.28 2.53zm-5.05 0c0.18-.46 1.14-2.77 1.19-4.37 .02-.58-.03-.99-.1-1.41-.05-.27-.37-.93-.79-.95l-1.57-.05-.29-.7-1.03 .19 .12 3.06 .69 .05c0.71 .05 1.5 .14 1.5 .83 0 .65-.93 2.04-1.28 2.53zm-5.68 2.19 1.6-.42c-.05-.76-.15-2.6-.15-3.33v-3.01c0-.97-.62-2.16-1.67-2.16h-4.44l-.45-.76-.91 .12 .15 3.2h4.7c0.24 .12 .67 .31 .93 .9 .2 .48 .39 1.79 .39 2.67-.01 .75-.08 1.64-.15 2.79m-9.12 0 1.63-.37-.15-1.97c-.13-1.79-.1-5.05-.1-5.39 0-.82-.5-1.11-.71-1.19l-1.08-.09c-.22-.03-.37-.08-.59-.17l-.2-.51-.88 .07 .17 3.16 1.3 .08c0.12 .09 .39 .32 .47 .78 .07 .32 .17 1.53 .2 2.11 .11 1.62 .01 2.59-.06 3.49m-5.48 0 1.95-.46c-.1-.56-.25-2.06-.34-3.14-.17-2.06-.17-3.04-.17-3.5 0-.58-.51-1.36-1.08-1.82h-5.67c-.39 0-.54-.14-.64-.22l-.25-.54-.76 .15 .18 3.03c0.24 .08 .52 .14 .91 .14h0.49l-.56 1.33c-.1 .22-.14 .56-.12 .75l0.12 2.06-1.53 .12-.44 1.94h3.43c0.17-.97 .19-1.19 .19-1.51-.07-.39-.49-2.67-.49-3.21 0-.51 .27-1.04 .45-1.46h3.64l0.13 .2c0.42 .65 .62 2.16 .62 2.99 .02 1.27 0 1.74-.06 3.15m126.1 4.1 2.29-.48c-.12-.95-.35-2.29-.42-4.74l-.13-4.95 1.11-.34-.07-1.87c-.17-.42-.61-.63-.96-.63h-1.53c-.3 0-.66-.12-.84-.25l-.18-.51-1.06 .09 .15 3.23h0.83c0.54 0 .77 .15 1.01 .29l0.09 5.07c0.02 1.76-.1 3.32-.29 5.09" />
 <path d="m239.65 182.77c0.1 0 .2-.02 .3-.08l0.42-2.79c-.25-.09-.79-.2-1.53-.75l-1.51-1.24 .82-1.41h1.97l-.19-1.79c-.05-.6-.37-.76-1.72-.76-.94 0-1.23 .1-1.58 .17l0.47 2.23c-.05 .19-.22 .61-.42 1.04-.45-.31-1.97-1.55-2.49-2.04-.62-.58-1.04-1.36-1.45-2.16-.17 0-.4 .07-.52 .14l-.27 2.98 .89 .66-.35 .76c-.08 .19-.13 .6-.08 1.05l0.18 1.5-1.38 .24-.47 2.18h3.6l0.3-1.8c-.2-.17-.42-.39-.61-.76-.15-.31-.51-1.05-.51-1.77 0-.48 .07-.56 .15-.8l4.38 3.79c0.94 .75 1.6 1.41 1.6 1.41m-11.65 .1 1.63-.37-.15-1.97c-.13-1.79-.1-5.05-.1-5.39 0-.82-.5-1.1-.71-1.19l-1.08-.08c-.22-.03-.37-.09-.59-.17l-.2-.51-.88 .07 .17 3.16 1.29 .08c0.12 .09 .39 .32 .47 .78 .07 .32 .17 1.53 .2 2.11 .12 1.61 .02 2.58-.05 3.48m-5.48 0 1.95-.46c-.1-.56-.25-2.06-.34-3.15-.17-2.06-.17-3.04-.17-3.5 0-.58-.5-1.36-1.08-1.82h-5.67c-.39 0-.54-.14-.64-.22l-.25-.54-.76 .15 .18 3.03c0.24 .09 .52 .14 .91 .14h0.49l-.55 1.33c-.1 .22-.14 .56-.12 .75l0.12 2.06-1.53 .12-.44 1.94h3.43c0.17-.97 .18-1.19 .18-1.51-.07-.39-.49-2.67-.49-3.21 0-.51 .27-1.04 .45-1.46h3.64l0.13 .2c0.42 .65 .62 2.16 .62 2.99 .02 1.28 0 1.75-.06 3.16m-11.62 4.08 2.29-.48c-.12-.95-.35-2.29-.42-4.74l-.13-4.95 1.11-.34-.07-1.87c-.17-.42-.61-.63-.96-.63h-1.53c-.3 0-.66-.12-.84-.25l-.18-.51-1.06 .09 .15 3.23h0.83c0.54 0 .77 .15 1.01 .29l0.09 5.07c0.02 1.76-.1 3.32-.29 5.09m-12.1-4.26h1.35c1.85-1.26 3.77-4.1 3.77-6.58 0-.9-.25-2.16-1.92-2.16h-3.08c-.64 0-1.03-.1-1.26-.15-.08-.1-.22-.27-.24-.61l-.05-1.12h0.52c0.3 0 .49-.07 .54-.1l-.18-1.82c-.02-.17-.13-.32-.39-.32h-.67c-.45 0-1.01 .07-1.18 .1l0.27 6.61c0.42-.02 1.19-.03 2.57-.03h2.07c0.44 0 1.38 .12 1.38 .97 0 .7-.66 1.87-1.5 2.46-.89 .63-1.8 .66-2.12 .7zm-4.61 .08c0.1 0 .2-.02 .3-.08l0.42-2.79c-.25-.09-.79-.2-1.53-.75l-1.51-1.24 .82-1.41h1.97l-.18-1.79c-.05-.6-.37-.76-1.72-.76-.94 0-1.23 .1-1.58 .17l0.47 2.23c-.05 .19-.22 .61-.42 1.04-.45-.31-1.97-1.55-2.49-2.04-.62-.58-1.04-1.36-1.45-2.16-.17 0-.4 .07-.52 .14l-.27 2.98 .89 .66-.35 .76c-.08 .19-.13 .6-.08 1.05l0.18 1.5-1.38 .24-.47 2.18h3.6l0.3-1.8c-.2-.17-.42-.39-.61-.76-.15-.31-.5-1.05-.5-1.77 0-.48 .07-.56 .15-.8l4.38 3.79c0.92 .75 1.58 1.41 1.58 1.41m-20.67 .1c0.71-.07 1.16-.12 1.97-.27 2-.39 3.28-1.31 3.69-1.94 .34-.53 .96-1.31 .96-3.37 0-2.46-.37-3.47-1.23-3.43l-2.17 .08-.46 3.06h0.42c0.12-.31 .35-.51 .49-.51l0.98-.05c0.35 .61 .37 1.24 .37 1.65 0 .54-.02 1.09-.13 1.55-.24 .12-.62 .34-1.78 .56-.84 .15-1.36 .19-1.92 .24-.17-.24-.45-.56-.67-2.11-.12-.8-.13-1.33-.17-1.67l0.89-.17 .18-2.16c0.02-.17-.08-.39-.3-.39h-1.35c-.27 0-.39-.25-.47-.42l-.15-.32-.94 .15 .1 3.06 .77 .29c0 .29 .02 2.02 .22 3.42 .21 1.55 .49 2.21 .7 2.75m-4.58-2.19c0.18-.46 1.14-2.77 1.19-4.37 .02-.58-.03-.99-.1-1.41-.05-.27-.37-.94-.79-.95l-1.57-.05-.29-.7-1.03 .19 .12 3.06 .69 .05c0.71 .05 1.5 .14 1.5 .83 0 .65-.93 2.04-1.28 2.53zm-5.67 2.19 1.6-.43c-.05-.76-.15-2.6-.15-3.33v-3.01c0-.97-.62-2.16-1.67-2.16h-4.44l-.45-.76-.91 .12 .15 3.2h4.7c0.24 .12 .67 .31 .92 .9 .2 .48 .39 1.79 .39 2.67-.01 .76-.08 1.65-.14 2.8m-8.55-2.19c0.19-.46 1.15-2.77 1.2-4.37 .02-.58-.03-.99-.1-1.41-.05-.27-.37-.94-.79-.95l-1.57-.05-.29-.7-1.03 .19 .12 3.06 .69 .05c0.71 .05 1.5 .14 1.5 .83 0 .65-.93 2.04-1.28 2.53zm-6.62 6.27 2.29-.48c-.12-.95-.35-2.29-.42-4.74l-.13-4.95 1.11-.34-.07-1.87c-.17-.42-.61-.63-.96-.63h-1.53c-.3 0-.66-.12-.84-.25l-.18-.51-1.06 .09 .15 3.23h0.83c0.54 0 .77 .15 1.01 .29l0.09 5.07c0.02 1.76-.1 3.32-.29 5.09m-14.37 0 1.84-.43c-.15-.8-.57-3.08-.57-5.64 0-.99 .05-1.58 .07-2.18l-1.53 .1c0.05 .49 .1 1.09 .13 2.19 .02 1.32 .04 3.53 .06 5.96m2.71-4.26h1.04c1.99-1.34 3.37-3.23 3.37-5.68v-.99c0-.88-.29-2.07-1.67-2.07h-3.92c-.42 0-.67-.07-.91-.14l-.27-.63-1.08 .1 .27 3.3c0.34-.02 1.7-.09 2.61-.09h1.83c0.81 0 1.65 .41 1.65 1.14 0 1.33-.82 1.92-2 2.46-.34 .15-.71 .27-.98 .34zm-11.94 .18c0.71-.07 1.16-.12 1.97-.27 2-.39 3.28-1.31 3.69-1.94 .34-.53 .96-1.31 .96-3.37 0-2.46-.37-3.47-1.23-3.43l-2.17 .08-.45 3.06h0.42c0.12-.31 .35-.51 .49-.51l0.98-.05c0.35 .61 .37 1.24 .37 1.65 0 .54-.02 1.09-.13 1.55-.24 .12-.62 .34-1.78 .56-.84 .15-1.36 .19-1.92 .24-.17-.24-.45-.56-.67-2.11-.12-.8-.14-1.33-.17-1.67l0.89-.17 .19-2.16c0.02-.17-.08-.39-.3-.39h-1.35c-.27 0-.39-.25-.47-.42l-.15-.32-.94 .15 .1 3.06 .77 .29c0 .29 .02 2.02 .22 3.42 .2 1.55 .48 2.21 .68 2.75m-8.73-.18h5.15c-.05-.7-.29-3.79-.34-4.73-.03-.83-.05-2.55-.05-3.16-.05-.36-.34-.85-.74-.85h-1.78l-.29-.75-1.03 .07 .34 3.23h1.63c0.18 .19 .29 .56 .32 .7 .22 .92 .29 1.46 .29 2.62 0 .17-.03 .24-.07 .31-.15 .07-.71 .15-1.58 .15h-1.67zm-2.26-2.01c0.19-.46 1.15-2.77 1.19-4.37 .02-.58-.03-.99-.1-1.41-.05-.27-.37-.94-.79-.95l-1.57-.05-.29-.7-1.03 .19 .12 3.06 .69 .05c0.71 .05 1.5 .14 1.5 .83 0 .65-.93 2.04-1.28 2.53zm-9.61-.41c-.47 0-.69-.12-.69-.63l0.03-3.09c0.37-.05 1.23-.07 2.1-.07 1.77 0 2.34 .27 2.49 1.73l0.2 1.7c0.02 .19-.1 .36-.34 .36zm-2.35 2.42h7.62c0.07 0 .3-.07 .3-.27l-.13-6.56c-.02-.88-.54-1.9-1.85-1.9h-5.03c-.07 0-.18-.07-.22-.15l-.27-.61-.98 .09 .2 3.2 1.21 .17v0.02l-.79 1.43zm-8 .18 1.63-.37-.15-1.97c-.13-1.79-.1-5.05-.1-5.39 0-.82-.5-1.1-.71-1.19l-1.08-.08c-.22-.03-.37-.09-.59-.17l-.2-.51-.88 .07 .17 3.16 1.3 .08c0.12 .09 .39 .32 .47 .78 .07 .32 .17 1.53 .2 2.11 .11 1.61 .01 2.58-.06 3.48m-8.35-.18h1.35c1.85-1.26 3.77-4.1 3.77-6.58 0-.9-.25-2.16-1.92-2.16h-3.08c-.64 0-1.03-.1-1.26-.15-.08-.1-.22-.27-.24-.61l-.05-1.12h0.52c0.3 0 .49-.07 .54-.1l-.18-1.82c-.02-.17-.14-.32-.39-.32h-.67c-.46 0-1.01 .07-1.18 .1l0.27 6.61c0.42-.02 1.19-.03 2.57-.03h2.07c0.44 0 1.38 .12 1.38 .97 0 .7-.66 1.87-1.5 2.46-.89 .63-1.8 .66-2.12 .7zm-4.61 .08c0.1 0 .2-.02 .3-.08l0.42-2.79c-.25-.09-.79-.2-1.53-.75l-1.51-1.24 .83-1.41h1.97l-.18-1.79c-.05-.6-.37-.76-1.72-.76-.94 0-1.23 .1-1.58 .17l0.47 2.23c-.05 .19-.22 .61-.42 1.04-.45-.31-1.97-1.55-2.49-2.04-.62-.58-1.04-1.36-1.45-2.16-.17 0-.4 .07-.52 .14l-.27 2.98 .89 .66-.35 .76c-.08 .19-.13 .6-.08 1.05l0.19 1.5-1.38 .24-.47 2.18h3.6l0.3-1.8c-.2-.17-.42-.39-.61-.76-.15-.31-.5-1.05-.5-1.77 0-.48 .07-.56 .15-.8l4.38 3.79c0.91 .75 1.56 1.41 1.56 1.41" />
 <path d="m237.98 152.84h1.51l0.54-3.84h-2.05v3.84zm-2.79 0h1.53l0.52-3.84h-2.05v3.84zm-9.56 8.79s1.83-.61 2.61-.88c1.58-.56 2.74-1.19 2.74-1.19 .59-.27 .94-.92 1.09-1.63l0.81-3.65 .71-.31-.08-2.19c-.02-.32-.25-.32-.52-.32h-2.19c-.37 .02-.32 .29-.29 .58l0.15 1.82 1.21 .42-.84 2.55c-.17 .53-.49 .75-.81 .95-.18 .12-.44 .26-.76 .43l-1.23-2.99c-.17-.41-.18-.75-.2-.95l0.94-.32 .13-2.11c0.03-.26-.03-.37-.24-.37h-1.62c-.24 0-.32-.09-.39-.14l-.29-.63-.91 .17 .17 3.23 .69 .31 1.99 4.13-.55 .2c-1.31 .48-1.99 .56-2.46 .65l0.14 2.24zm-3.15-1.26 1.6-.42c-.05-.77-.15-2.6-.15-3.33v-3.01c0-.97-.62-2.16-1.67-2.16h-4.44l-.46-.77-.91 .12 .15 3.2h4.69c0.24 .12 .67 .31 .93 .9 .2 .48 .39 1.79 .39 2.67 .01 .76-.06 1.65-.13 2.8m-8.55-2.19c0.18-.46 1.14-2.77 1.19-4.37 .02-.58-.03-.99-.1-1.41-.05-.27-.37-.93-.79-.95l-1.57-.05-.29-.7-1.03 .19 .12 3.06 .69 .05c0.71 .05 1.5 .14 1.5 .83 0 .65-.93 2.04-1.28 2.53l1.56 .82zm-9.61-.41c-.47 0-.69-.12-.69-.63l0.03-3.09c0.37-.05 1.23-.07 2.1-.07 1.77 0 2.34 .27 2.49 1.73l0.2 1.7c0.02 .19-.1 .36-.34 .36h-3.79zm-2.35 2.42h7.62c0.07 0 .3-.07 .3-.27l-.14-6.56c-.02-.88-.54-1.9-1.85-1.9h-5.03c-.07 0-.18-.07-.22-.15l-.27-.61-.98 .08 .2 3.2 1.21 .17v0.02l-.79 1.43-.05 4.59zm-14.72 .18 1.78-.41c-.03-.63-.07-1.8-.07-2.3 0-.56 .03-1.46 .08-2.26l-1.53 .42c0 .53-.03 1.26-.08 2.28-.03 .73-.11 1.52-.18 2.27m6.35 0 1.85-.49c-.05-.27-.44-2.01-.52-3.96-.03-.63-.03-1.1-.03-1.6l0.96-.42-.08-2.11c-.22-.22-.47-.34-.82-.34h-6.02c-.37 0-.54-.05-.81-.12l-.24-.63-.93 .12 .29 3.18h4.98c0.61 0 .81 .08 1.16 .22 .05 .26 .25 1.51 .24 3.35l-.03 2.8zm-13.26-.18h1.35c1.85-1.26 3.77-4.1 3.77-6.58 0-.9-.25-2.16-1.92-2.16h-3.08c-.64 0-1.03-.1-1.26-.15-.08-.1-.22-.27-.24-.61l-.05-1.12h0.52c0.3 0 .49-.07 .54-.1l-.18-1.82c-.02-.17-.13-.32-.39-.32h-.67c-.45 0-1.01 .07-1.18 .1l0.27 6.61c0.42-.02 1.19-.03 2.57-.03h2.07c0.44 0 1.38 .12 1.38 .97 0 .7-.66 1.87-1.5 2.46-.89 .63-1.8 .66-2.12 .7l0.12 2.05zm-9.11 0h1.35c1.85-1.26 3.77-4.1 3.77-6.58 0-.9-.25-2.16-1.92-2.16h-3.08c-.64 0-1.03-.1-1.26-.15-.08-.1-.22-.27-.24-.61l-.05-1.12h0.52c0.3 0 .49-.07 .54-.1l-.19-1.82c-.02-.17-.13-.32-.39-.32h-.67c-.45 0-1.01 .07-1.18 .1l0.27 6.61c0.42-.02 1.2-.03 2.58-.03h2.07c0.44 0 1.38 .12 1.38 .97 0 .7-.66 1.87-1.5 2.46-.89 .63-1.8 .66-2.12 .7l0.12 2.05zm-5.89 .18 1.63-.37-.15-1.97c-.14-1.79-.1-5.05-.1-5.39 0-.82-.5-1.11-.71-1.19l-1.08-.09c-.22-.03-.37-.08-.59-.17l-.2-.51-.88 .07 .17 3.16 1.3 .08c0.12 .08 .39 .32 .47 .78 .07 .32 .17 1.53 .2 2.11 .11 1.62 .01 2.59-.06 3.49m-8.01-.1c0.1 0 .2-.02 .3-.09l0.42-2.79c-.25-.08-.79-.2-1.53-.75l-1.51-1.24 .82-1.41h1.97l-.19-1.79c-.05-.6-.37-.76-1.72-.76-.94 0-1.23 .1-1.58 .17l0.47 2.23c-.05 .19-.22 .61-.42 1.04-.45-.31-1.97-1.55-2.49-2.04-.62-.58-1.04-1.36-1.45-2.16-.17 0-.4 .07-.52 .14l-.27 2.97 .89 .66-.35 .76c-.09 .19-.14 .6-.09 1.05l0.19 1.5-1.38 .24-.47 2.18h3.6l0.3-1.8c-.2-.17-.42-.39-.61-.77-.15-.31-.5-1.05-.5-1.77 0-.48 .07-.56 .15-.8l4.38 3.79c0.93 .78 1.59 1.44 1.59 1.44m-11.08-2.09c0.19-.46 1.15-2.77 1.2-4.37 .02-.58-.03-.99-.1-1.41-.05-.27-.37-.93-.79-.95l-1.57-.05-.29-.7-1.03 .19 .12 3.06 .69 .05c0.71 .05 1.5 .14 1.5 .83 0 .65-.93 2.04-1.28 2.53l1.55 .82zm-6.61 6.27 2.29-.48c-.12-.95-.35-2.3-.42-4.74l-.13-4.95 1.11-.34-.07-1.87c-.17-.43-.61-.63-.96-.63h-1.53c-.3 0-.66-.12-.84-.26l-.18-.51-1.06 .08 .15 3.23h0.83c0.54 0 .77 .15 1.01 .29l0.08 5.07c0.02 1.78-.1 3.34-.28 5.11m-14.97-2.82s1.83-.61 2.61-.88c1.58-.56 2.74-1.19 2.74-1.19 .59-.27 .94-.92 1.09-1.63l0.81-3.65 .71-.31-.08-2.19c-.02-.32-.25-.32-.52-.32h-2.19c-.37 .02-.32 .29-.29 .58l0.15 1.82 1.21 .42-.84 2.55c-.17 .53-.49 .75-.81 .95-.18 .12-.44 .26-.76 .43l-1.23-2.99c-.17-.41-.18-.75-.2-.95l0.94-.32 .13-2.11c0.03-.26-.03-.37-.23-.37h-1.62c-.24 0-.32-.09-.39-.14l-.29-.63-.91 .17 .17 3.23 .69 .31 1.99 4.13-.56 .2c-1.31 .48-1.99 .56-2.46 .65l0.14 2.24zm-3.09-1.26 1.63-.37-.15-1.97c-.13-1.79-.1-5.05-.1-5.39 0-.82-.5-1.11-.71-1.19l-1.08-.09c-.22-.03-.37-.08-.59-.17l-.2-.51-.88 .07 .17 3.16 1.3 .08c0.12 .08 .39 .32 .47 .78 .07 .32 .17 1.53 .2 2.11 .1 1.62 0 2.59-.06 3.49m-12.32 0 3.91-.37c2.25-.22 3.1-1.55 3.23-1.79 .46-.8 .88-2.16 1.15-3.3l0.18-.8 .64-.24 .14-2.12c0.03-.26-.15-.31-.34-.31h-2.34c-.27 0-.25 .25-.25 .32l0.17 2.06 .81 .27-.18 .68c-.14 .51-.46 1.38-.72 1.9-.61 1.16-1.89 1.09-2.91 1.19l-.54 .05 1.18-3.65 1.26-.49-.22-1.94c-.02-.19-.15-.39-.45-.39h-2.07c-.19 0-.24 .05-.22 .22l0.18 1.9c0.02 .2 0 .51-.02 .65l-.71 3.81-.69 .05c-.25-.22-.47-.9-.66-2.35l-.18-1.51 1.13-.24-.2-2.33c-.02-.19-.1-.2-.22-.2h-1.35c-.25 0-.34-.07-.42-.14l-.27-.63-.88 .1 .12 3.2 .88 .32 .25 2.58c0.1 1.41 .37 2.45 .61 3.5m-4.51-2.19c0.18-.46 1.14-2.77 1.19-4.37 .02-.58-.03-.99-.1-1.41-.05-.27-.37-.93-.79-.95l-1.57-.05-.29-.7-1.03 .19 .12 3.06 .69 .05c0.71 .05 1.5 .14 1.5 .83 0 .65-.93 2.04-1.28 2.53l1.56 .82zm-6.62 6.27 2.29-.48c-.12-.95-.35-2.3-.42-4.74l-.14-4.95 1.11-.34-.07-1.87c-.17-.43-.61-.63-.96-.63h-1.53c-.3 0-.66-.12-.84-.26l-.19-.51-1.06 .08 .15 3.23h0.82c0.54 0 .78 .15 1.01 .29l0.08 5.07c0.05 1.78-.06 3.34-.25 5.11" />
</svg>
