<?xml version="1.0" encoding="utf-8"?>
<svg version="1.1" id="Layer_1" xmlns="http://www.w3.org/2000/svg" xmlns:xlink="http://www.w3.org/1999/xlink" x="0px" y="0px"
	 viewBox="0 0 297.64 420.94" style="enable-background:new 0 0 297.64 420.94;" xml:space="preserve">
<style type="text/css">
	.st0{clip-path:url(#SVGID_00000098185230556466941910000004657350524845626257_);fill:#FFFFFF;}
	.st1{clip-path:url(#SVGID_00000098185230556466941910000004657350524845626257_);}
	.st2{opacity:0.95;clip-path:url(#SVGID_00000014636016606436907930000012174877691982649510_);}
	.st3{clip-path:url(#SVGID_00000134232681680162243000000005048900887901905817_);fill:#231F20;}
	.st4{clip-path:url(#SVGID_00000125585742974156328070000003768871913807306160_);fill:#231F20;}
	.st5{clip-path:url(#SVGID_00000157270672523200009450000005669730949037242786_);fill:#231F20;}
	.st6{clip-path:url(#SVGID_00000106855897899774110710000009682388110988734909_);fill:#231F20;}
	.st7{clip-path:url(#SVGID_00000044148890757601019120000010649768156690146226_);fill:#231F20;}
</style>
<g>
	<defs>
		<rect id="SVGID_1_" x="0" y="0" width="297.64" height="420.95"/>
	</defs>
	<clipPath id="SVGID_00000052826704848892189920000003056143831794719130_">
		<use xlink:href="#SVGID_1_"  style="overflow:visible;"/>
	</clipPath>
	
		<rect x="0" y="0" style="clip-path:url(#SVGID_00000052826704848892189920000003056143831794719130_);fill:#FFFFFF;" width="297.64" height="420.95"/>
	<g style="clip-path:url(#SVGID_00000052826704848892189920000003056143831794719130_);">
		<defs>
			<rect id="SVGID_00000007425384210121341400000013439199956477409709_" x="0" y="0" width="297.64" height="420.95"/>
		</defs>
		<clipPath id="SVGID_00000017483551804023192790000010070671578295719581_">
			<use xlink:href="#SVGID_00000007425384210121341400000013439199956477409709_"  style="overflow:visible;"/>
		</clipPath>
		<g style="opacity:0.95;clip-path:url(#SVGID_00000017483551804023192790000010070671578295719581_);">
			<g>
				<defs>
					<rect id="SVGID_00000141423561260499708990000000781607313571005861_" x="172.78" y="248.34" width="76.76" height="14.75"/>
				</defs>
				<clipPath id="SVGID_00000093868992481296291170000004938992344413231024_">
					<use xlink:href="#SVGID_00000141423561260499708990000000781607313571005861_"  style="overflow:visible;"/>
				</clipPath>
				<path style="clip-path:url(#SVGID_00000093868992481296291170000004938992344413231024_);fill:#231F20;" d="M240.54,260.82
					v-4.48c0-0.12-0.02-0.24-0.08-0.36c-0.05-0.12-0.12-0.23-0.2-0.32s-0.17-0.17-0.27-0.23c-0.1-0.06-0.21-0.09-0.31-0.09
					c-0.07,0-0.13,0.02-0.18,0.07c-0.05,0.05-0.07,0.11-0.07,0.18c0,0.1,0.04,0.17,0.12,0.22c0.09,0.06,0.18,0.15,0.26,0.26
					c0.09,0.11,0.13,0.24,0.13,0.4v4.2c0,0.15-0.04,0.29-0.13,0.4c-0.08,0.11-0.17,0.2-0.26,0.26c-0.08,0.06-0.12,0.14-0.12,0.22
					c0,0.08,0.02,0.14,0.07,0.18c0.05,0.05,0.11,0.07,0.18,0.07c0.11,0,0.21-0.03,0.31-0.09c0.1-0.06,0.19-0.14,0.27-0.23
					s0.15-0.2,0.2-0.32C240.52,261.06,240.54,260.94,240.54,260.82 M238.24,259.94v-2.42c0-0.18-0.04-0.35-0.12-0.51
					c-0.08-0.16-0.19-0.3-0.32-0.42s-0.29-0.21-0.47-0.28s-0.36-0.1-0.56-0.1c-0.26,0-0.49,0.04-0.69,0.11
					c-0.2,0.08-0.4,0.22-0.62,0.43v-0.18c0-0.09-0.03-0.16-0.08-0.21c-0.05-0.05-0.12-0.08-0.22-0.08h-0.68
					c-0.07,0-0.11,0.04-0.11,0.1v0.39c0,0.08,0.04,0.11,0.11,0.11h0.4v3.92c0,0.07,0.03,0.1,0.1,0.1h0.4c0.07,0,0.1-0.04,0.1-0.1
					v-2.89c0-0.15,0.03-0.3,0.09-0.44c0.06-0.14,0.14-0.26,0.24-0.36c0.1-0.1,0.23-0.19,0.36-0.24c0.14-0.06,0.29-0.09,0.44-0.09
					c0.3,0,0.54,0.08,0.72,0.23c0.18,0.15,0.27,0.34,0.27,0.56v2.35c0,0.11-0.04,0.2-0.11,0.27c-0.07,0.07-0.16,0.11-0.27,0.11
					h-0.78c-0.07,0-0.11,0.04-0.11,0.1v0.4c0,0.07,0.04,0.1,0.11,0.1h0.78c0.14,0,0.27-0.02,0.39-0.08
					c0.12-0.05,0.23-0.12,0.32-0.21c0.09-0.09,0.16-0.19,0.22-0.31C238.21,260.21,238.24,260.08,238.24,259.94 M232.75,259.38
					c0,0.14-0.03,0.28-0.08,0.4c-0.05,0.12-0.13,0.24-0.22,0.33c-0.1,0.1-0.21,0.17-0.33,0.22c-0.12,0.05-0.26,0.08-0.4,0.08
					s-0.28-0.03-0.4-0.08c-0.12-0.05-0.24-0.13-0.33-0.22c-0.09-0.1-0.17-0.21-0.22-0.33s-0.08-0.26-0.08-0.4v-2.48h2.07V259.38z
					 M233.38,256.58c0-0.09-0.03-0.16-0.08-0.21s-0.13-0.08-0.22-0.08h-3.44c-0.04,0-0.07,0.01-0.09,0.03s-0.03,0.05-0.03,0.07v0.39
					c0,0.03,0.01,0.05,0.03,0.08c0.02,0.02,0.05,0.04,0.09,0.04h0.42v2.46c0,0.23,0.04,0.44,0.13,0.64c0.09,0.2,0.21,0.38,0.36,0.52
					c0.15,0.15,0.32,0.27,0.52,0.36s0.41,0.13,0.64,0.13s0.45-0.04,0.65-0.13c0.2-0.09,0.38-0.21,0.53-0.36
					c0.15-0.15,0.27-0.32,0.36-0.52c0.09-0.2,0.13-0.41,0.13-0.64V256.58z M228.55,259.94v-3.36c0-0.09-0.03-0.16-0.08-0.21
					c-0.05-0.05-0.12-0.08-0.22-0.08h-2.74c-0.07,0-0.11,0.04-0.11,0.1v0.39c0,0.08,0.04,0.11,0.11,0.11h2.41v3.04
					c0,0.11-0.04,0.2-0.12,0.27s-0.17,0.11-0.28,0.11h-2.02c-0.07,0-0.11,0.04-0.11,0.11v0.39c0,0.07,0.04,0.1,0.11,0.1h2.02
					c0.14,0,0.27-0.02,0.39-0.08c0.12-0.05,0.23-0.12,0.32-0.21s0.17-0.2,0.22-0.31C228.53,260.21,228.55,260.08,228.55,259.94
					 M224.33,256.58c0-0.09-0.03-0.16-0.08-0.21c-0.05-0.05-0.12-0.08-0.22-0.08h-3.45c-0.07,0-0.11,0.04-0.11,0.1v0.39
					c0,0.08,0.04,0.11,0.11,0.11h0.57v3.42h-0.62c-0.07,0-0.1,0.04-0.1,0.11v0.39c0,0.07,0.04,0.1,0.1,0.1h0.95
					c0.09,0,0.16-0.03,0.21-0.08c0.05-0.05,0.08-0.12,0.08-0.22v-3.73h1.94v3.92c0,0.07,0.04,0.1,0.11,0.1h0.4
					c0.07,0,0.1-0.04,0.1-0.1V256.58z M216.98,259.94v-2.42c0-0.18-0.04-0.35-0.12-0.51c-0.08-0.16-0.19-0.3-0.32-0.42
					s-0.29-0.21-0.47-0.28c-0.18-0.07-0.36-0.1-0.56-0.1c-0.26,0-0.49,0.04-0.69,0.11c-0.2,0.08-0.4,0.22-0.62,0.43v-0.18
					c0-0.09-0.03-0.16-0.08-0.21c-0.05-0.05-0.12-0.08-0.22-0.08h-0.68c-0.07,0-0.11,0.04-0.11,0.1v0.39c0,0.08,0.04,0.11,0.11,0.11
					h0.4v3.92c0,0.07,0.04,0.1,0.1,0.1h0.4c0.07,0,0.1-0.04,0.1-0.1v-2.89c0-0.15,0.03-0.3,0.09-0.44c0.06-0.14,0.14-0.26,0.24-0.36
					c0.1-0.1,0.23-0.19,0.36-0.24c0.14-0.06,0.29-0.09,0.44-0.09c0.3,0,0.55,0.08,0.72,0.23c0.18,0.15,0.27,0.34,0.27,0.56v2.35
					c0,0.11-0.04,0.2-0.11,0.27c-0.07,0.07-0.17,0.11-0.27,0.11h-0.78c-0.07,0-0.11,0.04-0.11,0.1v0.4c0,0.07,0.04,0.1,0.11,0.1
					h0.78c0.14,0,0.27-0.02,0.39-0.08c0.12-0.05,0.23-0.12,0.32-0.21c0.09-0.09,0.16-0.19,0.22-0.31
					C216.95,260.21,216.98,260.08,216.98,259.94 M212.12,259.94v-3.36c0-0.09-0.03-0.16-0.08-0.21c-0.05-0.05-0.12-0.08-0.22-0.08
					h-2.74c-0.07,0-0.11,0.04-0.11,0.1v0.39c0,0.08,0.04,0.11,0.11,0.11h2.41v3.04c0,0.11-0.04,0.2-0.12,0.27
					c-0.08,0.07-0.17,0.11-0.28,0.11h-2.02c-0.07,0-0.11,0.04-0.11,0.11v0.39c0,0.07,0.04,0.1,0.11,0.1h2.02
					c0.14,0,0.27-0.02,0.39-0.08c0.12-0.05,0.23-0.12,0.32-0.21c0.09-0.09,0.17-0.2,0.22-0.31
					C212.09,260.21,212.12,260.08,212.12,259.94 M208.01,260.82v-4.24c0-0.09-0.03-0.16-0.08-0.21s-0.13-0.08-0.22-0.08h-0.82
					c-0.03,0-0.06,0.01-0.08,0.03c-0.02,0.02-0.04,0.05-0.04,0.07v0.39c0,0.03,0.01,0.06,0.04,0.08c0.02,0.02,0.05,0.03,0.08,0.03
					h0.5v3.92c0,0.03,0.01,0.06,0.04,0.08c0.02,0.02,0.05,0.03,0.08,0.03h0.38c0.03,0,0.06-0.01,0.08-0.03
					C208,260.88,208.01,260.86,208.01,260.82 M205.77,256.58c0-0.09-0.03-0.16-0.08-0.21c-0.05-0.05-0.13-0.08-0.22-0.08h-3.45
					c-0.07,0-0.11,0.04-0.11,0.1v0.39c0,0.08,0.04,0.11,0.11,0.11h0.57v3.42h-0.62c-0.07,0-0.1,0.04-0.1,0.11v0.39
					c0,0.07,0.03,0.1,0.1,0.1h0.95c0.09,0,0.16-0.03,0.21-0.08c0.05-0.05,0.08-0.12,0.08-0.22v-3.73h1.94v3.92
					c0,0.07,0.04,0.1,0.11,0.1h0.4c0.07,0,0.1-0.04,0.1-0.1V256.58z M200.81,260.5c0.02-0.05,0.02-0.09-0.01-0.12
					c-0.03-0.04-0.06-0.05-0.11-0.05h-0.43c-0.04,0-0.08,0.02-0.11,0.05c-0.03,0.03-0.05,0.07-0.06,0.11l-0.3,1.52
					c0,0.06,0.03,0.09,0.09,0.09h0.22c0.06,0,0.11-0.03,0.13-0.08L200.81,260.5z M196.4,258.24v-1.66c0-0.09-0.03-0.16-0.08-0.21
					s-0.13-0.08-0.22-0.08h-0.98c-0.03,0-0.06,0.01-0.08,0.03s-0.04,0.05-0.04,0.07v0.39c0,0.03,0.01,0.06,0.04,0.08
					s0.05,0.03,0.08,0.03h0.66v1.34c0,0.03,0.01,0.05,0.04,0.07s0.05,0.03,0.08,0.03h0.38c0.03,0,0.06-0.01,0.08-0.03
					S196.4,258.27,196.4,258.24 M194.24,256.47c0.02-0.05,0.01-0.1-0.01-0.13c-0.02-0.03-0.06-0.05-0.11-0.05h-0.43
					c-0.1,0-0.16,0.05-0.17,0.16l-0.3,1.91c0,0.06,0.03,0.09,0.09,0.09h0.22c0.07,0,0.11-0.02,0.13-0.07L194.24,256.47z
					 M192.28,260.5c0.02-0.05,0.02-0.09-0.01-0.12c-0.03-0.04-0.06-0.05-0.11-0.05h-0.43c-0.04,0-0.08,0.02-0.11,0.05
					c-0.03,0.03-0.05,0.07-0.06,0.11l-0.3,1.52c0,0.06,0.03,0.09,0.09,0.09h0.22c0.06,0,0.11-0.03,0.13-0.08L192.28,260.5z
					 M187.85,257.71v-1.12c0-0.09-0.03-0.16-0.08-0.22c-0.05-0.05-0.12-0.08-0.22-0.08h-0.98c-0.07,0-0.1,0.04-0.1,0.1v0.4
					c0,0.07,0.04,0.1,0.1,0.1h0.65v0.85c0,0.25-0.09,0.44-0.27,0.58s-0.42,0.21-0.7,0.24l-1.54-2.26c-0.03-0.04-0.07-0.07-0.12-0.08
					c-0.05-0.01-0.1,0-0.14,0.03l-0.19,0.13c-0.05,0.03-0.08,0.07-0.09,0.12c-0.01,0.05,0,0.1,0.02,0.14l0.7,1.02l-0.15,0.11
					c-0.26,0.19-0.42,0.39-0.5,0.62c-0.07,0.23-0.11,0.48-0.11,0.76v1.47c0,0.09,0.03,0.16,0.08,0.21c0.06,0.05,0.13,0.08,0.22,0.08
					h0.94c0.08,0,0.11-0.04,0.11-0.1v-0.39c0-0.08-0.04-0.11-0.11-0.11h-0.63v-1.2c0-0.23,0.03-0.41,0.1-0.56
					c0.06-0.14,0.2-0.27,0.39-0.4l1.86,2.7c0.03,0.04,0.08,0.07,0.13,0.08s0.11,0,0.16-0.03l0.18-0.12
					c0.04-0.03,0.07-0.07,0.08-0.12c0.01-0.05,0.01-0.1-0.02-0.14l-0.99-1.45c0.2-0.03,0.37-0.09,0.53-0.18
					c0.15-0.09,0.28-0.19,0.39-0.31c0.1-0.12,0.18-0.26,0.24-0.41C187.83,258.04,187.85,257.88,187.85,257.71 M182.77,261.41
					c-0.09-0.06-0.18-0.15-0.27-0.26s-0.13-0.24-0.13-0.4v-4.28c0-0.15,0.04-0.29,0.13-0.4c0.09-0.11,0.18-0.2,0.27-0.26
					c0.08-0.05,0.12-0.13,0.12-0.22c0-0.07-0.02-0.14-0.07-0.18c-0.05-0.05-0.11-0.07-0.18-0.07c-0.11,0-0.21,0.03-0.31,0.09
					s-0.19,0.13-0.27,0.23s-0.15,0.2-0.2,0.32c-0.05,0.12-0.08,0.24-0.08,0.36v4.56c0,0.12,0.02,0.24,0.08,0.36
					c0.05,0.12,0.12,0.22,0.2,0.32c0.08,0.09,0.17,0.17,0.27,0.23c0.1,0.06,0.21,0.09,0.31,0.09c0.07,0,0.13-0.02,0.18-0.07
					c0.05-0.05,0.07-0.11,0.07-0.18C182.89,261.55,182.85,261.47,182.77,261.41"/>
			</g>
		</g>
		<g style="opacity:0.95;clip-path:url(#SVGID_00000017483551804023192790000010070671578295719581_);">
			<g>
				<defs>
					<rect id="SVGID_00000176035433486286257850000004810124598351824306_" x="172.84" y="209.5" width="76.48" height="19.37"/>
				</defs>
				<clipPath id="SVGID_00000021819764285070014240000001630450423693036430_">
					<use xlink:href="#SVGID_00000176035433486286257850000004810124598351824306_"  style="overflow:visible;"/>
				</clipPath>
				<path style="clip-path:url(#SVGID_00000021819764285070014240000001630450423693036430_);fill:#231F20;" d="M232.26,227.77
					c0,0,1.78-0.08,2.99-0.08h4.93l0.13-2.41l-0.42-0.14c-0.47-0.15-0.44-0.93-0.45-1.21l-0.19-2.86c-0.1-1.56-0.84-2.12-2.24-2.12
					h-2.93c-0.35,0-0.51-0.12-0.61-0.36l-0.18-0.41l-0.84,0.19l0.13,3.13h3.25c0.98,0,1.36,0.2,1.65,0.48
					c0.22,0.56,0.45,1.12,0.56,2.16c0.05,0.54,0.05,0.7,0.05,0.94c-0.32,0.08-1.09,0.2-1.75,0.2h-3.84L232.26,227.77z
					 M229.75,225.68c0.18-0.46,1.14-2.77,1.19-4.37c0.02-0.58-0.03-0.99-0.1-1.41c-0.05-0.27-0.37-0.94-0.79-0.95l-1.57-0.05
					l-0.29-0.7l-1.03,0.19l0.12,3.06l0.69,0.05c0.71,0.05,1.5,0.14,1.5,0.83c0,0.65-0.93,2.04-1.28,2.53L229.75,225.68z
					 M220.55,227.69h5.15c-0.05-0.7-0.29-3.79-0.34-4.73c-0.03-0.83-0.05-2.55-0.05-3.16c-0.05-0.36-0.34-0.85-0.74-0.85h-1.78
					l-0.29-0.75l-1.03,0.07l0.34,3.23h1.63c0.18,0.19,0.29,0.56,0.32,0.7c0.22,0.92,0.29,1.46,0.29,2.62c0,0.17-0.03,0.24-0.07,0.31
					c-0.15,0.07-0.71,0.15-1.58,0.15h-1.67L220.55,227.69z M217.72,227.87l1.63-0.37l-0.15-1.97c-0.14-1.79-0.1-5.05-0.1-5.39
					c0-0.82-0.51-1.1-0.71-1.19l-1.08-0.08c-0.22-0.03-0.37-0.09-0.59-0.17l-0.2-0.51l-0.88,0.07l0.17,3.16l1.3,0.08
					c0.12,0.09,0.39,0.32,0.47,0.78c0.07,0.32,0.17,1.53,0.2,2.11C217.89,226,217.79,226.97,217.72,227.87 M209,227.69h5.15
					c-0.05-0.7-0.29-3.79-0.34-4.73c-0.03-0.83-0.05-2.55-0.05-3.16c-0.05-0.36-0.34-0.85-0.74-0.85h-1.78l-0.29-0.75l-1.03,0.07
					l0.34,3.23h1.63c0.18,0.19,0.29,0.56,0.32,0.7c0.22,0.92,0.29,1.46,0.29,2.62c0,0.17-0.03,0.24-0.07,0.31
					c-0.15,0.07-0.71,0.15-1.58,0.15h-1.67L209,227.69z M206.75,225.68c0.18-0.46,1.15-2.77,1.2-4.37c0.02-0.58-0.03-0.99-0.1-1.41
					c-0.05-0.27-0.37-0.94-0.79-0.95l-1.57-0.05l-0.29-0.7l-1.03,0.19l0.12,3.06l0.69,0.05c0.71,0.05,1.5,0.14,1.5,0.83
					c0,0.65-0.93,2.04-1.28,2.53L206.75,225.68z M201.13,227.87l1.63-0.37l-0.15-1.97c-0.13-1.79-0.1-5.05-0.1-5.39
					c0-0.82-0.51-1.1-0.71-1.19l-1.08-0.08c-0.22-0.03-0.37-0.09-0.59-0.17l-0.2-0.51l-0.88,0.07l0.17,3.16l1.3,0.08
					c0.12,0.09,0.39,0.32,0.47,0.78c0.07,0.32,0.17,1.53,0.2,2.11C201.29,226,201.19,226.97,201.13,227.87 M195.64,227.87l1.95-0.46
					c-0.1-0.56-0.25-2.06-0.34-3.15c-0.17-2.06-0.17-3.04-0.17-3.5c0-0.58-0.5-1.36-1.08-1.82h-5.67c-0.39,0-0.54-0.14-0.64-0.22
					l-0.25-0.54l-0.76,0.15l0.18,3.03c0.24,0.09,0.52,0.14,0.91,0.14h0.49l-0.56,1.33c-0.1,0.22-0.13,0.56-0.12,0.75l0.12,2.06
					l-1.53,0.12l-0.44,1.94h3.43c0.17-0.97,0.18-1.19,0.18-1.51c-0.07-0.39-0.49-2.67-0.49-3.21c0-0.51,0.27-1.04,0.45-1.46h3.64
					l0.13,0.2c0.42,0.65,0.62,2.16,0.62,2.99C195.72,225.99,195.71,226.46,195.64,227.87 M184.63,220.34h1.51l0.54-3.84h-2.05
					V220.34z M181.84,220.34h1.53l0.52-3.84h-2.05V220.34z"/>
			</g>
		</g>
		<g style="opacity:0.95;clip-path:url(#SVGID_00000017483551804023192790000010070671578295719581_);">
			<g>
				<defs>
					<rect id="SVGID_00000124153612891345006820000001275398187665981596_" x="57.64" y="185.32" width="191.41" height="22.31"/>
				</defs>
				<clipPath id="SVGID_00000113346686947656940820000003472282549214675101_">
					<use xlink:href="#SVGID_00000124153612891345006820000001275398187665981596_"  style="overflow:visible;"/>
				</clipPath>
				<path style="clip-path:url(#SVGID_00000113346686947656940820000003472282549214675101_);fill:#231F20;" d="M232.16,205.19h6.23
					c0.61,0,0.77-0.17,0.89-0.48l0.77-2.16l-0.35-4.27c-0.1-1.21-1.23-1.84-1.8-1.84h-3.3l-0.49-0.76l-1.01,0.17l0.27,3.14h2.76
					c1.62,0,2.17,0.61,2.41,2.14l0.08,0.56c0.1,0.66-0.08,0.85-0.24,1.07h-5.76L232.16,205.19z M229.28,205.37l1.6-0.42
					c-0.05-0.76-0.15-2.6-0.15-3.33v-3.01c0-0.97-0.62-2.16-1.67-2.16h-4.44l-0.45-0.76l-0.91,0.12l0.15,3.2h4.7
					c0.24,0.12,0.67,0.31,0.93,0.9c0.2,0.48,0.39,1.79,0.39,2.67C229.42,203.33,229.35,204.22,229.28,205.37 M213.95,205.19h6.23
					c0.61,0,0.77-0.17,0.89-0.48l0.77-2.16l-0.35-4.27c-0.1-1.21-1.23-1.84-1.8-1.84h-3.3l-0.49-0.76l-1.01,0.17l0.27,3.14h2.76
					c1.62,0,2.17,0.61,2.41,2.14l0.08,0.56c0.1,0.66-0.08,0.85-0.24,1.07h-5.76L213.95,205.19z M211.69,203.18
					c0.18-0.46,1.14-2.77,1.19-4.37c0.02-0.58-0.03-0.99-0.1-1.41c-0.05-0.27-0.37-0.93-0.79-0.95l-1.57-0.05l-0.29-0.7l-1.03,0.19
					l0.12,3.06l0.69,0.05c0.71,0.05,1.5,0.14,1.5,0.83c0,0.65-0.93,2.04-1.28,2.53L211.69,203.18z M202.08,202.77
					c-0.47,0-0.69-0.12-0.69-0.63l0.03-3.09c0.37-0.05,1.23-0.07,2.1-0.07c1.77,0,2.34,0.27,2.49,1.73l0.2,1.7
					c0.02,0.19-0.1,0.36-0.34,0.36H202.08z M199.73,205.19h7.62c0.07,0,0.3-0.07,0.3-0.27l-0.14-6.56c-0.02-0.88-0.54-1.9-1.85-1.9
					h-5.03c-0.07,0-0.18-0.07-0.22-0.15l-0.27-0.61l-0.98,0.08l0.2,3.2l1.21,0.17v0.02l-0.79,1.43L199.73,205.19z M192.54,205.37
					l1.55-0.8c-0.15-0.22-0.29-0.48-0.35-0.6c-0.09-0.15-0.88-1.41-0.93-3.16l-0.1-3.6c0-0.29-0.25-0.76-0.69-0.76h-1.36
					c-0.15,0-0.49-0.12-0.51-0.15l-0.18-0.61l-0.98,0.12l0.17,3.2h1.7c0.05,0.03,0.15,0.12,0.22,0.39c0.05,0.26,0.1,0.51,0.15,0.99
					l0.15,1.31l-0.49,0.63c-0.13,0.19-0.45,0.31-0.69,0.39c-0.32,0.03-0.66,0.05-1.06,0.05l-1.2,0.02l0.08,2.5l1.97-0.12
					c0.1-0.03,0.13-0.07,0.17-0.14l1.4-2.46c0.03,0.22,0.12,0.58,0.42,1.44C192.13,204.44,192.32,204.88,192.54,205.37
					 M184.56,205.37l2-0.46c-0.08-0.54-0.4-2.75-0.44-3.65c-0.02-0.44-0.07-1.77-0.02-2.07l0.74-0.31l-0.08-2.07
					c-0.13-0.12-0.4-0.36-1.35-0.36h-4.49c-0.57,0-0.64-0.09-0.77-0.15l-0.34-0.61l-0.77,0.1l0.27,3.21h5.05
					c0.05,0.19,0.25,0.66,0.25,3.37C184.61,203.67,184.58,204.74,184.56,205.37 M176.1,205.37l1.63-0.37l-0.15-1.97
					c-0.14-1.79-0.1-5.05-0.1-5.39c0-0.82-0.51-1.11-0.71-1.19l-1.08-0.09c-0.22-0.03-0.37-0.08-0.59-0.17l-0.2-0.51l-0.88,0.07
					l0.17,3.16l1.3,0.08c0.12,0.09,0.39,0.32,0.47,0.78c0.07,0.32,0.17,1.53,0.2,2.11C176.26,203.5,176.16,204.47,176.1,205.37
					 M167.75,205.19h1.35c1.85-1.26,3.77-4.1,3.77-6.58c0-0.9-0.25-2.16-1.92-2.16h-3.08c-0.64,0-1.03-0.1-1.26-0.15
					c-0.08-0.1-0.22-0.27-0.24-0.61l-0.05-1.12h0.52c0.3,0,0.49-0.07,0.54-0.1l-0.18-1.82c-0.02-0.17-0.13-0.32-0.39-0.32h-0.67
					c-0.46,0-1.01,0.07-1.18,0.1l0.27,6.61c0.42-0.02,1.2-0.03,2.58-0.03h2.07c0.44,0,1.38,0.12,1.38,0.97c0,0.7-0.66,1.87-1.5,2.46
					c-0.89,0.63-1.8,0.66-2.12,0.7L167.75,205.19z M162.43,203.18c0.19-0.46,1.15-2.77,1.19-4.37c0.02-0.58-0.03-0.99-0.1-1.41
					c-0.05-0.27-0.37-0.93-0.79-0.95l-1.57-0.05l-0.29-0.7l-1.03,0.19l0.12,3.06l0.69,0.05c0.71,0.05,1.5,0.14,1.5,0.83
					c0,0.65-0.93,2.04-1.28,2.53L162.43,203.18z M152.82,202.77c-0.47,0-0.69-0.12-0.69-0.63l0.03-3.09
					c0.37-0.05,1.23-0.07,2.1-0.07c1.77,0,2.34,0.27,2.49,1.73l0.2,1.7c0.02,0.19-0.1,0.36-0.34,0.36H152.82z M150.46,205.19h7.62
					c0.07,0,0.3-0.07,0.3-0.27l-0.13-6.56c-0.02-0.88-0.54-1.9-1.85-1.9h-5.03c-0.07,0-0.18-0.07-0.22-0.15l-0.27-0.61l-0.98,0.08
					l0.2,3.2l1.21,0.17v0.02l-0.79,1.43L150.46,205.19z M143.74,205.27c0.1,0,0.2-0.02,0.3-0.09l0.42-2.79
					c-0.25-0.09-0.79-0.2-1.53-0.75l-1.51-1.24l0.82-1.41h1.97l-0.18-1.78c-0.05-0.6-0.37-0.76-1.72-0.76
					c-0.94,0-1.23,0.1-1.58,0.17l0.47,2.23c-0.05,0.19-0.22,0.61-0.42,1.04c-0.45-0.31-1.97-1.55-2.49-2.04
					c-0.62-0.58-1.04-1.36-1.45-2.16c-0.17,0-0.4,0.07-0.52,0.14l-0.27,2.97l0.89,0.66l-0.35,0.76c-0.08,0.19-0.13,0.59-0.08,1.05
					l0.18,1.5l-1.38,0.24l-0.47,2.18h3.6l0.3-1.8c-0.2-0.17-0.42-0.39-0.61-0.76c-0.15-0.31-0.51-1.05-0.51-1.77
					c0-0.48,0.07-0.56,0.15-0.8l4.38,3.79C143.09,204.61,143.74,205.27,143.74,205.27 M128.88,205.19h1.35
					c1.85-1.26,3.77-4.1,3.77-6.58c0-0.9-0.25-2.16-1.92-2.16H129c-0.64,0-1.03-0.1-1.26-0.15c-0.08-0.1-0.22-0.27-0.24-0.61
					l-0.05-1.12h0.52c0.3,0,0.49-0.07,0.54-0.1l-0.18-1.82c-0.02-0.17-0.14-0.32-0.39-0.32h-0.67c-0.45,0-1.01,0.07-1.18,0.1
					l0.27,6.61c0.42-0.02,1.19-0.03,2.57-0.03H131c0.44,0,1.38,0.12,1.38,0.97c0,0.7-0.66,1.87-1.5,2.46
					c-0.89,0.63-1.8,0.66-2.12,0.7L128.88,205.19z M124.27,205.27c0.1,0,0.2-0.02,0.3-0.09l0.42-2.79c-0.25-0.09-0.79-0.2-1.53-0.75
					l-1.51-1.24l0.82-1.41h1.97l-0.19-1.78c-0.05-0.6-0.37-0.76-1.72-0.76c-0.94,0-1.23,0.1-1.58,0.17l0.47,2.23
					c-0.05,0.19-0.22,0.61-0.42,1.04c-0.45-0.31-1.97-1.55-2.49-2.04c-0.62-0.58-1.04-1.36-1.45-2.16c-0.17,0-0.4,0.07-0.52,0.14
					l-0.27,2.97l0.89,0.66l-0.35,0.76c-0.08,0.19-0.13,0.59-0.08,1.05l0.18,1.5l-1.38,0.24l-0.47,2.18h3.6l0.3-1.8
					c-0.2-0.17-0.42-0.39-0.61-0.76c-0.15-0.31-0.5-1.05-0.5-1.77c0-0.48,0.07-0.56,0.15-0.8l4.38,3.79
					C123.62,204.61,124.27,205.27,124.27,205.27 M102.39,206.63c0,0,1.83-0.61,2.61-0.88c1.58-0.56,2.74-1.19,2.74-1.19
					c0.59-0.27,0.94-0.92,1.09-1.63l0.81-3.65l0.71-0.31l-0.08-2.19c-0.02-0.32-0.25-0.32-0.52-0.32h-2.19
					c-0.37,0.02-0.32,0.29-0.29,0.58l0.15,1.82l1.21,0.43l-0.84,2.55c-0.17,0.53-0.49,0.75-0.81,0.95
					c-0.19,0.12-0.44,0.26-0.76,0.43L105,200.2c-0.17-0.41-0.19-0.75-0.2-0.95l0.94-0.32l0.14-2.11c0.03-0.26-0.03-0.37-0.24-0.37
					h-1.62c-0.24,0-0.32-0.09-0.39-0.14l-0.29-0.63l-0.91,0.17l0.17,3.23l0.69,0.31l1.99,4.13l-0.56,0.2
					c-1.31,0.48-1.99,0.56-2.46,0.65L102.39,206.63z M99.87,203.18c0.19-0.46,1.14-2.77,1.19-4.37c0.02-0.58-0.03-0.99-0.1-1.41
					c-0.05-0.27-0.37-0.93-0.79-0.95l-1.57-0.05l-0.29-0.7l-1.03,0.19l0.12,3.06L98.1,199c0.71,0.05,1.5,0.14,1.5,0.83
					c0,0.65-0.93,2.04-1.28,2.53L99.87,203.18z M94.82,203.18c0.18-0.46,1.14-2.77,1.19-4.37c0.02-0.58-0.03-0.99-0.1-1.41
					c-0.05-0.27-0.37-0.93-0.79-0.95l-1.57-0.05l-0.29-0.7l-1.03,0.19l0.12,3.06l0.69,0.05c0.71,0.05,1.5,0.14,1.5,0.83
					c0,0.65-0.93,2.04-1.28,2.53L94.82,203.18z M89.14,205.37l1.6-0.42c-0.05-0.76-0.15-2.6-0.15-3.33v-3.01
					c0-0.97-0.62-2.16-1.67-2.16h-4.44l-0.45-0.76l-0.91,0.12l0.15,3.2h4.7c0.24,0.12,0.67,0.31,0.93,0.9
					c0.2,0.48,0.39,1.79,0.39,2.67C89.28,203.33,89.21,204.22,89.14,205.37 M80.02,205.37l1.63-0.37l-0.15-1.97
					c-0.13-1.79-0.1-5.05-0.1-5.39c0-0.82-0.5-1.11-0.71-1.19l-1.08-0.09c-0.22-0.03-0.37-0.08-0.59-0.17l-0.2-0.51l-0.88,0.07
					l0.17,3.16l1.3,0.08c0.12,0.09,0.39,0.32,0.47,0.78c0.07,0.32,0.17,1.53,0.2,2.11C80.19,203.5,80.09,204.47,80.02,205.37
					 M74.54,205.37l1.95-0.46c-0.1-0.56-0.25-2.06-0.34-3.14c-0.17-2.06-0.17-3.04-0.17-3.5c0-0.58-0.51-1.36-1.08-1.82h-5.67
					c-0.39,0-0.54-0.14-0.64-0.22l-0.25-0.54l-0.76,0.15l0.18,3.03c0.24,0.08,0.52,0.14,0.91,0.14h0.49l-0.56,1.33
					c-0.1,0.22-0.14,0.56-0.12,0.75l0.12,2.06l-1.53,0.12l-0.44,1.94h3.43c0.17-0.97,0.19-1.19,0.19-1.51
					c-0.07-0.39-0.49-2.67-0.49-3.21c0-0.51,0.27-1.04,0.45-1.46h3.64l0.13,0.2c0.42,0.65,0.62,2.16,0.62,2.99
					C74.62,203.49,74.6,203.96,74.54,205.37"/>
			</g>
		</g>
		<g style="opacity:0.95;clip-path:url(#SVGID_00000017483551804023192790000010070671578295719581_);">
			<g>
				<defs>
					<rect id="SVGID_00000083060171905900679790000009944683450709244056_" x="62.69" y="162.82" width="186.68" height="25.14"/>
				</defs>
				<clipPath id="SVGID_00000103963442555885523840000015944798574990824320_">
					<use xlink:href="#SVGID_00000083060171905900679790000009944683450709244056_"  style="overflow:visible;"/>
				</clipPath>
				<path style="clip-path:url(#SVGID_00000103963442555885523840000015944798574990824320_);fill:#231F20;" d="M239.65,182.77
					c0.1,0,0.2-0.02,0.3-0.08l0.42-2.79c-0.25-0.09-0.79-0.2-1.53-0.75l-1.51-1.24l0.82-1.41h1.97l-0.19-1.79
					c-0.05-0.6-0.37-0.76-1.72-0.76c-0.94,0-1.23,0.1-1.58,0.17l0.47,2.23c-0.05,0.19-0.22,0.61-0.42,1.04
					c-0.45-0.31-1.97-1.55-2.49-2.04c-0.62-0.58-1.04-1.36-1.45-2.16c-0.17,0-0.4,0.07-0.52,0.14l-0.27,2.98l0.89,0.66l-0.35,0.76
					c-0.08,0.19-0.13,0.6-0.08,1.05l0.18,1.5l-1.38,0.24l-0.47,2.18h3.6l0.3-1.8c-0.2-0.17-0.42-0.39-0.61-0.76
					c-0.15-0.31-0.51-1.05-0.51-1.77c0-0.48,0.07-0.56,0.15-0.8l4.38,3.79C238.99,182.11,239.65,182.77,239.65,182.77 M228,182.87
					l1.63-0.37l-0.15-1.97c-0.13-1.79-0.1-5.05-0.1-5.39c0-0.82-0.5-1.1-0.71-1.19l-1.08-0.08c-0.22-0.03-0.37-0.09-0.59-0.17
					l-0.2-0.51l-0.88,0.07l0.17,3.16l1.29,0.08c0.12,0.09,0.39,0.32,0.47,0.78c0.07,0.32,0.17,1.53,0.2,2.11
					C228.17,181,228.07,181.97,228,182.87 M222.52,182.87l1.95-0.46c-0.1-0.56-0.25-2.06-0.34-3.15c-0.17-2.06-0.17-3.04-0.17-3.5
					c0-0.58-0.5-1.36-1.08-1.82h-5.67c-0.39,0-0.54-0.14-0.64-0.22l-0.25-0.54l-0.76,0.15l0.18,3.03c0.24,0.09,0.52,0.14,0.91,0.14
					h0.49l-0.55,1.33c-0.1,0.22-0.14,0.56-0.12,0.75l0.12,2.06l-1.53,0.12l-0.44,1.94h3.43c0.17-0.97,0.18-1.19,0.18-1.51
					c-0.07-0.39-0.49-2.67-0.49-3.21c0-0.51,0.27-1.04,0.45-1.46h3.64l0.13,0.2c0.42,0.65,0.62,2.16,0.62,2.99
					C222.6,180.99,222.58,181.46,222.52,182.87 M210.9,186.95l2.29-0.48c-0.12-0.95-0.35-2.29-0.42-4.74l-0.13-4.95l1.11-0.34
					l-0.07-1.87c-0.17-0.42-0.61-0.63-0.96-0.63h-1.53c-0.3,0-0.66-0.12-0.84-0.25l-0.18-0.51l-1.06,0.09l0.15,3.23h0.83
					c0.54,0,0.77,0.15,1.01,0.29l0.09,5.07C211.21,183.62,211.09,185.18,210.9,186.95 M198.8,182.69h1.35
					c1.85-1.26,3.77-4.1,3.77-6.58c0-0.9-0.25-2.16-1.92-2.16h-3.08c-0.64,0-1.03-0.1-1.26-0.15c-0.08-0.1-0.22-0.27-0.24-0.61
					l-0.05-1.12h0.52c0.3,0,0.49-0.07,0.54-0.1l-0.18-1.82c-0.02-0.17-0.13-0.32-0.39-0.32h-0.67c-0.45,0-1.01,0.07-1.18,0.1
					l0.27,6.61c0.42-0.02,1.19-0.03,2.57-0.03h2.07c0.44,0,1.38,0.12,1.38,0.97c0,0.7-0.66,1.87-1.5,2.46
					c-0.89,0.63-1.8,0.66-2.12,0.7L198.8,182.69z M194.19,182.77c0.1,0,0.2-0.02,0.3-0.08l0.42-2.79c-0.25-0.09-0.79-0.2-1.53-0.75
					l-1.51-1.24l0.82-1.41h1.97l-0.18-1.79c-0.05-0.6-0.37-0.76-1.72-0.76c-0.94,0-1.23,0.1-1.58,0.17l0.47,2.23
					c-0.05,0.19-0.22,0.61-0.42,1.04c-0.45-0.31-1.97-1.55-2.49-2.04c-0.62-0.58-1.04-1.36-1.45-2.16c-0.17,0-0.4,0.07-0.52,0.14
					l-0.27,2.98l0.89,0.66l-0.35,0.76c-0.08,0.19-0.13,0.6-0.08,1.05l0.18,1.5l-1.38,0.24l-0.47,2.18h3.6l0.3-1.8
					c-0.2-0.17-0.42-0.39-0.61-0.76c-0.15-0.31-0.5-1.05-0.5-1.77c0-0.48,0.07-0.56,0.15-0.8l4.38,3.79
					C193.53,182.11,194.19,182.77,194.19,182.77 M173.52,182.87c0.71-0.07,1.16-0.12,1.97-0.27c2-0.39,3.28-1.31,3.69-1.94
					c0.34-0.53,0.96-1.31,0.96-3.37c0-2.46-0.37-3.47-1.23-3.43l-2.17,0.08l-0.46,3.06h0.42c0.12-0.31,0.35-0.51,0.49-0.51
					l0.98-0.05c0.35,0.61,0.37,1.24,0.37,1.65c0,0.54-0.02,1.09-0.13,1.55c-0.24,0.12-0.62,0.34-1.78,0.56
					c-0.84,0.15-1.36,0.19-1.92,0.24c-0.17-0.24-0.45-0.56-0.67-2.11c-0.12-0.8-0.13-1.33-0.17-1.67l0.89-0.17l0.18-2.16
					c0.02-0.17-0.08-0.39-0.3-0.39h-1.35c-0.27,0-0.39-0.25-0.47-0.42l-0.15-0.32l-0.94,0.15l0.1,3.06l0.77,0.29
					c0,0.29,0.02,2.02,0.22,3.42C173.03,181.67,173.31,182.33,173.52,182.87 M168.94,180.68c0.18-0.46,1.14-2.77,1.19-4.37
					c0.02-0.58-0.03-0.99-0.1-1.41c-0.05-0.27-0.37-0.94-0.79-0.95l-1.57-0.05l-0.29-0.7l-1.03,0.19l0.12,3.06l0.69,0.05
					c0.71,0.05,1.5,0.14,1.5,0.83c0,0.65-0.93,2.04-1.28,2.53L168.94,180.68z M163.27,182.87l1.6-0.43
					c-0.05-0.76-0.15-2.6-0.15-3.33v-3.01c0-0.97-0.62-2.16-1.67-2.16h-4.44l-0.45-0.76l-0.91,0.12l0.15,3.2h4.7
					c0.24,0.12,0.67,0.31,0.92,0.9c0.2,0.48,0.39,1.79,0.39,2.67C163.4,180.83,163.33,181.72,163.27,182.87 M154.72,180.68
					c0.19-0.46,1.15-2.77,1.2-4.37c0.02-0.58-0.03-0.99-0.1-1.41c-0.05-0.27-0.37-0.94-0.79-0.95l-1.57-0.05l-0.29-0.7l-1.03,0.19
					l0.12,3.06l0.69,0.05c0.71,0.05,1.5,0.14,1.5,0.83c0,0.65-0.93,2.04-1.28,2.53L154.72,180.68z M148.1,186.95l2.29-0.48
					c-0.12-0.95-0.35-2.29-0.42-4.74l-0.13-4.95l1.11-0.34l-0.07-1.87c-0.17-0.42-0.61-0.63-0.96-0.63h-1.53
					c-0.3,0-0.66-0.12-0.84-0.25l-0.18-0.51l-1.06,0.09l0.15,3.23h0.83c0.54,0,0.77,0.15,1.01,0.29l0.09,5.07
					C148.41,183.62,148.29,185.18,148.1,186.95 M133.73,186.95l1.84-0.43c-0.15-0.8-0.57-3.08-0.57-5.64c0-0.99,0.05-1.58,0.07-2.18
					l-1.53,0.1c0.05,0.49,0.1,1.09,0.13,2.19C133.69,182.31,133.71,184.52,133.73,186.95 M136.44,182.69h1.04
					c1.99-1.34,3.37-3.23,3.37-5.68v-0.99c0-0.88-0.29-2.07-1.67-2.07h-3.92c-0.42,0-0.67-0.07-0.91-0.14l-0.27-0.63l-1.08,0.1
					l0.27,3.3c0.34-0.02,1.7-0.09,2.61-0.09h1.83c0.81,0,1.65,0.41,1.65,1.14c0,1.33-0.82,1.92-2,2.46
					c-0.34,0.15-0.71,0.27-0.98,0.34L136.44,182.69z M124.5,182.87c0.71-0.07,1.16-0.12,1.97-0.27c2-0.39,3.28-1.31,3.69-1.94
					c0.34-0.53,0.96-1.31,0.96-3.37c0-2.46-0.37-3.47-1.23-3.43l-2.17,0.08l-0.45,3.06h0.42c0.12-0.31,0.35-0.51,0.49-0.51
					l0.98-0.05c0.35,0.61,0.37,1.24,0.37,1.65c0,0.54-0.02,1.09-0.13,1.55c-0.24,0.12-0.62,0.34-1.78,0.56
					c-0.84,0.15-1.36,0.19-1.92,0.24c-0.17-0.24-0.45-0.56-0.67-2.11c-0.12-0.8-0.14-1.33-0.17-1.67l0.89-0.17l0.19-2.16
					c0.02-0.17-0.08-0.39-0.3-0.39h-1.35c-0.27,0-0.39-0.25-0.47-0.42l-0.15-0.32l-0.94,0.15l0.1,3.06l0.77,0.29
					c0,0.29,0.02,2.02,0.22,3.42C124.02,181.67,124.3,182.33,124.5,182.87 M115.77,182.69h5.15c-0.05-0.7-0.29-3.79-0.34-4.73
					c-0.03-0.83-0.05-2.55-0.05-3.16c-0.05-0.36-0.34-0.85-0.74-0.85h-1.78l-0.29-0.75l-1.03,0.07l0.34,3.23h1.63
					c0.18,0.19,0.29,0.56,0.32,0.7c0.22,0.92,0.29,1.46,0.29,2.62c0,0.17-0.03,0.24-0.07,0.31c-0.15,0.07-0.71,0.15-1.58,0.15h-1.67
					L115.77,182.69z M113.51,180.68c0.19-0.46,1.15-2.77,1.19-4.37c0.02-0.58-0.03-0.99-0.1-1.41c-0.05-0.27-0.37-0.94-0.79-0.95
					l-1.57-0.05l-0.29-0.7l-1.03,0.19l0.12,3.06l0.69,0.05c0.71,0.05,1.5,0.14,1.5,0.83c0,0.65-0.93,2.04-1.28,2.53L113.51,180.68z
					 M103.9,180.27c-0.47,0-0.69-0.12-0.69-0.63l0.03-3.09c0.37-0.05,1.23-0.07,2.1-0.07c1.77,0,2.34,0.27,2.49,1.73l0.2,1.7
					c0.02,0.19-0.1,0.36-0.34,0.36H103.9z M101.55,182.69h7.62c0.07,0,0.3-0.07,0.3-0.27l-0.13-6.56c-0.02-0.88-0.54-1.9-1.85-1.9
					h-5.03c-0.07,0-0.18-0.07-0.22-0.15l-0.27-0.61l-0.98,0.09l0.2,3.2l1.21,0.17v0.02l-0.79,1.43L101.55,182.69z M93.55,182.87
					l1.63-0.37l-0.15-1.97c-0.13-1.79-0.1-5.05-0.1-5.39c0-0.82-0.5-1.1-0.71-1.19l-1.08-0.08c-0.22-0.03-0.37-0.09-0.59-0.17
					l-0.2-0.51l-0.88,0.07l0.17,3.16l1.3,0.08c0.12,0.09,0.39,0.32,0.47,0.78c0.07,0.32,0.17,1.53,0.2,2.11
					C93.72,181,93.62,181.97,93.55,182.87 M85.2,182.69h1.35c1.85-1.26,3.77-4.1,3.77-6.58c0-0.9-0.25-2.16-1.92-2.16h-3.08
					c-0.64,0-1.03-0.1-1.26-0.15c-0.08-0.1-0.22-0.27-0.24-0.61l-0.05-1.12h0.52c0.3,0,0.49-0.07,0.54-0.1l-0.18-1.82
					c-0.02-0.17-0.14-0.32-0.39-0.32h-0.67c-0.46,0-1.01,0.07-1.18,0.1l0.27,6.61c0.42-0.02,1.19-0.03,2.57-0.03h2.07
					c0.44,0,1.38,0.12,1.38,0.97c0,0.7-0.66,1.87-1.5,2.46c-0.89,0.63-1.8,0.66-2.12,0.7L85.2,182.69z M80.59,182.77
					c0.1,0,0.2-0.02,0.3-0.08l0.42-2.79c-0.25-0.09-0.79-0.2-1.53-0.75l-1.51-1.24l0.83-1.41h1.97l-0.18-1.79
					c-0.05-0.6-0.37-0.76-1.72-0.76c-0.94,0-1.23,0.1-1.58,0.17l0.47,2.23c-0.05,0.19-0.22,0.61-0.42,1.04
					c-0.45-0.31-1.97-1.55-2.49-2.04c-0.62-0.58-1.04-1.36-1.45-2.16c-0.17,0-0.4,0.07-0.52,0.14l-0.27,2.98l0.89,0.66l-0.35,0.76
					c-0.08,0.19-0.13,0.6-0.08,1.05l0.19,1.5l-1.38,0.24l-0.47,2.18h3.6l0.3-1.8c-0.2-0.17-0.42-0.39-0.61-0.76
					c-0.15-0.31-0.5-1.05-0.5-1.77c0-0.48,0.07-0.56,0.15-0.8l4.38,3.79C79.94,182.11,80.59,182.77,80.59,182.77"/>
			</g>
		</g>
		<g style="opacity:0.95;clip-path:url(#SVGID_00000017483551804023192790000010070671578295719581_);">
			<g>
				<defs>
					<rect id="SVGID_00000158024222973237497560000008429334407239652286_" x="87.33" y="140.32" width="161.7" height="25.14"/>
				</defs>
				<clipPath id="SVGID_00000129198230540696401330000009705192536519002756_">
					<use xlink:href="#SVGID_00000158024222973237497560000008429334407239652286_"  style="overflow:visible;"/>
				</clipPath>
				<path style="clip-path:url(#SVGID_00000129198230540696401330000009705192536519002756_);fill:#231F20;" d="M237.98,152.84h1.51
					l0.54-3.84h-2.05V152.84z M235.19,152.84h1.53l0.52-3.84h-2.05V152.84z M225.63,161.63c0,0,1.83-0.61,2.61-0.88
					c1.58-0.56,2.74-1.19,2.74-1.19c0.59-0.27,0.94-0.92,1.09-1.63l0.81-3.65l0.71-0.31l-0.08-2.19c-0.02-0.32-0.25-0.32-0.52-0.32
					h-2.19c-0.37,0.02-0.32,0.29-0.29,0.58l0.15,1.82l1.21,0.42l-0.84,2.55c-0.17,0.53-0.49,0.75-0.81,0.95
					c-0.18,0.12-0.44,0.26-0.76,0.43l-1.23-2.99c-0.17-0.41-0.18-0.75-0.2-0.95l0.94-0.32l0.13-2.11c0.03-0.26-0.03-0.37-0.24-0.37
					h-1.62c-0.24,0-0.32-0.09-0.39-0.14l-0.29-0.63l-0.91,0.17l0.17,3.23l0.69,0.31l1.99,4.13l-0.55,0.2
					c-1.31,0.48-1.99,0.56-2.46,0.65L225.63,161.63z M222.48,160.37l1.6-0.42c-0.05-0.77-0.15-2.6-0.15-3.33v-3.01
					c0-0.97-0.62-2.16-1.67-2.16h-4.44l-0.46-0.77l-0.91,0.12l0.15,3.2h4.69c0.24,0.12,0.67,0.31,0.93,0.9
					c0.2,0.48,0.39,1.79,0.39,2.67C222.62,158.33,222.55,159.22,222.48,160.37 M213.93,158.18c0.18-0.46,1.14-2.77,1.19-4.37
					c0.02-0.58-0.03-0.99-0.1-1.41c-0.05-0.27-0.37-0.93-0.79-0.95l-1.57-0.05l-0.29-0.7l-1.03,0.19l0.12,3.06l0.69,0.05
					c0.71,0.05,1.5,0.14,1.5,0.83c0,0.65-0.93,2.04-1.28,2.53L213.93,158.18z M204.32,157.77c-0.47,0-0.69-0.12-0.69-0.63l0.03-3.09
					c0.37-0.05,1.23-0.07,2.1-0.07c1.77,0,2.34,0.27,2.49,1.73l0.2,1.7c0.02,0.19-0.1,0.36-0.34,0.36H204.32z M201.97,160.19h7.62
					c0.07,0,0.3-0.07,0.3-0.27l-0.14-6.56c-0.02-0.88-0.54-1.9-1.85-1.9h-5.03c-0.07,0-0.18-0.07-0.22-0.15l-0.27-0.61l-0.98,0.08
					l0.2,3.2l1.21,0.17v0.02l-0.79,1.43L201.97,160.19z M187.25,160.37l1.78-0.41c-0.03-0.63-0.07-1.8-0.07-2.3
					c0-0.56,0.03-1.46,0.08-2.26l-1.53,0.42c0,0.53-0.03,1.26-0.08,2.28C187.4,158.83,187.32,159.62,187.25,160.37 M193.6,160.37
					l1.85-0.49c-0.05-0.27-0.44-2.01-0.52-3.96c-0.03-0.63-0.03-1.1-0.03-1.6l0.96-0.42l-0.08-2.11c-0.22-0.22-0.47-0.34-0.82-0.34
					h-6.02c-0.37,0-0.54-0.05-0.81-0.12l-0.24-0.63l-0.93,0.12l0.29,3.18h4.98c0.61,0,0.81,0.08,1.16,0.22
					c0.05,0.26,0.25,1.51,0.24,3.35L193.6,160.37z M180.34,160.19h1.35c1.85-1.26,3.77-4.1,3.77-6.58c0-0.9-0.25-2.16-1.92-2.16
					h-3.08c-0.64,0-1.03-0.1-1.26-0.15c-0.08-0.1-0.22-0.27-0.24-0.61l-0.05-1.12h0.52c0.3,0,0.49-0.07,0.54-0.1l-0.18-1.82
					c-0.02-0.17-0.13-0.32-0.39-0.32h-0.67c-0.45,0-1.01,0.07-1.18,0.1l0.27,6.61c0.42-0.02,1.19-0.03,2.57-0.03h2.07
					c0.44,0,1.38,0.12,1.38,0.97c0,0.7-0.66,1.87-1.5,2.46c-0.89,0.63-1.8,0.66-2.12,0.7L180.34,160.19z M171.23,160.19h1.35
					c1.85-1.26,3.77-4.1,3.77-6.58c0-0.9-0.25-2.16-1.92-2.16h-3.08c-0.64,0-1.03-0.1-1.26-0.15c-0.08-0.1-0.22-0.27-0.24-0.61
					l-0.05-1.12h0.52c0.3,0,0.49-0.07,0.54-0.1l-0.19-1.82c-0.02-0.17-0.13-0.32-0.39-0.32h-0.67c-0.45,0-1.01,0.07-1.18,0.1
					l0.27,6.61c0.42-0.02,1.2-0.03,2.58-0.03h2.07c0.44,0,1.38,0.12,1.38,0.97c0,0.7-0.66,1.87-1.5,2.46
					c-0.89,0.63-1.8,0.66-2.12,0.7L171.23,160.19z M165.34,160.37l1.63-0.37l-0.15-1.97c-0.14-1.79-0.1-5.05-0.1-5.39
					c0-0.82-0.5-1.11-0.71-1.19l-1.08-0.09c-0.22-0.03-0.37-0.08-0.59-0.17l-0.2-0.51l-0.88,0.07l0.17,3.16l1.3,0.08
					c0.12,0.08,0.39,0.32,0.47,0.78c0.07,0.32,0.17,1.53,0.2,2.11C165.51,158.5,165.41,159.47,165.34,160.37 M157.33,160.27
					c0.1,0,0.2-0.02,0.3-0.09l0.42-2.79c-0.25-0.08-0.79-0.2-1.53-0.75l-1.51-1.24l0.82-1.41h1.97l-0.19-1.79
					c-0.05-0.6-0.37-0.76-1.72-0.76c-0.94,0-1.23,0.1-1.58,0.17l0.47,2.23c-0.05,0.19-0.22,0.61-0.42,1.04
					c-0.45-0.31-1.97-1.55-2.49-2.04c-0.62-0.58-1.04-1.36-1.45-2.16c-0.17,0-0.4,0.07-0.52,0.14l-0.27,2.97l0.89,0.66l-0.35,0.76
					c-0.09,0.19-0.14,0.6-0.09,1.05l0.19,1.5l-1.38,0.24l-0.47,2.18h3.6l0.3-1.8c-0.2-0.17-0.42-0.39-0.61-0.77
					c-0.15-0.31-0.5-1.05-0.5-1.77c0-0.48,0.07-0.56,0.15-0.8l4.38,3.79C156.67,159.61,157.33,160.27,157.33,160.27 M146.25,158.18
					c0.19-0.46,1.15-2.77,1.2-4.37c0.02-0.58-0.03-0.99-0.1-1.41c-0.05-0.27-0.37-0.93-0.79-0.95l-1.57-0.05l-0.29-0.7l-1.03,0.19
					l0.12,3.06l0.69,0.05c0.71,0.05,1.5,0.14,1.5,0.83c0,0.65-0.93,2.04-1.28,2.53L146.25,158.18z M139.64,164.45l2.29-0.48
					c-0.12-0.95-0.35-2.3-0.42-4.74l-0.13-4.95l1.11-0.34l-0.07-1.87c-0.17-0.43-0.61-0.63-0.96-0.63h-1.53
					c-0.3,0-0.66-0.12-0.84-0.26l-0.18-0.51l-1.06,0.08l0.15,3.23h0.83c0.54,0,0.77,0.15,1.01,0.29l0.08,5.07
					C139.94,161.12,139.82,162.68,139.64,164.45 M124.67,161.63c0,0,1.83-0.61,2.61-0.88c1.58-0.56,2.74-1.19,2.74-1.19
					c0.59-0.27,0.94-0.92,1.09-1.63l0.81-3.65l0.71-0.31l-0.08-2.19c-0.02-0.32-0.25-0.32-0.52-0.32h-2.19
					c-0.37,0.02-0.32,0.29-0.29,0.58l0.15,1.82l1.21,0.42l-0.84,2.55c-0.17,0.53-0.49,0.75-0.81,0.95
					c-0.18,0.12-0.44,0.26-0.76,0.43l-1.23-2.99c-0.17-0.41-0.18-0.75-0.2-0.95l0.94-0.32l0.13-2.11c0.03-0.26-0.03-0.37-0.23-0.37
					h-1.62c-0.24,0-0.32-0.09-0.39-0.14l-0.29-0.63l-0.91,0.17l0.17,3.23l0.69,0.31l1.99,4.13l-0.56,0.2
					c-1.31,0.48-1.99,0.56-2.46,0.65L124.67,161.63z M121.58,160.37l1.63-0.37l-0.15-1.97c-0.13-1.79-0.1-5.05-0.1-5.39
					c0-0.82-0.5-1.11-0.71-1.19l-1.08-0.09c-0.22-0.03-0.37-0.08-0.59-0.17l-0.2-0.51l-0.88,0.07l0.17,3.16l1.3,0.08
					c0.12,0.08,0.39,0.32,0.47,0.78c0.07,0.32,0.17,1.53,0.2,2.11C121.74,158.5,121.64,159.47,121.58,160.37 M109.26,160.37
					l3.91-0.37c2.25-0.22,3.1-1.55,3.23-1.79c0.46-0.8,0.88-2.16,1.15-3.3l0.18-0.8l0.64-0.24l0.14-2.12
					c0.03-0.26-0.15-0.31-0.34-0.31h-2.34c-0.27,0-0.25,0.25-0.25,0.32l0.17,2.06l0.81,0.27l-0.18,0.68
					c-0.14,0.51-0.46,1.38-0.72,1.9c-0.61,1.16-1.89,1.09-2.91,1.19l-0.54,0.05l1.18-3.65l1.26-0.49l-0.22-1.94
					c-0.02-0.19-0.15-0.39-0.45-0.39h-2.07c-0.19,0-0.24,0.05-0.22,0.22l0.18,1.9c0.02,0.2,0,0.51-0.02,0.65l-0.71,3.81l-0.69,0.05
					c-0.25-0.22-0.47-0.9-0.66-2.35l-0.18-1.51l1.13-0.24l-0.2-2.33c-0.02-0.19-0.1-0.2-0.22-0.2h-1.35c-0.25,0-0.34-0.07-0.42-0.14
					l-0.27-0.63l-0.88,0.1l0.12,3.2l0.88,0.32l0.25,2.58C108.75,158.28,109.02,159.32,109.26,160.37 M104.75,158.18
					c0.18-0.46,1.14-2.77,1.19-4.37c0.02-0.58-0.03-0.99-0.1-1.41c-0.05-0.27-0.37-0.93-0.79-0.95l-1.57-0.05l-0.29-0.7l-1.03,0.19
					l0.12,3.06l0.69,0.05c0.71,0.05,1.5,0.14,1.5,0.83c0,0.65-0.93,2.04-1.28,2.53L104.75,158.18z M98.13,164.45l2.29-0.48
					c-0.12-0.95-0.35-2.3-0.42-4.74l-0.14-4.95l1.11-0.34l-0.07-1.87c-0.17-0.43-0.61-0.63-0.96-0.63h-1.53
					c-0.3,0-0.66-0.12-0.84-0.26l-0.19-0.51l-1.06,0.08l0.15,3.23h0.82c0.54,0,0.78,0.15,1.01,0.29l0.08,5.07
					C98.43,161.12,98.32,162.68,98.13,164.45"/>
			</g>
		</g>
	</g>
</g>
</svg>
