<?xml version="1.0" encoding="utf-8"?>
<svg version="1.1" id="Layer_1" xmlns="http://www.w3.org/2000/svg" xmlns:xlink="http://www.w3.org/1999/xlink" x="0px" y="0px"
	 viewBox="0 0 297.64 420.94" style="enable-background:new 0 0 297.64 420.94;" xml:space="preserve">
<style type="text/css">
	.st0{clip-path:url(#SVGID_00000142876012026583341070000013711655832121714062_);fill:#FFFFFF;}
	.st1{clip-path:url(#SVGID_00000142876012026583341070000013711655832121714062_);}
	.st2{opacity:0.95;clip-path:url(#SVGID_00000124845175512064024820000014880085995164821935_);}
	.st3{clip-path:url(#SVGID_00000001643697040000418160000005290631351545900694_);fill:#231F20;}
	.st4{clip-path:url(#SVGID_00000152949492774936658100000004706248727710841778_);fill:#231F20;}
	.st5{clip-path:url(#SVGID_00000180351388501769481890000006160594899343423127_);fill:#231F20;}
</style>
<g>
	<defs>
		<rect id="SVGID_1_" x="0" y="0" width="297.64" height="420.95"/>
	</defs>
	<clipPath id="SVGID_00000103232604692004246480000007603236484486646147_">
		<use xlink:href="#SVGID_1_"  style="overflow:visible;"/>
	</clipPath>
	
		<rect x="0" y="0" style="clip-path:url(#SVGID_00000103232604692004246480000007603236484486646147_);fill:#FFFFFF;" width="297.64" height="420.95"/>
	<g style="clip-path:url(#SVGID_00000103232604692004246480000007603236484486646147_);">
		<defs>
			<rect id="SVGID_00000160179182122281471200000009444160944264082094_" x="0" y="0" width="297.64" height="420.95"/>
		</defs>
		<clipPath id="SVGID_00000170969300601988261420000002632019219423566727_">
			<use xlink:href="#SVGID_00000160179182122281471200000009444160944264082094_"  style="overflow:visible;"/>
		</clipPath>
		<g style="opacity:0.95;clip-path:url(#SVGID_00000170969300601988261420000002632019219423566727_);">
			<g>
				<defs>
					<rect id="SVGID_00000062887394981503465170000003807191204860654474_" x="172.78" y="232.34" width="76.76" height="14.75"/>
				</defs>
				<clipPath id="SVGID_00000125601755760053105020000011135789677293226161_">
					<use xlink:href="#SVGID_00000062887394981503465170000003807191204860654474_"  style="overflow:visible;"/>
				</clipPath>
				<path style="clip-path:url(#SVGID_00000125601755760053105020000011135789677293226161_);fill:#231F20;" d="M240.54,244.82
					v-4.48c0-0.12-0.02-0.24-0.08-0.36c-0.05-0.12-0.12-0.23-0.2-0.32s-0.17-0.17-0.27-0.23c-0.1-0.06-0.21-0.09-0.31-0.09
					c-0.07,0-0.13,0.02-0.18,0.07c-0.05,0.05-0.07,0.11-0.07,0.18c0,0.1,0.04,0.17,0.12,0.22c0.09,0.06,0.18,0.15,0.26,0.26
					c0.09,0.11,0.13,0.24,0.13,0.4v4.2c0,0.15-0.04,0.29-0.13,0.4c-0.08,0.11-0.17,0.2-0.26,0.26c-0.08,0.06-0.12,0.14-0.12,0.22
					c0,0.07,0.02,0.14,0.07,0.18c0.05,0.05,0.11,0.07,0.18,0.07c0.11,0,0.21-0.03,0.31-0.09c0.1-0.06,0.19-0.14,0.27-0.23
					c0.08-0.09,0.15-0.2,0.2-0.32C240.52,245.06,240.54,244.94,240.54,244.82 M238.24,243.94v-2.42c0-0.18-0.04-0.35-0.12-0.51
					c-0.08-0.16-0.19-0.3-0.32-0.42c-0.14-0.12-0.29-0.22-0.47-0.28s-0.36-0.1-0.56-0.1c-0.26,0-0.49,0.04-0.69,0.11
					c-0.2,0.07-0.4,0.22-0.62,0.43v-0.18c0-0.09-0.03-0.16-0.08-0.21c-0.05-0.05-0.12-0.08-0.22-0.08h-0.68
					c-0.07,0-0.11,0.04-0.11,0.1v0.39c0,0.08,0.04,0.11,0.11,0.11h0.4v3.92c0,0.07,0.03,0.1,0.1,0.1h0.4c0.07,0,0.1-0.04,0.1-0.1
					v-2.89c0-0.16,0.03-0.3,0.09-0.44c0.06-0.14,0.14-0.26,0.24-0.36c0.1-0.1,0.23-0.19,0.36-0.24c0.14-0.06,0.29-0.09,0.44-0.09
					c0.3,0,0.54,0.08,0.72,0.23c0.18,0.15,0.27,0.34,0.27,0.56v2.35c0,0.11-0.04,0.2-0.11,0.27s-0.16,0.11-0.27,0.11h-0.78
					c-0.07,0-0.11,0.04-0.11,0.1v0.4c0,0.07,0.04,0.1,0.11,0.1h0.78c0.14,0,0.27-0.02,0.39-0.08c0.12-0.05,0.23-0.12,0.32-0.21
					c0.09-0.09,0.16-0.19,0.22-0.31C238.21,244.21,238.24,244.08,238.24,243.94 M232.75,243.38c0,0.14-0.03,0.28-0.08,0.4
					c-0.05,0.12-0.13,0.24-0.22,0.33c-0.1,0.1-0.21,0.17-0.33,0.22c-0.12,0.05-0.26,0.08-0.4,0.08s-0.28-0.03-0.4-0.08
					c-0.12-0.05-0.24-0.13-0.33-0.22c-0.09-0.1-0.17-0.21-0.22-0.33s-0.08-0.26-0.08-0.4v-2.48h2.07V243.38z M233.38,240.58
					c0-0.09-0.03-0.16-0.08-0.21c-0.06-0.05-0.13-0.08-0.22-0.08h-3.44c-0.04,0-0.07,0.01-0.09,0.03c-0.02,0.02-0.03,0.04-0.03,0.07
					v0.39c0,0.03,0.01,0.05,0.03,0.08s0.05,0.04,0.09,0.04h0.42v2.46c0,0.23,0.04,0.44,0.13,0.64c0.09,0.2,0.21,0.38,0.36,0.52
					s0.32,0.27,0.52,0.36c0.2,0.09,0.41,0.13,0.64,0.13s0.45-0.04,0.65-0.13c0.2-0.09,0.38-0.21,0.53-0.36
					c0.15-0.15,0.27-0.32,0.36-0.52c0.09-0.2,0.13-0.41,0.13-0.64V240.58z M228.55,243.94v-3.36c0-0.09-0.03-0.16-0.08-0.21
					c-0.05-0.05-0.12-0.08-0.22-0.08h-2.74c-0.07,0-0.11,0.04-0.11,0.1v0.39c0,0.08,0.04,0.11,0.11,0.11h2.41v3.04
					c0,0.11-0.04,0.2-0.12,0.27c-0.08,0.07-0.17,0.11-0.28,0.11h-2.02c-0.07,0-0.11,0.04-0.11,0.11v0.39c0,0.07,0.04,0.1,0.11,0.1
					h2.02c0.14,0,0.27-0.02,0.39-0.08c0.12-0.05,0.23-0.12,0.32-0.21s0.17-0.2,0.22-0.31C228.53,244.21,228.55,244.08,228.55,243.94
					 M224.33,240.58c0-0.09-0.03-0.16-0.08-0.21c-0.05-0.05-0.12-0.08-0.22-0.08h-3.45c-0.07,0-0.11,0.04-0.11,0.1v0.39
					c0,0.08,0.04,0.11,0.11,0.11h0.57v3.42h-0.62c-0.07,0-0.1,0.04-0.1,0.11v0.39c0,0.07,0.04,0.1,0.1,0.1h0.95
					c0.09,0,0.16-0.03,0.21-0.08c0.05-0.05,0.08-0.12,0.08-0.22v-3.73h1.94v3.92c0,0.07,0.04,0.1,0.11,0.1h0.4
					c0.07,0,0.1-0.04,0.1-0.1V240.58z M216.98,243.94v-2.42c0-0.18-0.04-0.35-0.12-0.51c-0.08-0.16-0.19-0.3-0.32-0.42
					c-0.14-0.12-0.29-0.22-0.47-0.28c-0.18-0.07-0.36-0.1-0.56-0.1c-0.26,0-0.49,0.04-0.69,0.11c-0.2,0.07-0.4,0.22-0.62,0.43v-0.18
					c0-0.09-0.03-0.16-0.08-0.21c-0.05-0.05-0.12-0.08-0.22-0.08h-0.68c-0.07,0-0.11,0.04-0.11,0.1v0.39c0,0.08,0.04,0.11,0.11,0.11
					h0.4v3.92c0,0.07,0.04,0.1,0.1,0.1h0.4c0.07,0,0.1-0.04,0.1-0.1v-2.89c0-0.16,0.03-0.3,0.09-0.44c0.06-0.14,0.14-0.26,0.24-0.36
					c0.1-0.1,0.23-0.19,0.36-0.24c0.14-0.06,0.29-0.09,0.44-0.09c0.3,0,0.55,0.08,0.72,0.23c0.18,0.15,0.27,0.34,0.27,0.56v2.35
					c0,0.11-0.04,0.2-0.11,0.27c-0.07,0.07-0.17,0.11-0.27,0.11h-0.78c-0.07,0-0.11,0.04-0.11,0.1v0.4c0,0.07,0.04,0.1,0.11,0.1
					h0.78c0.14,0,0.27-0.02,0.39-0.08c0.12-0.05,0.23-0.12,0.32-0.21c0.09-0.09,0.16-0.19,0.22-0.31
					C216.95,244.21,216.98,244.08,216.98,243.94 M212.12,243.94v-3.36c0-0.09-0.03-0.16-0.08-0.21c-0.05-0.05-0.12-0.08-0.22-0.08
					h-2.74c-0.07,0-0.11,0.04-0.11,0.1v0.39c0,0.08,0.04,0.11,0.11,0.11h2.41v3.04c0,0.11-0.04,0.2-0.12,0.27
					c-0.08,0.07-0.17,0.11-0.28,0.11h-2.02c-0.07,0-0.11,0.04-0.11,0.11v0.39c0,0.07,0.04,0.1,0.11,0.1h2.02
					c0.14,0,0.27-0.02,0.39-0.08c0.12-0.05,0.23-0.12,0.32-0.21c0.09-0.09,0.17-0.2,0.22-0.31
					C212.09,244.21,212.12,244.08,212.12,243.94 M208.01,244.82v-4.24c0-0.09-0.03-0.16-0.08-0.21c-0.06-0.05-0.13-0.08-0.22-0.08
					h-0.82c-0.03,0-0.06,0.01-0.08,0.03c-0.02,0.02-0.04,0.04-0.04,0.07v0.39c0,0.03,0.01,0.06,0.04,0.08
					c0.02,0.02,0.05,0.03,0.08,0.03h0.5v3.92c0,0.03,0.01,0.06,0.04,0.08s0.05,0.03,0.08,0.03h0.38c0.03,0,0.06-0.01,0.08-0.03
					S208.01,244.86,208.01,244.82 M205.77,240.58c0-0.09-0.03-0.16-0.08-0.21c-0.05-0.05-0.13-0.08-0.22-0.08h-3.45
					c-0.07,0-0.11,0.04-0.11,0.1v0.39c0,0.08,0.04,0.11,0.11,0.11h0.57v3.42h-0.62c-0.07,0-0.1,0.04-0.1,0.11v0.39
					c0,0.07,0.03,0.1,0.1,0.1h0.95c0.09,0,0.16-0.03,0.21-0.08c0.05-0.05,0.08-0.12,0.08-0.22v-3.73h1.94v3.92
					c0,0.07,0.04,0.1,0.11,0.1h0.4c0.07,0,0.1-0.04,0.1-0.1V240.58z M200.81,244.5c0.02-0.05,0.02-0.09-0.01-0.12
					c-0.03-0.04-0.06-0.05-0.11-0.05h-0.43c-0.04,0-0.08,0.02-0.11,0.05c-0.03,0.03-0.05,0.07-0.06,0.11l-0.3,1.52
					c0,0.06,0.03,0.09,0.09,0.09h0.22c0.06,0,0.11-0.03,0.13-0.08L200.81,244.5z M196.4,242.24v-1.66c0-0.09-0.03-0.16-0.08-0.21
					c-0.06-0.05-0.13-0.08-0.22-0.08h-0.98c-0.03,0-0.06,0.01-0.08,0.03c-0.02,0.02-0.04,0.04-0.04,0.07v0.39
					c0,0.03,0.01,0.06,0.04,0.08s0.05,0.03,0.08,0.03h0.66v1.34c0,0.03,0.01,0.05,0.04,0.07s0.05,0.03,0.08,0.03h0.38
					c0.03,0,0.06-0.01,0.08-0.03S196.4,242.27,196.4,242.24 M194.24,240.47c0.02-0.05,0.01-0.1-0.01-0.13s-0.06-0.05-0.11-0.05
					h-0.43c-0.1,0-0.16,0.05-0.17,0.16l-0.3,1.91c0,0.06,0.03,0.09,0.09,0.09h0.22c0.07,0,0.11-0.02,0.13-0.07L194.24,240.47z
					 M192.28,244.5c0.02-0.05,0.02-0.09-0.01-0.12c-0.03-0.04-0.06-0.05-0.11-0.05h-0.43c-0.04,0-0.08,0.02-0.11,0.05
					c-0.03,0.03-0.05,0.07-0.06,0.11l-0.3,1.52c0,0.06,0.03,0.09,0.09,0.09h0.22c0.06,0,0.11-0.03,0.13-0.08L192.28,244.5z
					 M187.85,241.71v-1.12c0-0.09-0.03-0.16-0.08-0.22c-0.05-0.05-0.12-0.08-0.22-0.08h-0.98c-0.07,0-0.1,0.04-0.1,0.1v0.4
					c0,0.07,0.04,0.1,0.1,0.1h0.65v0.85c0,0.25-0.09,0.44-0.27,0.58c-0.18,0.13-0.42,0.21-0.7,0.24l-1.54-2.26
					c-0.03-0.04-0.07-0.07-0.12-0.08s-0.1,0-0.14,0.03l-0.19,0.13c-0.05,0.03-0.08,0.07-0.09,0.12c-0.01,0.05,0,0.1,0.02,0.14
					l0.7,1.02l-0.15,0.11c-0.26,0.19-0.42,0.39-0.5,0.62c-0.07,0.23-0.11,0.48-0.11,0.76v1.47c0,0.09,0.03,0.16,0.08,0.21
					c0.06,0.05,0.13,0.08,0.22,0.08h0.94c0.08,0,0.11-0.04,0.11-0.1v-0.39c0-0.07-0.04-0.11-0.11-0.11h-0.63v-1.2
					c0-0.23,0.03-0.41,0.1-0.56c0.06-0.14,0.2-0.27,0.39-0.4l1.86,2.7c0.03,0.04,0.08,0.07,0.13,0.08s0.11,0,0.16-0.03l0.18-0.12
					c0.04-0.03,0.07-0.07,0.08-0.12c0.01-0.05,0.01-0.1-0.02-0.14l-0.99-1.45c0.2-0.03,0.37-0.09,0.53-0.18
					c0.15-0.09,0.28-0.19,0.39-0.31c0.1-0.12,0.18-0.26,0.24-0.41C187.83,242.04,187.85,241.88,187.85,241.71 M182.77,245.41
					c-0.09-0.06-0.18-0.15-0.27-0.26c-0.09-0.11-0.13-0.24-0.13-0.4v-4.28c0-0.15,0.04-0.29,0.13-0.4c0.09-0.11,0.18-0.2,0.27-0.26
					c0.08-0.05,0.12-0.13,0.12-0.22c0-0.07-0.02-0.14-0.07-0.18c-0.05-0.05-0.11-0.07-0.18-0.07c-0.11,0-0.21,0.03-0.31,0.09
					s-0.19,0.13-0.27,0.23s-0.15,0.2-0.2,0.32c-0.05,0.12-0.08,0.24-0.08,0.36v4.56c0,0.12,0.02,0.24,0.08,0.36
					c0.05,0.12,0.12,0.22,0.2,0.32c0.08,0.09,0.17,0.17,0.27,0.23c0.1,0.06,0.21,0.09,0.31,0.09c0.07,0,0.13-0.02,0.18-0.07
					c0.05-0.05,0.07-0.11,0.07-0.18C182.89,245.55,182.85,245.47,182.77,245.41"/>
			</g>
		</g>
		<g style="opacity:0.95;clip-path:url(#SVGID_00000170969300601988261420000002632019219423566727_);">
			<g>
				<defs>
					<rect id="SVGID_00000091703300039102518610000011687185292217489055_" x="125.08" y="194.82" width="123.92" height="21.06"/>
				</defs>
				<clipPath id="SVGID_00000121986225433111714440000004059271999997800875_">
					<use xlink:href="#SVGID_00000091703300039102518610000011687185292217489055_"  style="overflow:visible;"/>
				</clipPath>
				<path style="clip-path:url(#SVGID_00000121986225433111714440000004059271999997800875_);fill:#231F20;" d="M238.37,214.87
					l1.63-0.37l-0.15-1.97c-0.13-1.79-0.1-5.05-0.1-5.39c0-0.82-0.5-1.1-0.71-1.19l-1.08-0.08c-0.22-0.03-0.37-0.09-0.59-0.17
					l-0.2-0.51l-0.88,0.07l0.17,3.16l1.3,0.08c0.12,0.09,0.39,0.32,0.47,0.78c0.07,0.32,0.17,1.53,0.2,2.11
					C238.54,213,238.44,213.97,238.37,214.87 M230.02,214.69h1.35c1.85-1.26,3.77-4.1,3.77-6.58c0-0.9-0.25-2.16-1.92-2.16h-3.08
					c-0.64,0-1.03-0.1-1.26-0.15c-0.08-0.1-0.22-0.27-0.24-0.61l-0.05-1.12h0.52c0.3,0,0.49-0.07,0.54-0.1l-0.19-1.82
					c-0.02-0.17-0.13-0.32-0.39-0.32h-0.67c-0.45,0-1.01,0.07-1.18,0.1l0.27,6.61c0.42-0.02,1.2-0.03,2.57-0.03h2.07
					c0.44,0,1.38,0.12,1.38,0.97c0,0.7-0.66,1.87-1.5,2.47c-0.89,0.63-1.8,0.66-2.12,0.7L230.02,214.69z M225.41,214.77
					c0.1,0,0.2-0.02,0.3-0.08l0.42-2.79c-0.25-0.09-0.79-0.2-1.53-0.75l-1.51-1.24l0.82-1.41h1.97l-0.18-1.79
					c-0.05-0.6-0.37-0.76-1.72-0.76c-0.94,0-1.23,0.1-1.58,0.17l0.47,2.23c-0.05,0.19-0.22,0.61-0.42,1.04
					c-0.45-0.31-1.97-1.55-2.49-2.04c-0.62-0.58-1.04-1.36-1.45-2.16c-0.17,0-0.4,0.07-0.52,0.14l-0.27,2.98l0.89,0.66l-0.35,0.76
					c-0.08,0.19-0.13,0.6-0.08,1.05l0.18,1.5l-1.38,0.24l-0.47,2.18h3.6l0.3-1.8c-0.2-0.17-0.42-0.39-0.61-0.76
					c-0.15-0.31-0.51-1.05-0.51-1.77c0-0.48,0.07-0.56,0.15-0.8l4.38,3.79C224.75,214.11,225.41,214.77,225.41,214.77
					 M203.39,214.69h6.23c0.61,0,0.77-0.17,0.89-0.48l0.77-2.16l-0.35-4.27c-0.1-1.21-1.23-1.84-1.8-1.84h-3.3l-0.49-0.76
					l-1.01,0.17l0.27,3.15h2.76c1.62,0,2.17,0.61,2.41,2.14l0.09,0.56c0.1,0.66-0.09,0.85-0.24,1.07h-5.76L203.39,214.69z
					 M197.35,214.69h1.35c1.85-1.26,3.77-4.1,3.77-6.58c0-0.9-0.25-2.16-1.92-2.16h-3.08c-0.64,0-1.03-0.1-1.26-0.15
					c-0.08-0.1-0.22-0.27-0.24-0.61l-0.05-1.12h0.52c0.3,0,0.49-0.07,0.54-0.1l-0.18-1.82c-0.02-0.17-0.13-0.32-0.39-0.32h-0.67
					c-0.45,0-1.01,0.07-1.18,0.1l0.27,6.61c0.42-0.02,1.19-0.03,2.57-0.03h2.07c0.44,0,1.38,0.12,1.38,0.97
					c0,0.7-0.66,1.87-1.5,2.47c-0.89,0.63-1.8,0.66-2.12,0.7L197.35,214.69z M192.03,212.68c0.18-0.46,1.14-2.77,1.2-4.37
					c0.02-0.58-0.03-0.99-0.1-1.41c-0.05-0.27-0.37-0.94-0.79-0.95l-1.57-0.05l-0.29-0.7l-1.03,0.19l0.12,3.06l0.69,0.05
					c0.71,0.05,1.5,0.14,1.5,0.83c0,0.65-0.93,2.04-1.28,2.53L192.03,212.68z M175.1,214.87l1.88-0.19
					c0.22-1.41,0.59-3.37,0.88-4.71l0.99-1.28c0.17-0.14,0.32-0.2,0.67-0.2h1.78c0.2,0.14,0.3,0.6,0.4,0.88l0.64,2.07
					c0.1,0.32,0.15,0.48,0.15,0.82h-3.75l-0.35,2.41h5.1l0.34-2.02c-0.05-1.56-0.24-4.35-0.24-4.35c-0.05-1.33-0.74-2.36-2.04-2.36
					h-1.99c-0.72,1.09-1.38,2.21-1.92,2.69c-0.1-0.1-0.2-0.24-0.25-0.58l-0.22-1.67c-0.03-0.22-0.18-0.37-0.32-0.44h-0.67
					c-0.2,0-0.39-0.05-0.49-0.22l-0.18-0.54l-0.93,0.09l0.1,3.23l1.3,0.19c0.1,0.03,0.22,0.12,0.29,0.29v0.27
					C176.28,210.06,175.47,213.5,175.1,214.87 M164.73,214.69h6.67c0.17,0,0.29-0.02,0.3-0.17l0.22-1.84
					c0.02-0.09,0.05-0.2-0.1-0.34l-1.46-1.41l0.81-1.24c0.17-0.27,0.32-0.53,0.59-0.73l1.62-0.46v-2.14c0-0.26-0.1-0.31-0.27-0.41
					h-2.52v2.96l-0.74,1.43l-1.11-1.22c-0.14-0.2-0.17-0.51-0.17-0.61v-2.02c0-0.32-0.15-0.43-0.29-0.53h-1.97l-0.17-0.76
					l-0.94,0.19l0.17,3.11l1.18,0.17c0.35,0.07,0.52,0.15,0.81,0.61l1.7,2.67c0.07,0.12,0.08,0.24,0,0.34h-3.85L164.73,214.69z
					 M161.8,214.87l1.63-0.37l-0.15-1.97c-0.14-1.79-0.1-5.05-0.1-5.39c0-0.82-0.51-1.1-0.71-1.19l-1.08-0.08
					c-0.22-0.03-0.37-0.09-0.59-0.17l-0.2-0.51l-0.88,0.07l0.17,3.16l1.3,0.08c0.12,0.09,0.39,0.32,0.47,0.78
					c0.07,0.32,0.17,1.53,0.2,2.11C161.97,213,161.87,213.97,161.8,214.87 M156.15,214.87l2-0.46c-0.08-0.54-0.4-2.75-0.44-3.65
					c-0.02-0.44-0.07-1.77-0.02-2.07l0.74-0.31l-0.08-2.07c-0.14-0.12-0.4-0.36-1.35-0.36h-4.49c-0.57,0-0.64-0.08-0.78-0.15
					l-0.34-0.61l-0.77,0.1l0.27,3.21h5.05c0.05,0.19,0.25,0.66,0.25,3.37C156.2,213.17,156.17,214.24,156.15,214.87 M140.97,214.87
					l1.78-0.41c-0.03-0.63-0.07-1.8-0.07-2.29c0-0.56,0.03-1.46,0.08-2.26l-1.53,0.43c0,0.53-0.03,1.26-0.08,2.28
					C141.12,213.33,141.04,214.12,140.97,214.87 M147.31,214.87l1.85-0.49c-0.05-0.27-0.44-2.01-0.52-3.96
					c-0.03-0.63-0.03-1.11-0.03-1.6l0.96-0.43l-0.09-2.11c-0.22-0.22-0.47-0.34-0.82-0.34h-6.03c-0.37,0-0.54-0.05-0.81-0.12
					l-0.24-0.63l-0.93,0.12l0.29,3.18h4.98c0.61,0,0.81,0.09,1.16,0.22c0.05,0.25,0.25,1.51,0.24,3.35L147.31,214.87z
					 M136.88,207.34h1.51l0.54-3.84h-2.05V207.34z M134.08,207.34h1.53l0.52-3.84h-2.05V207.34z"/>
			</g>
		</g>
		<g style="opacity:0.95;clip-path:url(#SVGID_00000170969300601988261420000002632019219423566727_);">
			<g>
				<defs>
					<rect id="SVGID_00000183948043804299623140000009527270750168624315_" x="48.05" y="172.32" width="200.99" height="25.14"/>
				</defs>
				<clipPath id="SVGID_00000067229530663912290610000001406965869593659288_">
					<use xlink:href="#SVGID_00000183948043804299623140000009527270750168624315_"  style="overflow:visible;"/>
				</clipPath>
				<path style="clip-path:url(#SVGID_00000067229530663912290610000001406965869593659288_);fill:#231F20;" d="M237.98,184.84h1.51
					l0.54-3.84h-2.05V184.84z M235.19,184.84h1.53l0.52-3.84h-2.05V184.84z M231.71,192.37l1.63-0.37l-0.15-1.97
					c-0.13-1.79-0.1-5.05-0.1-5.39c0-0.82-0.51-1.11-0.71-1.19l-1.08-0.09c-0.22-0.03-0.37-0.08-0.59-0.17l-0.2-0.51l-0.88,0.07
					l0.17,3.16l1.3,0.09c0.12,0.08,0.39,0.32,0.47,0.78c0.07,0.32,0.17,1.53,0.2,2.11C231.87,190.5,231.77,191.47,231.71,192.37
					 M227.85,192.27c0.1,0,0.2-0.02,0.3-0.09l0.42-2.79c-0.25-0.09-0.79-0.2-1.53-0.75l-1.51-1.24l0.82-1.41h1.97l-0.19-1.79
					c-0.05-0.6-0.37-0.76-1.72-0.76c-0.94,0-1.23,0.1-1.58,0.17l0.47,2.23c-0.05,0.19-0.22,0.61-0.42,1.04
					c-0.45-0.31-1.97-1.55-2.49-2.04c-0.62-0.58-1.04-1.36-1.45-2.16c-0.17,0-0.4,0.07-0.52,0.14l-0.27,2.97l0.89,0.66l-0.35,0.76
					c-0.08,0.19-0.13,0.6-0.08,1.05l0.18,1.5l-1.38,0.24l-0.47,2.18h3.6l0.3-1.8c-0.2-0.17-0.42-0.39-0.61-0.77
					c-0.15-0.31-0.5-1.05-0.5-1.77c0-0.48,0.07-0.56,0.15-0.8l4.38,3.79C227.2,191.61,227.85,192.27,227.85,192.27 M216.78,190.18
					c0.19-0.46,1.15-2.77,1.2-4.37c0.02-0.58-0.03-0.99-0.1-1.41c-0.05-0.27-0.37-0.93-0.79-0.95l-1.57-0.05l-0.29-0.7l-1.03,0.19
					l0.12,3.06l0.69,0.05c0.71,0.05,1.5,0.14,1.5,0.83c0,0.65-0.93,2.04-1.28,2.53L216.78,190.18z M210.16,196.45l2.29-0.48
					c-0.12-0.95-0.35-2.29-0.42-4.74l-0.13-4.95l1.11-0.34l-0.07-1.87c-0.17-0.43-0.61-0.63-0.96-0.63h-1.53
					c-0.3,0-0.66-0.12-0.84-0.26l-0.18-0.51l-1.06,0.08l0.15,3.23h0.82c0.54,0,0.77,0.15,1.01,0.29l0.08,5.07
					C210.47,193.12,210.35,194.68,210.16,196.45 M193.87,192.37l1.89-0.19c0.22-1.41,0.59-3.37,0.88-4.71l0.99-1.27
					c0.17-0.14,0.32-0.2,0.67-0.2h1.78c0.2,0.14,0.3,0.6,0.4,0.88l0.64,2.07c0.1,0.32,0.15,0.48,0.15,0.82h-3.75l-0.35,2.41h5.1
					l0.34-2.02c-0.05-1.56-0.24-4.35-0.24-4.35c-0.05-1.33-0.74-2.36-2.04-2.36h-1.99c-0.72,1.09-1.38,2.21-1.92,2.69
					c-0.1-0.1-0.2-0.24-0.25-0.58l-0.22-1.67c-0.03-0.22-0.18-0.37-0.32-0.44h-0.67c-0.2,0-0.39-0.05-0.49-0.22l-0.18-0.54
					l-0.93,0.08l0.1,3.23l1.29,0.19c0.1,0.03,0.22,0.12,0.29,0.29v0.27C195.05,187.56,194.24,191,193.87,192.37 M190.2,192.37
					l1.63-0.37l-0.15-1.97c-0.13-1.79-0.1-5.05-0.1-5.39c0-0.82-0.51-1.11-0.71-1.19l-1.08-0.09c-0.22-0.03-0.37-0.08-0.59-0.17
					l-0.2-0.51l-0.88,0.07l0.17,3.16l1.3,0.09c0.12,0.08,0.39,0.32,0.47,0.78c0.07,0.32,0.17,1.53,0.2,2.11
					C190.37,190.5,190.27,191.47,190.2,192.37 M178.86,192.19h6.23c0.6,0,0.77-0.17,0.89-0.48l0.77-2.16l-0.35-4.27
					c-0.1-1.21-1.23-1.84-1.8-1.84h-3.3l-0.49-0.76l-1.01,0.17l0.27,3.15h2.76c1.62,0,2.17,0.61,2.41,2.14l0.08,0.56
					c0.1,0.66-0.08,0.85-0.24,1.07h-5.76L178.86,192.19z M175.98,192.37l1.6-0.43c-0.05-0.76-0.15-2.6-0.15-3.33v-3.01
					c0-0.97-0.62-2.16-1.67-2.16h-4.44l-0.46-0.76l-0.91,0.12l0.15,3.2h4.7c0.24,0.12,0.67,0.31,0.93,0.9
					c0.2,0.48,0.39,1.78,0.39,2.67C176.11,190.33,176.05,191.22,175.98,192.37 M167.43,190.18c0.18-0.46,1.14-2.77,1.19-4.37
					c0.02-0.58-0.03-0.99-0.1-1.41c-0.05-0.27-0.37-0.93-0.79-0.95l-1.57-0.05l-0.29-0.7l-1.03,0.19l0.12,3.06l0.69,0.05
					c0.71,0.05,1.5,0.14,1.5,0.83c0,0.65-0.93,2.04-1.28,2.53L167.43,190.18z M160.82,196.45l2.29-0.48
					c-0.12-0.95-0.35-2.29-0.42-4.74l-0.14-4.95l1.11-0.34l-0.07-1.87c-0.17-0.43-0.61-0.63-0.96-0.63h-1.53
					c-0.3,0-0.66-0.12-0.84-0.26l-0.19-0.51l-1.06,0.08l0.15,3.23h0.82c0.54,0,0.77,0.15,1.01,0.29l0.08,5.07
					C161.12,193.12,161,194.68,160.82,196.45 M145.56,192.27c0,0,1.78-0.09,2.99-0.09h4.93l0.13-2.41l-0.42-0.14
					c-0.47-0.15-0.44-0.94-0.46-1.21l-0.18-2.86c-0.1-1.56-0.84-2.12-2.24-2.12h-2.93c-0.35,0-0.51-0.12-0.61-0.36l-0.18-0.41
					l-0.84,0.19l0.13,3.13h3.25c0.98,0,1.36,0.2,1.65,0.48c0.22,0.56,0.45,1.12,0.56,2.16c0.05,0.54,0.05,0.7,0.05,0.93
					c-0.32,0.09-1.09,0.2-1.75,0.2h-3.84L145.56,192.27z M135.77,192.37l1.78-0.41c-0.03-0.63-0.07-1.8-0.07-2.29
					c0-0.56,0.03-1.46,0.08-2.26l-1.53,0.43c0,0.53-0.03,1.26-0.08,2.28C135.92,190.83,135.84,191.62,135.77,192.37 M142.11,192.37
					l1.85-0.49c-0.05-0.27-0.44-2.01-0.52-3.96c-0.03-0.63-0.03-1.1-0.03-1.6l0.96-0.43l-0.08-2.11c-0.22-0.22-0.47-0.34-0.83-0.34
					h-6.02c-0.37,0-0.54-0.05-0.81-0.12l-0.24-0.63l-0.93,0.12l0.29,3.18h4.98c0.61,0,0.81,0.08,1.16,0.22
					c0.05,0.26,0.25,1.51,0.24,3.35L142.11,192.37z M131.07,196.45l2.29-0.48c-0.12-0.95-0.35-2.29-0.42-4.74l-0.13-4.95l1.11-0.34
					l-0.07-1.87c-0.17-0.43-0.61-0.63-0.96-0.63h-1.53c-0.3,0-0.66-0.12-0.84-0.26l-0.18-0.51l-1.06,0.08l0.15,3.23h0.82
					c0.54,0,0.77,0.15,1.01,0.29l0.08,5.07C131.38,193.12,131.26,194.68,131.07,196.45 M118.72,192.19h1.35
					c1.85-1.26,3.77-4.1,3.77-6.58c0-0.9-0.25-2.16-1.92-2.16h-3.08c-0.64,0-1.03-0.1-1.26-0.15c-0.08-0.1-0.22-0.27-0.24-0.61
					l-0.05-1.12h0.52c0.3,0,0.49-0.07,0.54-0.1l-0.19-1.82c-0.02-0.17-0.13-0.32-0.39-0.32h-0.67c-0.45,0-1.01,0.07-1.18,0.1
					l0.27,6.61c0.42-0.02,1.19-0.03,2.57-0.03h2.07c0.44,0,1.38,0.12,1.38,0.97c0,0.7-0.66,1.87-1.5,2.46
					c-0.89,0.63-1.8,0.66-2.12,0.7L118.72,192.19z M114.11,192.27c0.1,0,0.2-0.02,0.3-0.09l0.42-2.79c-0.25-0.09-0.79-0.2-1.53-0.75
					l-1.51-1.24l0.83-1.41h1.97l-0.18-1.79c-0.05-0.6-0.37-0.76-1.72-0.76c-0.94,0-1.23,0.1-1.58,0.17l0.47,2.23
					c-0.05,0.19-0.22,0.61-0.42,1.04c-0.46-0.31-1.97-1.55-2.49-2.04c-0.62-0.58-1.04-1.36-1.45-2.16c-0.17,0-0.4,0.07-0.52,0.14
					l-0.27,2.97l0.89,0.66l-0.35,0.76c-0.08,0.19-0.13,0.6-0.08,1.05l0.19,1.5l-1.38,0.24l-0.47,2.18h3.6l0.3-1.8
					c-0.2-0.17-0.42-0.39-0.61-0.77c-0.15-0.31-0.51-1.05-0.51-1.77c0-0.48,0.07-0.56,0.15-0.8l4.38,3.79
					C113.45,191.61,114.11,192.27,114.11,192.27 M91.84,192.19h6.23c0.61,0,0.78-0.17,0.89-0.48l0.77-2.16l-0.35-4.27
					c-0.1-1.21-1.23-1.84-1.8-1.84h-3.3l-0.49-0.76l-1.01,0.17l0.27,3.15h2.76c1.62,0,2.17,0.61,2.41,2.14l0.08,0.56
					c0.1,0.66-0.08,0.85-0.24,1.07h-5.75L91.84,192.19z M85.8,192.19h1.35c1.85-1.26,3.77-4.1,3.77-6.58c0-0.9-0.25-2.16-1.92-2.16
					h-3.08c-0.64,0-1.03-0.1-1.26-0.15c-0.08-0.1-0.22-0.27-0.23-0.61l-0.05-1.12h0.52c0.3,0,0.49-0.07,0.54-0.1l-0.18-1.82
					c-0.02-0.17-0.13-0.32-0.39-0.32h-0.67c-0.46,0-1.01,0.07-1.18,0.1l0.27,6.61c0.42-0.02,1.19-0.03,2.57-0.03h2.07
					c0.44,0,1.38,0.12,1.38,0.97c0,0.7-0.66,1.87-1.5,2.46c-0.89,0.63-1.8,0.66-2.12,0.7L85.8,192.19z M80.48,190.18
					c0.18-0.46,1.14-2.77,1.19-4.37c0.02-0.58-0.03-0.99-0.1-1.41c-0.05-0.27-0.37-0.93-0.79-0.95l-1.57-0.05l-0.29-0.7l-1.03,0.19
					l0.12,3.06l0.69,0.05c0.71,0.05,1.5,0.14,1.5,0.83c0,0.65-0.93,2.04-1.28,2.53L80.48,190.18z M69.47,192.37l1.82-0.49
					c-0.25-1.48-0.37-2.12-0.42-3.59L70.78,186h0.47c0.61,0,0.86,0.05,1.28,0.12l-0.07-2.14c-0.02-0.41-0.18-0.53-0.56-0.53h-2.05
					c-0.32,0-0.39-0.05-0.54-0.12l-0.34-0.65l-0.96,0.14l0.22,3.14l1.18,0.2l0.07,1.97c0.02,0.39,0.02,2.18,0.02,2.57
					C69.5,191.08,69.52,191.62,69.47,192.37 M65.46,190.18c0.18-0.46,1.14-2.77,1.19-4.37c0.02-0.58-0.03-0.99-0.1-1.41
					c-0.05-0.27-0.37-0.93-0.79-0.95l-1.57-0.05l-0.29-0.7l-1.03,0.19l0.12,3.06l0.69,0.05c0.71,0.05,1.5,0.14,1.5,0.83
					c0,0.65-0.93,2.04-1.28,2.53L65.46,190.18z M58.85,196.45l2.29-0.48c-0.12-0.95-0.35-2.29-0.42-4.74l-0.14-4.95l1.11-0.34
					l-0.07-1.87c-0.17-0.43-0.61-0.63-0.96-0.63h-1.53c-0.3,0-0.66-0.12-0.84-0.26l-0.19-0.51l-1.06,0.08L57.2,186h0.82
					c0.54,0,0.77,0.15,1.01,0.29l0.08,5.07C59.15,193.12,59.03,194.68,58.85,196.45"/>
			</g>
		</g>
	</g>
</g>
</svg>
