<svg xmlns="http://www.w3.org/2000/svg" viewBox="0 0 297.64 420.94">
 <rect width="297.64" height="420.95" fill="#ffffff" />
 <path transform="translate(6.0025 -.79487)" d="m240.54 244.82v-4.48c0-.12-.02-.24-.08-.36-.05-.12-.12-.23-.2-.32s-.17-.17-.27-.23-.21-.09-.31-.09c-.07 0-.13 .02-.18 .07s-.07 .11-.07 .18c0 .1 .04 .17 .12 .22 .09 .06 .18 .15 .26 .26 .09 .11 .13 .24 .13 .4v4.2c0 .15-.04 .29-.13 .4-.08 .11-.17 .2-.26 .26-.08 .06-.12 .14-.12 .22 0 .07 .02 .14 .07 .18 .05 .05 .11 .07 .18 .07 .11 0 .21-.03 .31-.09s.19-.14 .27-.23 .15-.2 .2-.32c.06-.1 .08-.22 .08-.34m-2.3-.88v-2.42c0-.18-.04-.35-.12-.51s-.19-.3-.32-.42c-.14-.12-.29-.22-.47-.28s-.36-.1-.56-.1c-.26 0-.49 .04-.69 .11s-.4 .22-.62 .43v-.18c0-.09-.03-.16-.08-.21s-.12-.08-.22-.08h-.68c-.07 0-.11 .04-.11 .1v.39c0 .08 .04 .11 .11 .11h.4v3.92c0 .07 .03 .1 .1 .1h.4c.07 0 .1-.04 .1-.1v-2.89c0-.16 .03-.3 .09-.44s.14-.26 .24-.36 .23-.19 .36-.24c.14-.06 .29-.09 .44-.09 .3 0 .54 .08 .72 .23s.27 .34 .27 .56v2.35c0 .11-.04 .2-.11 .27s-.16 .11-.27 .11h-.78c-.07 0-.11 .04-.11 .1v.4c0 .07 .04 .1 .11 .1h.78c.14 0 .27-.02 .39-.08 .12-.05 .23-.12 .32-.21s.16-.19 .22-.31c.06-.09 .09-.22 .09-.36m-5.49-.56c0 .14-.03 .28-.08 .4s-.13 .24-.22 .33c-.1 .1-.21 .17-.33 .22s-.26 .08-.4 .08-.28-.03-.4-.08-.24-.13-.33-.22c-.09-.1-.17-.21-.22-.33s-.08-.26-.08-.4v-2.48h2.07v2.48zm.63-2.8c0-.09-.03-.16-.08-.21-.06-.05-.13-.08-.22-.08h-3.44c-.04 0-.07 .01-.09 .03s-.03 .04-.03 .07v.39c0 .03 .01 .05 .03 .08s.05 .04 .09 .04h.42v2.46c0 .23 .04 .44 .13 .64s.21 .38 .36 .52 .32 .27 .52 .36 .41 .13 .64 .13 .45-.04 .65-.13 .38-.21 .53-.36 .27-.32 .36-.52 .13-.41 .13-.64zm-4.83 3.36v-3.36c0-.09-.03-.16-.08-.21s-.12-.08-.22-.08h-2.74c-.07 0-.11 .04-.11 .1v.39c0 .08 .04 .11 .11 .11h2.41v3.04c0 .11-.04 .2-.12 .27s-.17 .11-.28 .11h-2.02c-.07 0-.11 .04-.11 .11v.39c0 .07 .04 .1 .11 .1h2.02c.14 0 .27-.02 .39-.08 .12-.05 .23-.12 .32-.21s.17-.2 .22-.31c.08-.1 .1-.23 .1-.37m-4.22-3.36c0-.09-.03-.16-.08-.21s-.12-.08-.22-.08h-3.45c-.07 0-.11 .04-.11 .1v.39c0 .08 .04 .11 .11 .11h.57v3.42h-.62c-.07 0-.1 .04-.1 .11v.39c0 .07 .04 .1 .1 .1h.95c.09 0 .16-.03 .21-.08s.08-.12 .08-.22v-3.73h1.94v3.92c0 .07 .04 .1 .11 .1h.4c.07 0 .1-.04 .1-.1v-4.22zm-7.35 3.36v-2.42c0-.18-.04-.35-.12-.51s-.19-.3-.32-.42c-.14-.12-.29-.22-.47-.28-.18-.07-.36-.1-.56-.1-.26 0-.49 .04-.69 .11s-.4 .22-.62 .43v-.18c0-.09-.03-.16-.08-.21s-.12-.08-.22-.08h-.68c-.07 0-.11 .04-.11 .1v.39c0 .08 .04 .11 .11 .11h.4v3.92c0 .07 .04 .1 .1 .1h.4c.07 0 .1-.04 .1-.1v-2.89c0-.16 .03-.3 .09-.44s.14-.26 .24-.36 .23-.19 .36-.24c.14-.06 .29-.09 .44-.09 .3 0 .55 .08 .72 .23 .18 .15 .27 .34 .27 .56v2.35c0 .11-.04 .2-.11 .27s-.17 .11-.27 .11h-.78c-.07 0-.11 .04-.11 .1v.4c0 .07 .04 .1 .11 .1h.78c.14 0 .27-.02 .39-.08 .12-.05 .23-.12 .32-.21s.16-.19 .22-.31c.06-.09 .09-.22 .09-.36m-4.86 0v-3.36c0-.09-.03-.16-.08-.21s-.12-.08-.22-.08h-2.74c-.07 0-.11 .04-.11 .1v.39c0 .08 .04 .11 .11 .11h2.41v3.04c0 .11-.04 .2-.12 .27s-.17 .11-.28 .11h-2.02c-.07 0-.11 .04-.11 .11v.39c0 .07 .04 .1 .11 .1h2.02c.14 0 .27-.02 .39-.08 .12-.05 .23-.12 .32-.21s.17-.2 .22-.31c.07-.1 .1-.23 .1-.37m-4.11 .88v-4.24c0-.09-.03-.16-.08-.21-.06-.05-.13-.08-.22-.08h-.82c-.03 0-.06 .01-.08 .03s-.04 .04-.04 .07v.39c0 .03 .01 .06 .04 .08 .02 .02 .05 .03 .08 .03h.5v3.92c0 .03 .01 .06 .04 .08s.05 .03 .08 .03h.38c.03 0 .06-.01 .08-.03s.04-.03 .04-.07m-2.24-4.24c0-.09-.03-.16-.08-.21s-.13-.08-.22-.08h-3.45c-.07 0-.11 .04-.11 .1v.39c0 .08 .04 .11 .11 .11h.57v3.42h-.62c-.07 0-.1 .04-.1 .11v.39c0 .07 .03 .1 .1 .1h.95c.09 0 .16-.03 .21-.08s.08-.12 .08-.22v-3.73h1.94v3.92c0 .07 .04 .1 .11 .1h.4c.07 0 .1-.04 .1-.1v-4.22zm-4.96 3.92c.02-.05 .02-.09-.01-.12-.03-.04-.06-.05-.11-.05h-.43c-.04 0-.08 .02-.11 .05s-.05 .07-.06 .11l-.3 1.52c0 .06 .03 .09 .09 .09h.22c.06 0 .11-.03 .13-.08zm-4.41-2.26v-1.66c0-.09-.03-.16-.08-.21-.06-.05-.13-.08-.22-.08h-.98c-.03 0-.06 .01-.08 .03s-.04 .04-.04 .07v.39c0 .03 .01 .06 .04 .08s.05 .03 .08 .03h.66v1.34c0 .03 .01 .05 .04 .07s.05 .03 .08 .03h.38c.03 0 .06-.01 .08-.03s.04-.03 .04-.06m-2.16-1.77c.02-.05 .01-.1-.01-.13s-.06-.05-.11-.05h-.43c-.1 0-.16 .05-.17 .16l-.3 1.91c0 .06 .03 .09 .09 .09h.22c.07 0 .11-.02 .13-.07zm-1.96 4.03c.02-.05 .02-.09-.01-.12-.03-.04-.06-.05-.11-.05h-.43c-.04 0-.08 .02-.11 .05s-.05 .07-.06 .11l-.3 1.52c0 .06 .03 .09 .09 .09h.22c.06 0 .11-.03 .13-.08zm-4.43-2.79v-1.12c0-.09-.03-.16-.08-.22-.05-.05-.12-.08-.22-.08h-.98c-.07 0-.1 .04-.1 .1v.4c0 .07 .04 .1 .1 .1h.65v.85c0 .25-.09 .44-.27 .58-.18 .13-.42 .21-.7 .24l-1.54-2.26c-.03-.04-.07-.07-.12-.08s-.1 0-.14 .03l-.19 .13c-.05 .03-.08 .07-.09 .12s0 .1 .02 .14l.7 1.02-.15 .11c-.26 .19-.42 .39-.5 .62-.07 .23-.11 .48-.11 .76v1.47c0 .09 .03 .16 .08 .21 .06 .05 .13 .08 .22 .08h.94c.08 0 .11-.04 .11-.1v-.39c0-.07-.04-.11-.11-.11h-.63v-1.2c0-.23 .03-.41 .1-.56 .06-.14 .2-.27 .39-.4l1.86 2.7c.03 .04 .08 .07 .13 .08s.11 0 .16-.03l.18-.12c.04-.03 .07-.07 .08-.12s.01-.1-.02-.14l-.99-1.45c.2-.03 .37-.09 .53-.18 .15-.09 .28-.19 .39-.31 .1-.12 .18-.26 .24-.41 .04-.13 .06-.29 .06-.46m-5.08 3.7c-.09-.06-.18-.15-.27-.26s-.13-.24-.13-.4v-4.28c0-.15 .04-.29 .13-.4s.18-.2 .27-.26c.08-.05 .12-.13 .12-.22 0-.07-.02-.14-.07-.18-.05-.05-.11-.07-.18-.07-.11 0-.21 .03-.31 .09s-.19 .13-.27 .23-.15 .2-.2 .32-.08 .24-.08 .36v4.56c0 .12 .02 .24 .08 .36 .05 .12 .12 .22 .2 .32 .08 .09 .17 .17 .27 .23s.21 .09 .31 .09c.07 0 .13-.02 .18-.07s.07-.11 .07-.18c0-.1-.04-.18-.12-.24" />
 <path transform="translate(6.0025 -.79487)" d="m238.37 214.87 1.63-.37-.15-1.97c-.13-1.79-.1-5.05-.1-5.39 0-.82-.5-1.1-.71-1.19l-1.08-.08c-.22-.03-.37-.09-.59-.17l-.2-.51-.88 .07 .17 3.16 1.3 .08c.12 .09 .39 .32 .47 .78 .07 .32 .17 1.53 .2 2.11 .11 1.61 .01 2.58-.06 3.48m-8.35-.18h1.35c1.85-1.26 3.77-4.1 3.77-6.58 0-.9-.25-2.16-1.92-2.16h-3.08c-.64 0-1.03-.1-1.26-.15-.08-.1-.22-.27-.24-.61l-.05-1.12h.52c.3 0 .49-.07 .54-.1l-.19-1.82c-.02-.17-.13-.32-.39-.32h-.67c-.45 0-1.01 .07-1.18 .1l.27 6.61c.42-.02 1.2-.03 2.57-.03h2.07c.44 0 1.38 .12 1.38 .97 0 .7-.66 1.87-1.5 2.47-.89 .63-1.8 .66-2.12 .7zm-4.61 .08c.1 0 .2-.02 .3-.08l.42-2.79c-.25-.09-.79-.2-1.53-.75l-1.51-1.24 .82-1.41h1.97l-.18-1.79c-.05-.6-.37-.76-1.72-.76-.94 0-1.23 .1-1.58 .17l.47 2.23c-.05 .19-.22 .61-.42 1.04-.45-.31-1.97-1.55-2.49-2.04-.62-.58-1.04-1.36-1.45-2.16-.17 0-.4 .07-.52 .14l-.27 2.98 .89 .66-.35 .76c-.08 .19-.13 .6-.08 1.05l.18 1.5-1.38 .24-.47 2.18h3.6l.3-1.8c-.2-.17-.42-.39-.61-.76-.15-.31-.51-1.05-.51-1.77 0-.48 .07-.56 .15-.8l4.38 3.79c.93 .75 1.59 1.41 1.59 1.41m-22.02-.08h6.23c.61 0 .77-.17 .89-.48l.77-2.16-.35-4.27c-.1-1.21-1.23-1.84-1.8-1.84h-3.3l-.49-.76-1.01 .17 .27 3.15h2.76c1.62 0 2.17 .61 2.41 2.14l.09 .56c.1 .66-.09 .85-.24 1.07h-5.76zm-6.04 0h1.35c1.85-1.26 3.77-4.1 3.77-6.58 0-.9-.25-2.16-1.92-2.16h-3.08c-.64 0-1.03-.1-1.26-.15-.08-.1-.22-.27-.24-.61l-.05-1.12h.52c.3 0 .49-.07 .54-.1l-.18-1.82c-.02-.17-.13-.32-.39-.32h-.67c-.45 0-1.01 .07-1.18 .1l.27 6.61c.42-.02 1.19-.03 2.57-.03h2.07c.44 0 1.38 .12 1.38 .97 0 .7-.66 1.87-1.5 2.47-.89 .63-1.8 .66-2.12 .7zm-5.32-2.01c.18-.46 1.14-2.77 1.2-4.37 .02-.58-.03-.99-.1-1.41-.05-.27-.37-.94-.79-.95l-1.57-.05-.29-.7-1.03 .19 .12 3.06 .69 .05c.71 .05 1.5 .14 1.5 .83 0 .65-.93 2.04-1.28 2.53zm-16.93 2.19 1.88-.19c.22-1.41 .59-3.37 .88-4.71l.99-1.28c.17-.14 .32-.2 .67-.2h1.78c.2 .14 .3 .6 .4 .88l.64 2.07c.1 .32 .15 .48 .15 .82h-3.75l-.35 2.41h5.1l.34-2.02c-.05-1.56-.24-4.35-.24-4.35-.05-1.33-.74-2.36-2.04-2.36h-1.99c-.72 1.09-1.38 2.21-1.92 2.69-.1-.1-.2-.24-.25-.58l-.22-1.67c-.03-.22-.18-.37-.32-.44h-.67c-.2 0-.39-.05-.49-.22l-.18-.54-.93 .09 .1 3.23 1.3 .19c.1 .03 .22 .12 .29 .29v.27c.01 .81-.8 4.25-1.17 5.62m-10.37-.18h6.67c.17 0 .29-.02 .3-.17l.22-1.84c.02-.09 .05-.2-.1-.34l-1.46-1.41 .81-1.24c.17-.27 .32-.53 .59-.73l1.62-.46v-2.14c0-.26-.1-.31-.27-.41h-2.52v2.96l-.74 1.43-1.11-1.22c-.14-.2-.17-.51-.17-.61v-2.02c0-.32-.15-.43-.29-.53h-1.97l-.17-.76-.94 .19 .17 3.11 1.18 .17c.35 .07 .52 .15 .81 .61l1.7 2.67c.07 .12 .08 .24 0 .34h-3.85zm-2.93 .18 1.63-.37-.15-1.97c-.14-1.79-.1-5.05-.1-5.39 0-.82-.51-1.1-.71-1.19l-1.08-.08c-.22-.03-.37-.09-.59-.17l-.2-.51-.88 .07 .17 3.16 1.3 .08c.12 .09 .39 .32 .47 .78 .07 .32 .17 1.53 .2 2.11 .11 1.61 .01 2.58-.06 3.48m-5.65 0 2-.46c-.08-.54-.4-2.75-.44-3.65-.02-.44-.07-1.77-.02-2.07l.74-.31-.08-2.07c-.14-.12-.4-.36-1.35-.36h-4.49c-.57 0-.64-.08-.78-.15l-.34-.61-.77 .1 .27 3.21h5.05c.05 .19 .25 .66 .25 3.37 .01 1.3-.02 2.37-.04 3m-15.18 0 1.78-.41c-.03-.63-.07-1.8-.07-2.29 0-.56 .03-1.46 .08-2.26l-1.53 .43c0 .53-.03 1.26-.08 2.28-.03 .71-.11 1.5-.18 2.25m6.34 0 1.85-.49c-.05-.27-.44-2.01-.52-3.96-.03-.63-.03-1.11-.03-1.6l.96-.43-.09-2.11c-.22-.22-.47-.34-.82-.34h-6.03c-.37 0-.54-.05-.81-.12l-.24-.63-.93 .12 .29 3.18h4.98c.61 0 .81 .09 1.16 .22 .05 .25 .25 1.51 .24 3.35zm-10.43-7.53h1.51l.54-3.84h-2.05zm-2.8 0h1.53l.52-3.84h-2.05z" />
 <path transform="translate(6.0025 -.79487)" d="m237.98 184.84h1.51l.54-3.84h-2.05zm-2.79 0h1.53l.52-3.84h-2.05zm-3.48 7.53 1.63-.37-.15-1.97c-.13-1.79-.1-5.05-.1-5.39 0-.82-.51-1.11-.71-1.19l-1.08-.09c-.22-.03-.37-.08-.59-.17l-.2-.51-.88 .07 .17 3.16 1.3 .09c.12 .08 .39 .32 .47 .78 .07 .32 .17 1.53 .2 2.11 .1 1.61 0 2.58-.06 3.48m-3.86-.1c.1 0 .2-.02 .3-.09l.42-2.79c-.25-.09-.79-.2-1.53-.75l-1.51-1.24 .82-1.41h1.97l-.19-1.79c-.05-.6-.37-.76-1.72-.76-.94 0-1.23 .1-1.58 .17l.47 2.23c-.05 .19-.22 .61-.42 1.04-.45-.31-1.97-1.55-2.49-2.04-.62-.58-1.04-1.36-1.45-2.16-.17 0-.4 .07-.52 .14l-.27 2.97 .89 .66-.35 .76c-.08 .19-.13 .6-.08 1.05l.18 1.5-1.38 .24-.47 2.18h3.6l.3-1.8c-.2-.17-.42-.39-.61-.77-.15-.31-.5-1.05-.5-1.77 0-.48 .07-.56 .15-.8l4.38 3.79c.94 .78 1.59 1.44 1.59 1.44m-11.07-2.09c.19-.46 1.15-2.77 1.2-4.37 .02-.58-.03-.99-.1-1.41-.05-.27-.37-.93-.79-.95l-1.57-.05-.29-.7-1.03 .19 .12 3.06 .69 .05c.71 .05 1.5 .14 1.5 .83 0 .65-.93 2.04-1.28 2.53zm-6.62 6.27 2.29-.48c-.12-.95-.35-2.29-.42-4.74l-.13-4.95 1.11-.34-.07-1.87c-.17-.43-.61-.63-.96-.63h-1.53c-.3 0-.66-.12-.84-.26l-.18-.51-1.06 .08 .15 3.23h.82c.54 0 .77 .15 1.01 .29l.08 5.07c.04 1.78-.08 3.34-.27 5.11m-16.29-4.08 1.89-.19c.22-1.41 .59-3.37 .88-4.71l.99-1.27c.17-.14 .32-.2 .67-.2h1.78c.2 .14 .3 .6 .4 .88l.64 2.07c.1 .32 .15 .48 .15 .82h-3.75l-.35 2.41h5.1l.34-2.02c-.05-1.56-.24-4.35-.24-4.35-.05-1.33-.74-2.36-2.04-2.36h-1.99c-.72 1.09-1.38 2.21-1.92 2.69-.1-.1-.2-.24-.25-.58l-.22-1.67c-.03-.22-.18-.37-.32-.44h-.67c-.2 0-.39-.05-.49-.22l-.18-.54-.93 .08 .1 3.23 1.29 .19c.1 .03 .22 .12 .29 .29v.27c.01 .81-.8 4.25-1.17 5.62m-3.67 0 1.63-.37-.15-1.97c-.13-1.79-.1-5.05-.1-5.39 0-.82-.51-1.11-.71-1.19l-1.08-.09c-.22-.03-.37-.08-.59-.17l-.2-.51-.88 .07 .17 3.16 1.3 .09c.12 .08 .39 .32 .47 .78 .07 .32 .17 1.53 .2 2.11 .11 1.61 .01 2.58-.06 3.48m-11.34-.18h6.23c.6 0 .77-.17 .89-.48l.77-2.16-.35-4.27c-.1-1.21-1.23-1.84-1.8-1.84h-3.3l-.49-.76-1.01 .17 .27 3.15h2.76c1.62 0 2.17 .61 2.41 2.14l.08 .56c.1 .66-.08 .85-.24 1.07h-5.76zm-2.88 .18 1.6-.43c-.05-.76-.15-2.6-.15-3.33v-3.01c0-.97-.62-2.16-1.67-2.16h-4.44l-.46-.76-.91 .12 .15 3.2h4.7c.24 .12 .67 .31 .93 .9 .2 .48 .39 1.78 .39 2.67-.01 .76-.07 1.65-.14 2.8m-8.55-2.19c.18-.46 1.14-2.77 1.19-4.37 .02-.58-.03-.99-.1-1.41-.05-.27-.37-.93-.79-.95l-1.57-.05-.29-.7-1.03 .19 .12 3.06 .69 .05c.71 .05 1.5 .14 1.5 .83 0 .65-.93 2.04-1.28 2.53zm-6.61 6.27 2.29-.48c-.12-.95-.35-2.29-.42-4.74l-.14-4.95 1.11-.34-.07-1.87c-.17-.43-.61-.63-.96-.63h-1.53c-.3 0-.66-.12-.84-.26l-.19-.51-1.06 .08 .15 3.23h.82c.54 0 .77 .15 1.01 .29l.08 5.07c.05 1.78-.07 3.34-.25 5.11m-15.26-4.18s1.78-.09 2.99-.09h4.93l.13-2.41-.42-.14c-.47-.15-.44-.94-.46-1.21l-.18-2.86c-.1-1.56-.84-2.12-2.24-2.12h-2.93c-.35 0-.51-.12-.61-.36l-.18-.41-.84 .19 .13 3.13h3.25c.98 0 1.36 .2 1.65 .48 .22 .56 .45 1.12 .56 2.16 .05 .54 .05 .7 .05 .93-.32 .09-1.09 .2-1.75 .2h-3.84zm-9.79 .1 1.78-.41c-.03-.63-.07-1.8-.07-2.29 0-.56 .03-1.46 .08-2.26l-1.53 .43c0 .53-.03 1.26-.08 2.28-.03 .71-.11 1.5-.18 2.25m6.34 0 1.85-.49c-.05-.27-.44-2.01-.52-3.96-.03-.63-.03-1.1-.03-1.6l.96-.43-.08-2.11c-.22-.22-.47-.34-.83-.34h-6.02c-.37 0-.54-.05-.81-.12l-.24-.63-.93 .12 .29 3.18h4.98c.61 0 .81 .08 1.16 .22 .05 .26 .25 1.51 .24 3.35zm-11.04 4.08 2.29-.48c-.12-.95-.35-2.29-.42-4.74l-.13-4.95 1.11-.34-.07-1.87c-.17-.43-.61-.63-.96-.63h-1.53c-.3 0-.66-.12-.84-.26l-.18-.51-1.06 .08 .15 3.23h.82c.54 0 .77 .15 1.01 .29l.08 5.07c.04 1.78-.08 3.34-.27 5.11m-12.35-4.26h1.35c1.85-1.26 3.77-4.1 3.77-6.58 0-.9-.25-2.16-1.92-2.16h-3.08c-.64 0-1.03-.1-1.26-.15-.08-.1-.22-.27-.24-.61l-.05-1.12h.52c.3 0 .49-.07 .54-.1l-.19-1.82c-.02-.17-.13-.32-.39-.32h-.67c-.45 0-1.01 .07-1.18 .1l.27 6.61c.42-.02 1.19-.03 2.57-.03h2.07c.44 0 1.38 .12 1.38 .97 0 .7-.66 1.87-1.5 2.46-.89 .63-1.8 .66-2.12 .7zm-4.61 .08c.1 0 .2-.02 .3-.09l.42-2.79c-.25-.09-.79-.2-1.53-.75l-1.51-1.24 .83-1.41h1.97l-.18-1.79c-.05-.6-.37-.76-1.72-.76-.94 0-1.23 .1-1.58 .17l.47 2.23c-.05 .19-.22 .61-.42 1.04-.46-.31-1.97-1.55-2.49-2.04-.62-.58-1.04-1.36-1.45-2.16-.17 0-.4 .07-.52 .14l-.27 2.97 .89 .66-.35 .76c-.08 .19-.13 .6-.08 1.05l.19 1.5-1.38 .24-.47 2.18h3.6l.3-1.8c-.2-.17-.42-.39-.61-.77-.15-.31-.51-1.05-.51-1.77 0-.48 .07-.56 .15-.8l4.38 3.79c.91 .78 1.57 1.44 1.57 1.44m-22.27-.08h6.23c.61 0 .78-.17 .89-.48l.77-2.16-.35-4.27c-.1-1.21-1.23-1.84-1.8-1.84h-3.3l-.49-.76-1.01 .17 .27 3.15h2.76c1.62 0 2.17 .61 2.41 2.14l.08 .56c.1 .66-.08 .85-.24 1.07h-5.75zm-6.04 0h1.35c1.85-1.26 3.77-4.1 3.77-6.58 0-.9-.25-2.16-1.92-2.16h-3.08c-.64 0-1.03-.1-1.26-.15-.08-.1-.22-.27-.23-.61l-.05-1.12h.52c.3 0 .49-.07 .54-.1l-.18-1.82c-.02-.17-.13-.32-.39-.32h-.67c-.46 0-1.01 .07-1.18 .1l.27 6.61c.42-.02 1.19-.03 2.57-.03h2.07c.44 0 1.38 .12 1.38 .97 0 .7-.66 1.87-1.5 2.46-.89 .63-1.8 .66-2.12 .7zm-5.32-2.01c.18-.46 1.14-2.77 1.19-4.37 .02-.58-.03-.99-.1-1.41-.05-.27-.37-.93-.79-.95l-1.57-.05-.29-.7-1.03 .19 .12 3.06 .69 .05c.71 .05 1.5 .14 1.5 .83 0 .65-.93 2.04-1.28 2.53zm-11.01 2.19 1.82-.49c-.25-1.48-.37-2.12-.42-3.59l-.09-2.29h.47c.61 0 .86 .05 1.28 .12l-.07-2.14c-.02-.41-.18-.53-.56-.53h-2.05c-.32 0-.39-.05-.54-.12l-.34-.65-.96 .14 .22 3.14 1.18 .2 .07 1.97c.02 .39 .02 2.18 .02 2.57 0 .38 .02 .92-.03 1.67m-9.0075-2.1871c.18-.46 1.14-2.77 1.19-4.37 .02-.58-.03-.99-.1-1.41-.05-.27-.37-.93-.79-.95l-1.57-.05-.29-.7-1.03 .19 .12 3.06 .69 .05c.71 .05 1.5 .14 1.5 .83 0 .65-.93 2.04-1.28 2.53zm-6.61 6.27 2.29-.48c-.12-.95-.35-2.29-.42-4.74l-.14-4.95 1.11-.34-.07-1.87c-.17-.43-.61-.63-.96-.63h-1.53c-.3 0-.66-.12-.84-.26l-.19-.51-1.06 .08 .16 3.25h.82c.54 0 .77 .15 1.01 .29l.08 5.07c.04 1.76-.08 3.32-.26 5.09m11.607-6.2729c.18-.46 1.14-2.77 1.19-4.37 .02-.58-.03-.99-.1-1.41-.05-.27-.37-.93-.79-.95l-1.57-.05-.29-.7-1.03 .19 .12 3.06 .69 .05c.71 .05 1.5 .14 1.5 .83 0 .65-.93 2.04-1.28 2.53z" />
</svg>
